  0
SECTION
  2
HEADER
  9
$ACADVER
  1
AC1014
  9
$ACADMAINTVER
 70
     9
  9
$DWGCODEPAGE
  3
ANSI_1252
  9
$INSBASE
 10
0.0
 20
0.0
 30
0.0
  9
$EXTMIN
 10
14.45000000000002
 20
107.3420537008053
 30
0.0
  9
$EXTMAX
 10
301.45
 20
416.0420537008054
 30
0.0
  9
$LIMMIN
 10
0.0
 20
0.0
  9
$LIMMAX
 10
420.0
 20
297.0
  9
$ORTHOMODE
 70
     0
  9
$REGENMODE
 70
     1
  9
$FILLMODE
 70
     1
  9
$QTEXTMODE
 70
     0
  9
$MIRRTEXT
 70
     1
  9
$DRAGMODE
 70
     2
  9
$LTSCALE
 40
12.7
  9
$OSMODE
 70
    23
  9
$ATTMODE
 70
     1
  9
$TEXTSIZE
 40
3.5
  9
$TRACEWID
 40
1.0
  9
$TEXTSTYLE
  7
ONSHAPE-STANDARD
  9
$CLAYER
  8
0
  9
$CELTYPE
  6
BYLAYER
  9
$CECOLOR
 62
   256
  9
$CELTSCALE
 40
1.0
  9
$DELOBJ
 70
     1
  9
$DISPSILH
 70
     0
  9
$DIMSCALE
 40
1.0
  9
$DIMASZ
 40
2.5
  9
$DIMEXO
 40
0.625
  9
$DIMDLI
 40
3.75
  9
$DIMRND
 40
0.0
  9
$DIMDLE
 40
0.0
  9
$DIMEXE
 40
1.25
  9
$DIMTP
 40
0.0
  9
$DIMTM
 40
0.0
  9
$DIMTXT
 40
3.5
  9
$DIMCEN
 40
2.5
  9
$DIMTSZ
 40
0.0
  9
$DIMTOL
 70
     0
  9
$DIMLIM
 70
     0
  9
$DIMTIH
 70
     0
  9
$DIMTOH
 70
     0
  9
$DIMSE1
 70
     0
  9
$DIMSE2
 70
     0
  9
$DIMTAD
 70
     1
  9
$DIMZIN
 70
     8
  9
$DIMBLK
  1

  9
$DIMASO
 70
     1
  9
$DIMSHO
 70
     1
  9
$DIMPOST
  1

  9
$DIMAPOST
  1

  9
$DIMALT
 70
     0
  9
$DIMALTD
 70
     3
  9
$DIMALTF
 40
0.03937
  9
$DIMLFAC
 40
1.0
  9
$DIMTOFL
 70
     1
  9
$DIMTVP
 40
0.0
  9
$DIMTIX
 70
     0
  9
$DIMSOXD
 70
     0
  9
$DIMSAH
 70
     0
  9
$DIMBLK1
  1

  9
$DIMBLK2
  1

  9
$DIMSTYLE
  2
ONSHAPE-ISO-25
  9
$DIMCLRD
 70
     7
  9
$DIMCLRE
 70
     7
  9
$DIMCLRT
 70
     7
  9
$DIMTFAC
 40
1.0
  9
$DIMGAP
 40
0.625
  9
$DIMJUST
 70
     0
  9
$DIMSD1
 70
     0
  9
$DIMSD2
 70
     0
  9
$DIMTOLJ
 70
     0
  9
$DIMTZIN
 70
     8
  9
$DIMALTZ
 70
     8
  9
$DIMALTTZ
 70
     0
  9
$DIMFIT
 70
     3
  9
$DIMUPT
 70
     1
  9
$DIMUNIT
 70
     2
  9
$DIMDEC
 70
     2
  9
$DIMTDEC
 70
     2
  9
$DIMALTU
 70
     2
  9
$DIMALTTD
 70
     3
  9
$DIMTXSTY
  7
ONSHAPE-STANDARD-DIMENSION
  9
$DIMAUNIT
 70
     0
  9
$LUNITS
 70
     2
  9
$LUPREC
 70
     4
  9
$SKETCHINC
 40
1.0
  9
$FILLETRAD
 40
10.0
  9
$AUNITS
 70
     0
  9
$AUPREC
 70
     0
  9
$MENU
  1
.
  9
$ELEVATION
 40
0.0
  9
$PELEVATION
 40
0.0
  9
$THICKNESS
 40
0.0
  9
$LIMCHECK
 70
     0
  9
$CHAMFERA
 40
0.0
  9
$CHAMFERB
 40
0.0
  9
$CHAMFERC
 40
0.0
  9
$CHAMFERD
 40
0.0
  9
$SKPOLY
 70
     0
  9
$TDCREATE
 40
2460242.796606725
  9
$TDUPDATE
 40
2460242.796607199
  9
$TDINDWG
 40
0.0
  9
$TDUSRTIMER
 40
0.0
  9
$USRTIMER
 70
     1
  9
$ANGBASE
 50
0.0
  9
$ANGDIR
 70
     0
  9
$PDMODE
 70
    33
  9
$PDSIZE
 40
1.0
  9
$PLINEWID
 40
0.0
  9
$COORDS
 70
     1
  9
$SPLFRAME
 70
     0
  9
$SPLINETYPE
 70
     6
  9
$SPLINESEGS
 70
     8
  9
$ATTDIA
 70
     0
  9
$ATTREQ
 70
     1
  9
$HANDLING
 70
     1
  9
$HANDSEED
  5
2F6
  9
$SURFTAB1
 70
     6
  9
$SURFTAB2
 70
     6
  9
$SURFTYPE
 70
     6
  9
$SURFU
 70
     6
  9
$SURFV
 70
     6
  9
$UCSNAME
  2

  9
$UCSORG
 10
0.0
 20
0.0
 30
0.0
  9
$UCSXDIR
 10
1.0
 20
0.0
 30
0.0
  9
$UCSYDIR
 10
0.0
 20
1.0
 30
0.0
  9
$PUCSNAME
  2

  9
$PUCSORG
 10
0.0
 20
0.0
 30
0.0
  9
$PUCSXDIR
 10
1.0
 20
0.0
 30
0.0
  9
$PUCSYDIR
 10
0.0
 20
1.0
 30
0.0
  9
$USERI1
 70
     0
  9
$USERI2
 70
     0
  9
$USERI3
 70
     0
  9
$USERI4
 70
     0
  9
$USERI5
 70
     0
  9
$USERR1
 40
0.0
  9
$USERR2
 40
0.0
  9
$USERR3
 40
0.0
  9
$USERR4
 40
0.0
  9
$USERR5
 40
0.0
  9
$WORLDVIEW
 70
     1
  9
$SHADEDGE
 70
     3
  9
$SHADEDIF
 70
    70
  9
$TILEMODE
 70
     1
  9
$MAXACTVP
 70
    64
  9
$PINSBASE
 10
0.0
 20
0.0
 30
0.0
  9
$PLIMCHECK
 70
     0
  9
$PEXTMIN
 10
1.000000000000000E+20
 20
1.000000000000000E+20
 30
1.000000000000000E+20
  9
$PEXTMAX
 10
-1.000000000000000E+20
 20
-1.000000000000000E+20
 30
-1.000000000000000E+20
  9
$PLIMMIN
 10
0.0
 20
0.0
  9
$PLIMMAX
 10
420.0
 20
297.0
  9
$UNITMODE
 70
     0
  9
$VISRETAIN
 70
     1
  9
$PLINEGEN
 70
     0
  9
$PSLTSCALE
 70
     1
  9
$TREEDEPTH
 70
  3020
  9
$PICKSTYLE
 70
     1
  9
$CMLSTYLE
  2
STANDARD
  9
$CMLJUST
 70
     0
  9
$CMLSCALE
 40
20.0
  9
$PROXYGRAPHICS
 70
     1
  9
$MEASUREMENT
 70
     1
  0
ENDSEC
  0
SECTION
  2
CLASSES
  0
CLASS
  1
ACDBDICTIONARYWDFLT
  2
AcDbDictionaryWithDefault
  3
ObjectDBX Classes
 90
        0
280
     0
281
     0
  0
CLASS
  1
VISUALSTYLE
  2
AcDbVisualStyle
  3
ObjectDBX Classes
 90
     4095
280
     0
281
     0
  0
CLASS
  1
MATERIAL
  2
AcDbMaterial
  3
ObjectDBX Classes
 90
     1153
280
     0
281
     0
  0
CLASS
  1
SCALE
  2
AcDbScale
  3
ObjectDBX Classes
 90
     1153
280
     0
281
     0
  0
CLASS
  1
TABLESTYLE
  2
AcDbTableStyle
  3
ObjectDBX Classes
 90
     4095
280
     0
281
     0
  0
CLASS
  1
MLEADERSTYLE
  2
AcDbMLeaderStyle
  3
ACDB_MLEADERSTYLE_CLASS
 90
     4095
280
     0
281
     0
  0
CLASS
  1
SUN
  2
AcDbSun
  3
SCENEOE
 90
     1153
280
     0
281
     0
  0
CLASS
  1
DICTIONARYVAR
  2
AcDbDictionaryVar
  3
ObjectDBX Classes
 90
        0
280
     0
281
     0
  0
CLASS
  1
XRECORD
  2
AcDbXrecord
  3
ObjectDBX Classes
 90
        0
280
     0
281
     0
  0
CLASS
  1
LWPOLYLINE
  2
AcDbPolyline
  3
ObjectDBX Classes
 90
        0
280
     0
281
     1
  0
CLASS
  1
HATCH
  2
AcDbHatch
  3
ObjectDBX Classes
 90
        0
280
     0
281
     1
  0
CLASS
  1
ACDBPLACEHOLDER
  2
AcDbPlaceHolder
  3
ObjectDBX Classes
 90
        0
280
     0
281
     0
  0
CLASS
  1
LAYOUT
  2
AcDbLayout
  3
ObjectDBX Classes
 90
        0
280
     0
281
     0
  0
ENDSEC
  0
SECTION
  2
TABLES
  0
TABLE
  2
VPORT
  5
8
102
{ACAD_XDICTIONARY
360
2EB
102
}
330
0
100
AcDbSymbolTable
 70
     1
  0
VPORT
  5
29
330
8
100
AcDbSymbolTableRecord
100
AcDbViewportTableRecord
  2
*ACTIVE
 70
     0
 10
0.0
 20
0.0
 11
1.0
 21
1.0
 12
157.95
 22
271.5420537008054
 13
0.0
 23
0.0
 14
10.0
 24
10.0
 15
10.0
 25
10.0
 16
0.0
 26
0.0
 36
1.0
 17
0.0
 27
0.0
 37
0.0
 40
294.7800000000001
 41
0.9930795847750861
 42
50.0
 43
0.0
 44
0.0
 50
0.0
 51
0.0
 71
     0
 72
   100
 73
     1
 74
     3
 75
     0
 76
     0
 77
     0
 78
     0
  0
ENDTAB
  0
TABLE
  2
LTYPE
  5
5
330
0
100
AcDbSymbolTable
 70
     1
  0
LTYPE
  5
14
330
5
100
AcDbSymbolTableRecord
100
AcDbLinetypeTableRecord
  2
BYBLOCK
 70
     0
  3

 72
    65
 73
     0
 40
0.0
  0
LTYPE
  5
15
330
5
100
AcDbSymbolTableRecord
100
AcDbLinetypeTableRecord
  2
BYLAYER
 70
     0
  3

 72
    65
 73
     0
 40
0.0
  0
LTYPE
  5
16
330
5
100
AcDbSymbolTableRecord
100
AcDbLinetypeTableRecord
  2
CONTINUOUS
 70
     0
  3
Solid line
 72
    65
 73
     0
 40
0.0
  0
ENDTAB
  0
TABLE
  2
LAYER
  5
2
330
0
100
AcDbSymbolTable
 70
     3
  0
LAYER
  5
10
330
2
100
AcDbSymbolTableRecord
100
AcDbLayerTableRecord
  2
0
 70
     0
 62
     7
  6
CONTINUOUS
  0
LAYER
  5
73
330
2
100
AcDbSymbolTableRecord
100
AcDbLayerTableRecord
  2
VISIBLE
 70
     0
 62
     7
  6
CONTINUOUS
  0
LAYER
  5
268
330
2
100
AcDbSymbolTableRecord
100
AcDbLayerTableRecord
  2
ANNOTATION_TEXT
 70
     0
 62
     7
  6
CONTINUOUS
  0
ENDTAB
  0
TABLE
  2
STYLE
  5
3
330
0
100
AcDbSymbolTable
 70
    33
  0
STYLE
  5
11
330
3
100
AcDbSymbolTableRecord
100
AcDbTextStyleTableRecord
  2
STANDARD
 70
     0
 40
0.0
 41
1.0
 50
0.0
 71
     0
 42
3.5
  3
txt
  4

  0
STYLE
  5
70
330
3
100
AcDbSymbolTableRecord
100
AcDbTextStyleTableRecord
  2
ONSHAPE-STANDARD
 70
     0
 40
0.0
 41
1.0
 50
0.0
 71
     0
 42
3.5
  3
NotoSans-Regular.ttf
  4

1001
ACAD
1000
Noto Sans
1071
        0
  0
STYLE
  5
72
330
3
100
AcDbSymbolTableRecord
100
AcDbTextStyleTableRecord
  2
ONSHAPE-STANDARD-DIMENSION
 70
     0
 40
0.0
 41
1.0
 50
0.0
 71
     0
 42
3.5
  3

  4

1001
ACAD
1000
Noto Sans
1071
        0
  0
STYLE
  5
26B
330
3
100
AcDbSymbolTableRecord
100
AcDbTextStyleTableRecord
  2
ONSHAPE-STANDARD-VIEW-LABE
 70
     0
 40
3.5
 41
1.0
 50
0.0
 71
     0
 42
3.5
  3
NotoSans-Regular.ttf
  4

1001
ACAD
1000
Noto Sans
1071
        0
  0
STYLE
  5
277
330
3
100
AcDbSymbolTableRecord
100
AcDbTextStyleTableRecord
  2
ONSHAPE-STANDARD-BOLD
 70
     0
 40
0.0
 41
1.0
 50
0.0
 71
     0
 42
3.5
  3
NotoSans-Bold.ttf
  4

1001
ACAD
1000
Noto Sans
1071
 33554432
  0
STYLE
  5
278
330
3
100
AcDbSymbolTableRecord
100
AcDbTextStyleTableRecord
  2
ONSHAPE-STANDARD-FIELDS
 70
     0
 40
0.0
 41
1.0
 50
0.0
 71
     0
 42
3.5
  3

  4

1001
ACAD
1000
Noto Sans
1071
        0
  0
STYLE
  5
279
330
3
100
AcDbSymbolTableRecord
100
AcDbTextStyleTableRecord
  2
ONSHAPE-STANDARD-TCFIELDS
 70
     0
 40
0.0
 41
1.0
 50
0.0
 71
     0
 42
3.5
  3
NotoSansTC-Regular.otf
  4

1001
ACAD
1000
Noto Sans TC
1071
        0
  0
STYLE
  5
27A
330
3
100
AcDbSymbolTableRecord
100
AcDbTextStyleTableRecord
  2
ONSHAPE-STANDARD-SCFIELDS
 70
     0
 40
0.0
 41
1.0
 50
0.0
 71
     0
 42
3.5
  3
NotoSansSC-Regular.otf
  4

1001
ACAD
1000
Noto Sans SC
1071
        0
  0
STYLE
  5
27B
330
3
100
AcDbSymbolTableRecord
100
AcDbTextStyleTableRecord
  2
ONSHAPE-STANDARD-KOREANFIE
 70
     0
 40
0.0
 41
1.0
 50
0.0
 71
     0
 42
3.5
  3
NotoSansKR-Regular.otf
  4

1001
ACAD
1000
Noto Sans KR
1071
        0
  0
STYLE
  5
27C
330
3
100
AcDbSymbolTableRecord
100
AcDbTextStyleTableRecord
  2
ONSHAPE-STANDARD-JAPANESEF
 70
     0
 40
0.0
 41
1.0
 50
0.0
 71
     0
 42
3.5
  3
NotoSansJP-Regular.otf
  4

1001
ACAD
1000
Noto Sans JP
1071
        0
  0
STYLE
  5
27E
330
3
100
AcDbSymbolTableRecord
100
AcDbTextStyleTableRecord
  2
TTFSTYLE
 70
     0
 40
0.0
 41
1.0
 50
0.0
 71
     0
 42
3.5
  3
Verdana.ttf
  4

1001
ACAD
1000
Verdana
1071
       34
  0
STYLE
  5
27F
330
3
100
AcDbSymbolTableRecord
100
AcDbTextStyleTableRecord
  2
ONSHAPE-STANDARD-GTOLERANC
 70
     0
 40
0.0
 41
1.0
 50
0.0
 71
     0
 42
3.5
  3

  4

1001
ACAD
1000
Noto Sans
1071
        0
  0
STYLE
  5
280
330
3
100
AcDbSymbolTableRecord
100
AcDbTextStyleTableRecord
  2
ONSHAPE-STANDARD-TABLE-DAT
 70
     0
 40
0.0
 41
1.0
 50
0.0
 71
     0
 42
3.5
  3
NotoSans-Regular.ttf
  4

1001
ACAD
1000
Noto Sans
1071
        0
  0
STYLE
  5
281
330
3
100
AcDbSymbolTableRecord
100
AcDbTextStyleTableRecord
  2
ONSHAPE-STANDARD-TABLE-TIT
 70
     0
 40
0.0
 41
1.0
 50
0.0
 71
     0
 42
3.5
  3
NotoSans-Bold.ttf
  4

1001
ACAD
1000
Noto Sans
1071
 33554432
  0
STYLE
  5
282
330
3
100
AcDbSymbolTableRecord
100
AcDbTextStyleTableRecord
  2
ONSHAPE-STANDARD-TABLE-HEA
 70
     0
 40
0.0
 41
1.0
 50
0.0
 71
     0
 42
3.5
  3
NotoSans-Bold.ttf
  4

1001
ACAD
1000
Noto Sans
1071
 33554432
  0
STYLE
  5
283
330
3
100
AcDbSymbolTableRecord
100
AcDbTextStyleTableRecord
  2
ONSHAPE-STANDARD-BOMTABLE-
 70
     0
 40
0.0
 41
1.0
 50
0.0
 71
     0
 42
3.5
  3
NotoSans-Regular.ttf
  4

1001
ACAD
1000
Noto Sans
1071
        0
  0
STYLE
  5
284
330
3
100
AcDbSymbolTableRecord
100
AcDbTextStyleTableRecord
  2
ONSHAPE-STANDARD-BOMTABLE0
 70
     0
 40
0.0
 41
1.0
 50
0.0
 71
     0
 42
3.5
  3
NotoSans-Bold.ttf
  4

1001
ACAD
1000
Noto Sans
1071
 33554432
  0
STYLE
  5
285
330
3
100
AcDbSymbolTableRecord
100
AcDbTextStyleTableRecord
  2
ONSHAPE-STANDARD-BOMTABLE1
 70
     0
 40
0.0
 41
1.0
 50
0.0
 71
     0
 42
3.5
  3
NotoSans-Bold.ttf
  4

1001
ACAD
1000
Noto Sans
1071
 33554432
  0
STYLE
  5
286
330
3
100
AcDbSymbolTableRecord
100
AcDbTextStyleTableRecord
  2
ONSHAPE-STANDARD-NOTESTYLE
 70
     0
 40
3.5
 41
1.0
 50
0.0
 71
     0
 42
3.5
  3
Noto Sans
  4

1001
ACAD
1000
Noto Sans
1071
        0
  0
STYLE
  5
287
330
3
100
AcDbSymbolTableRecord
100
AcDbTextStyleTableRecord
  2
ONSHAPE-DETAIL-VIEW-LEADER
 70
     0
 40
3.5
 41
1.0
 50
0.0
 71
     0
 42
3.5
  3
Noto Sans
  4

1001
ACAD
1000
Noto Sans
1071
        0
  0
STYLE
  5
288
330
3
100
AcDbSymbolTableRecord
100
AcDbTextStyleTableRecord
  2
ONSHAPE-STANDARD-HOLE-CALL
 70
     0
 40
3.5
 41
1.0
 50
0.0
 71
     0
 42
3.5
  3
Noto Sans
  4

1001
ACAD
1000
Noto Sans
1071
        0
  0
STYLE
  5
289
330
3
100
AcDbSymbolTableRecord
100
AcDbTextStyleTableRecord
  2
ONSHAPE-STANDARD-HOLETABLE
 70
     0
 40
0.0
 41
1.0
 50
0.0
 71
     0
 42
3.5
  3
NotoSans-Regular.ttf
  4

1001
ACAD
1000
Noto Sans
1071
        0
  0
STYLE
  5
28A
330
3
100
AcDbSymbolTableRecord
100
AcDbTextStyleTableRecord
  2
ONSHAPE-STANDARD-HOLETABL0
 70
     0
 40
0.0
 41
1.0
 50
0.0
 71
     0
 42
3.5
  3
NotoSans-Bold.ttf
  4

1001
ACAD
1000
Noto Sans
1071
 33554432
  0
STYLE
  5
28B
330
3
100
AcDbSymbolTableRecord
100
AcDbTextStyleTableRecord
  2
ONSHAPE-STANDARD-HOLETABL1
 70
     0
 40
0.0
 41
1.0
 50
0.0
 71
     0
 42
3.5
  3
NotoSans-Bold.ttf
  4

1001
ACAD
1000
Noto Sans
1071
 33554432
  0
STYLE
  5
28C
330
3
100
AcDbSymbolTableRecord
100
AcDbTextStyleTableRecord
  2
ONSHAPE-STANDARD-HOLE-TAG
 70
     0
 40
3.5
 41
1.0
 50
0.0
 71
     0
 42
3.5
  3
Noto Sans
  4

1001
ACAD
1000
Noto Sans
1071
        0
  0
STYLE
  5
28D
330
3
100
AcDbSymbolTableRecord
100
AcDbTextStyleTableRecord
  2
ONSHAPE-STANDARD-REVISIONT
 70
     0
 40
0.0
 41
1.0
 50
0.0
 71
     0
 42
3.5
  3
NotoSans-Regular.ttf
  4

1001
ACAD
1000
Noto Sans
1071
        0
  0
STYLE
  5
28E
330
3
100
AcDbSymbolTableRecord
100
AcDbTextStyleTableRecord
  2
ONSHAPE-STANDARD-REVISION0
 70
     0
 40
0.0
 41
1.0
 50
0.0
 71
     0
 42
3.5
  3
NotoSans-Bold.ttf
  4

1001
ACAD
1000
Noto Sans
1071
 33554432
  0
STYLE
  5
28F
330
3
100
AcDbSymbolTableRecord
100
AcDbTextStyleTableRecord
  2
ONSHAPE-STANDARD-REVISION1
 70
     0
 40
0.0
 41
1.0
 50
0.0
 71
     0
 42
3.5
  3
NotoSans-Bold.ttf
  4

1001
ACAD
1000
Noto Sans
1071
 33554432
  0
STYLE
  5
290
330
3
100
AcDbSymbolTableRecord
100
AcDbTextStyleTableRecord
  2
ONSHAPE-STANDARD-REVISION-
 70
     0
 40
3.5
 41
1.0
 50
0.0
 71
     0
 42
3.5
  3
Noto Sans
  4

1001
ACAD
1000
Noto Sans
1071
        0
  0
STYLE
  5
291
330
3
100
AcDbSymbolTableRecord
100
AcDbTextStyleTableRecord
  2
ONSHAPE-STANDARD-CUTLISTTA
 70
     0
 40
0.0
 41
1.0
 50
0.0
 71
     0
 42
3.5
  3
NotoSans-Regular.ttf
  4

1001
ACAD
1000
Noto Sans
1071
        0
  0
STYLE
  5
292
330
3
100
AcDbSymbolTableRecord
100
AcDbTextStyleTableRecord
  2
ONSHAPE-STANDARD-CUTLISTT0
 70
     0
 40
0.0
 41
1.0
 50
0.0
 71
     0
 42
3.5
  3
NotoSans-Bold.ttf
  4

1001
ACAD
1000
Noto Sans
1071
 33554432
  0
STYLE
  5
293
330
3
100
AcDbSymbolTableRecord
100
AcDbTextStyleTableRecord
  2
ONSHAPE-STANDARD-CUTLISTT1
 70
     0
 40
0.0
 41
1.0
 50
0.0
 71
     0
 42
3.5
  3
NotoSans-Bold.ttf
  4

1001
ACAD
1000
Noto Sans
1071
 33554432
  0
STYLE
  5
294
330
3
100
AcDbSymbolTableRecord
100
AcDbTextStyleTableRecord
  2
ONSHAPE-STANDARD-DATUM-DIM
 70
     0
 40
3.5
 41
1.0
 50
0.0
 71
     0
 42
3.5
  3
Noto Sans
  4

1001
ACAD
1000
Noto Sans
1071
        0
  0
ENDTAB
  0
TABLE
  2
VIEW
  5
6
330
0
100
AcDbSymbolTable
 70
     0
  0
ENDTAB
  0
TABLE
  2
UCS
  5
7
330
0
100
AcDbSymbolTable
 70
     0
  0
ENDTAB
  0
TABLE
  2
APPID
  5
9
330
0
100
AcDbSymbolTable
 70
     3
  0
APPID
  5
12
330
9
100
AcDbSymbolTableRecord
100
AcDbRegAppTableRecord
  2
ACAD
 70
     0
  0
APPID
  5
26C
330
9
100
AcDbSymbolTableRecord
100
AcDbRegAppTableRecord
  2
ONSHAPE_NOTES_ANNOTATION_D
 70
     0
  0
APPID
  5
2F5
330
9
100
AcDbSymbolTableRecord
100
AcDbRegAppTableRecord
  2
ACAD_MLEADERVER
 70
     0
  0
ENDTAB
  0
TABLE
  2
DIMSTYLE
  5
A
330
0
100
AcDbSymbolTable
 70
    18
  0
DIMSTYLE
105
27
330
A
100
AcDbSymbolTableRecord
100
AcDbDimStyleTableRecord
  2
ISO-25
 70
     0
  3

  4

  5

  6

  7

 40
1.0
 41
2.5
 42
0.625
 43
3.75
 44
1.25
 45
0.0
 46
0.0
 47
0.0
 48
0.0
140
2.5
141
2.5
142
0.0
143
0.03937007874016
144
1.0
145
0.0
146
1.0
147
0.625
 71
     0
 72
     0
 73
     0
 74
     0
 75
     0
 76
     0
 77
     1
 78
     8
170
     0
171
     3
172
     1
173
     0
174
     0
175
     0
176
     0
177
     0
178
     0
270
     2
271
     2
272
     2
273
     2
274
     3
340
11
275
     0
280
     0
281
     0
282
     0
283
     0
284
     8
285
     0
286
     0
287
     3
288
     0
  0
DIMSTYLE
105
71
330
A
100
AcDbSymbolTableRecord
100
AcDbDimStyleTableRecord
  2
ONSHAPE-ISO-25
 70
     0
  3

  4

  5

  6

  7

 40
1.0
 41
2.5
 42
0.625
 43
3.75
 44
1.25
 45
0.0
 46
0.0
 47
0.0
 48
0.0
140
3.5
141
2.5
142
0.0
143
0.03937
144
1.0
145
0.0
146
1.0
147
0.625
 71
     0
 72
     0
 73
     0
 74
     0
 75
     0
 76
     0
 77
     1
 78
     8
170
     0
171
     3
172
     1
173
     0
174
     0
175
     0
176
     7
177
     7
178
     7
179
     1
270
     2
271
     2
272
     2
273
     2
274
     3
340
72
275
     0
280
     0
281
     0
282
     0
283
     0
284
     8
285
     8
286
     0
287
     3
288
     1
  0
DIMSTYLE
105
297
330
A
100
AcDbSymbolTableRecord
100
AcDbDimStyleTableRecord
  2
ISO
 70
     0
  3

  4
"
  5

  6

  7

 40
1.0
 41
3.5
 42
1.0
 43
10.0
 44
1.0
 45
0.0
 46
0.0
 47
0.1
 48
0.1
140
3.5
141
0.0
142
0.0
143
0.03937
144
1.0
145
0.0
146
0.71
147
1.5
 71
     0
 72
     0
 73
     0
 74
     0
 75
     0
 76
     0
 77
     1
 78
     8
170
     0
171
     3
172
     1
173
     0
174
     0
175
     0
176
     7
177
     7
178
     7
270
     2
271
     2
272
     3
273
     2
274
     3
340
11
275
     0
280
     0
281
     0
282
     0
283
     0
284
     8
285
     8
286
     0
287
     3
288
     1
  0
DIMSTYLE
105
298
330
A
100
AcDbSymbolTableRecord
100
AcDbDimStyleTableRecord
  2
ISO$3
 70
     0
  3

  4
"
  5

  6

  7

 40
1.0
 41
3.5
 42
1.0
 43
10.0
 44
1.0
 45
0.0
 46
0.0
 47
0.1
 48
0.1
140
3.5
141
0.0
142
0.0
143
0.03937
144
1.0
145
0.0
146
0.71
147
1.5
 71
     0
 72
     0
 73
     0
 74
     1
 75
     0
 76
     0
 77
     1
 78
     8
170
     0
171
     3
172
     0
173
     0
174
     0
175
     0
176
     7
177
     7
178
     7
270
     2
271
     2
272
     3
273
     2
274
     3
340
11
275
     0
280
     0
281
     0
282
     0
283
     0
284
     8
285
     8
286
     0
288
     1
  0
DIMSTYLE
105
299
330
A
100
AcDbSymbolTableRecord
100
AcDbDimStyleTableRecord
  2
ISO$4
 70
     0
  3

  4
"
  5

  6

  7

 40
1.0
 41
3.5
 42
1.0
 43
10.0
 44
1.0
 45
0.0
 46
0.0
 47
0.1
 48
0.1
140
3.5
141
0.0
142
0.0
143
0.03937
144
1.0
145
0.0
146
0.71
147
1.5
 71
     0
 72
     0
 73
     0
 74
     0
 75
     0
 76
     0
 77
     1
 78
     8
170
     0
171
     3
172
     1
173
     0
174
     0
175
     0
176
     7
177
     7
178
     7
270
     2
271
     2
272
     3
273
     2
274
     3
340
11
275
     0
280
     0
281
     0
282
     0
283
     0
284
     8
285
     8
286
     0
287
     3
288
     1
  0
DIMSTYLE
105
29A
330
A
100
AcDbSymbolTableRecord
100
AcDbDimStyleTableRecord
  2
ISO$6
 70
     0
  3

  4
"
  5

  6

  7

 40
1.0
 41
0.5
 42
1.0
 43
10.0
 44
1.0
 45
0.0
 46
0.0
 47
0.1
 48
0.1
140
3.5
141
0.0
142
0.0
143
0.03937
144
1.0
145
0.0
146
0.71
147
1.5
 71
     0
 72
     0
 73
     0
 74
     0
 75
     0
 76
     0
 77
     0
 78
     8
170
     0
171
     3
172
     1
173
     0
174
     0
175
     0
176
     7
177
     7
178
     7
270
     2
271
     2
272
     3
273
     2
274
     3
340
11
275
     0
280
     0
281
     0
282
     0
283
     0
284
     8
285
     8
286
     0
287
     3
288
     1
  0
DIMSTYLE
105
29B
330
A
100
AcDbSymbolTableRecord
100
AcDbDimStyleTableRecord
  2
ISO$7
 70
     0
  3

  4
"
  5

  6

  7

 40
1.0
 41
3.5
 42
1.0
 43
10.0
 44
1.0
 45
0.0
 46
0.0
 47
0.1
 48
0.1
140
3.5
141
0.0
142
0.0
143
0.03937
144
1.0
145
0.0
146
0.71
147
1.5
 71
     0
 72
     0
 73
     0
 74
     0
 75
     0
 76
     0
 77
     1
 78
     8
170
     0
171
     3
172
     1
173
     0
174
     0
175
     0
176
     7
177
     7
178
     7
270
     2
271
     2
272
     3
273
     2
274
     3
340
11
275
     0
280
     0
281
     0
282
     0
283
     0
284
     8
285
     8
286
     0
287
     3
288
     1
  0
DIMSTYLE
105
29C
330
A
100
AcDbSymbolTableRecord
100
AcDbDimStyleTableRecord
  2
ISO$SF
 70
     0
  3

  4
"
  5

  6

  7

 40
1.0
 41
3.5
 42
1.0
 43
10.0
 44
1.0
 45
0.0
 46
0.0
 47
0.1
 48
0.1
140
3.5
141
0.0
142
0.0
143
0.03937
144
1.0
145
0.0
146
0.71
147
1.5
 71
     0
 72
     0
 73
     0
 74
     0
 75
     1
 76
     1
 77
     1
 78
     8
170
     0
171
     3
172
     1
173
     0
174
     0
175
     0
176
     7
177
     7
178
     7
270
     2
271
     2
272
     3
273
     2
274
     3
340
11
275
     0
280
     0
281
     0
282
     0
283
     0
284
     8
285
     8
286
     0
287
     3
288
     1
  0
DIMSTYLE
105
29D
330
A
100
AcDbSymbolTableRecord
100
AcDbDimStyleTableRecord
  2
ISO$SH
 70
     0
  3

  4
"
  5

  6

  7

 40
1.0
 41
3.5
 42
1.0
 43
10.0
 44
1.0
 45
0.0
 46
0.0
 47
0.1
 48
0.1
140
3.5
141
0.0
142
0.0
143
0.03937
144
2.0
145
0.0
146
0.71
147
1.5
 71
     0
 72
     0
 73
     0
 74
     0
 75
     1
 76
     1
 77
     1
 78
     8
170
     0
171
     3
172
     1
173
     1
174
     0
175
     0
176
     7
177
     7
178
     7
270
     2
271
     2
272
     3
273
     2
274
     3
340
11
275
     0
280
     0
281
     0
282
     0
283
     0
284
     8
285
     8
286
     0
287
     3
288
     1
  0
DIMSTYLE
105
2A0
330
A
100
AcDbSymbolTableRecord
100
AcDbDimStyleTableRecord
  2
ONSHAPE-ISO-25$0
 70
     0
  3

  4

  5

  6

  7

 40
1.0
 41
2.5
 42
0.625
 43
3.75
 44
1.25
 45
0.0
 46
0.0
 47
0.0
 48
0.0
140
3.5
141
2.5
142
0.0
143
0.03937
144
1.0
145
0.0
146
1.0
147
0.625
 71
     0
 72
     0
 73
     0
 74
     0
 75
     0
 76
     0
 77
     1
 78
     8
170
     0
171
     3
172
     1
173
     0
174
     0
175
     0
176
     7
177
     7
178
     7
179
     1
270
     2
271
     2
272
     2
273
     2
274
     3
340
72
275
     0
280
     0
281
     0
282
     0
283
     0
284
     8
285
     8
286
     0
287
     3
288
     1
  0
DIMSTYLE
105
2A1
330
A
100
AcDbSymbolTableRecord
100
AcDbDimStyleTableRecord
  2
ONSHAPE-ISO-25$2
 70
     0
  3

  4

  5

  6

  7

 40
1.0
 41
2.5
 42
0.625
 43
3.75
 44
1.25
 45
0.0
 46
0.0
 47
0.0
 48
0.0
140
3.5
141
2.5
142
0.0
143
0.03937
144
1.0
145
0.0
146
1.0
147
0.625
 71
     0
 72
     0
 73
     0
 74
     0
 75
     0
 76
     0
 77
     1
 78
     8
170
     0
171
     3
172
     1
173
     0
174
     0
175
     0
176
     7
177
     7
178
     7
179
     1
270
     2
271
     2
272
     2
273
     2
274
     3
340
72
275
     0
280
     0
281
     0
282
     0
283
     0
284
     8
285
     8
286
     0
287
     3
288
     1
  0
DIMSTYLE
105
2A2
330
A
100
AcDbSymbolTableRecord
100
AcDbDimStyleTableRecord
  2
ONSHAPE-ISO-25$3
 70
     0
  3

  4

  5

  6

  7

 40
1.0
 41
2.5
 42
0.625
 43
3.75
 44
1.25
 45
0.0
 46
0.0
 47
0.0
 48
0.0
140
3.5
141
0.0
142
0.0
143
0.03937
144
1.0
145
0.0
146
1.0
147
0.625
 71
     0
 72
     0
 73
     0
 74
     0
 75
     0
 76
     0
 77
     1
 78
     8
170
     0
171
     3
172
     1
173
     0
174
     0
175
     0
176
     7
177
     7
178
     7
179
     1
270
     2
271
     2
272
     2
273
     2
274
     3
340
72
275
     0
280
     0
281
     0
282
     0
283
     0
284
     8
285
     8
286
     0
287
     3
288
     1
  0
DIMSTYLE
105
2A3
330
A
100
AcDbSymbolTableRecord
100
AcDbDimStyleTableRecord
  2
ONSHAPE-ISO-25$4
 70
     0
  3

  4

  5

  6

  7

 40
1.0
 41
2.5
 42
0.625
 43
3.75
 44
1.25
 45
0.0
 46
0.0
 47
0.0
 48
0.0
140
3.5
141
0.0
142
0.0
143
0.03937
144
1.0
145
0.0
146
1.0
147
0.625
 71
     0
 72
     0
 73
     0
 74
     0
 75
     0
 76
     0
 77
     1
 78
     8
170
     0
171
     3
172
     1
173
     0
174
     0
175
     0
176
     7
177
     7
178
     7
179
     1
270
     2
271
     2
272
     2
273
     2
274
     3
340
72
275
     0
280
     0
281
     0
282
     0
283
     0
284
     8
285
     8
286
     0
287
     3
288
     1
  0
DIMSTYLE
105
2A4
330
A
100
AcDbSymbolTableRecord
100
AcDbDimStyleTableRecord
  2
ONSHAPE-ISO-25$6
 70
     0
  3

  4

  5

  6

  7

 40
1.0
 41
0.5
 42
0.625
 43
3.75
 44
1.25
 45
0.0
 46
0.0
 47
0.0
 48
0.0
140
3.5
141
2.5
142
0.0
143
0.03937
144
1.0
145
0.0
146
1.0
147
0.625
 71
     0
 72
     0
 73
     0
 74
     0
 75
     0
 76
     0
 77
     1
 78
     8
170
     0
171
     3
172
     1
173
     0
174
     0
175
     0
176
     7
177
     7
178
     7
179
     1
270
     2
271
     2
272
     2
273
     2
274
     3
340
72
275
     0
280
     0
281
     0
282
     0
283
     0
284
     8
285
     8
286
     0
287
     3
288
     1
  0
DIMSTYLE
105
2A5
330
A
100
AcDbSymbolTableRecord
100
AcDbDimStyleTableRecord
  2
ONSHAPE-ISO-25$7
 70
     0
  3

  4

  5

  6

  7

 40
1.0
 41
2.5
 42
0.625
 43
3.75
 44
1.25
 45
0.0
 46
0.0
 47
0.0
 48
0.0
140
3.5
141
2.5
142
0.0
143
0.03937
144
1.0
145
0.0
146
1.0
147
0.625
 71
     0
 72
     0
 73
     0
 74
     0
 75
     0
 76
     0
 77
     1
 78
     8
170
     0
171
     3
172
     1
173
     0
174
     0
175
     0
176
     7
177
     7
178
     7
179
     1
270
     2
271
     2
272
     2
273
     2
274
     3
340
72
275
     0
280
     0
281
     0
282
     0
283
     0
284
     8
285
     8
286
     0
287
     3
288
     1
  0
DIMSTYLE
105
2A6
330
A
100
AcDbSymbolTableRecord
100
AcDbDimStyleTableRecord
  2
ONSHAPE-STANDARD-GTOLERANC
 70
     0
  3

  4

  5

  6

  7

 40
1.0
 41
2.5
 42
0.625
 43
3.75
 44
1.25
 45
0.0
 46
0.0
 47
0.0
 48
0.0
140
3.5
141
2.5
142
0.0
143
0.03937
144
1.0
145
0.0
146
1.0
147
0.625
 71
     0
 72
     0
 73
     0
 74
     0
 75
     0
 76
     0
 77
     1
 78
     8
170
     0
171
     3
172
     1
173
     0
174
     0
175
     0
176
     7
177
     7
178
     7
179
     1
270
     2
271
     2
272
     2
273
     2
274
     3
340
27F
275
     0
280
     0
281
     0
282
     0
283
     0
284
     8
285
     8
286
     0
287
     3
288
     1
  0
DIMSTYLE
105
2A8
330
A
100
AcDbSymbolTableRecord
100
AcDbDimStyleTableRecord
  2
ONSHAPE-ORDINATESTYLE
 70
     0
  3

  4

  5

  6

  7

 40
1.0
 41
2.5
 42
0.625
 43
3.75
 44
1.25
 45
0.0
 46
0.0
 47
0.0
 48
0.0
140
3.5
141
2.5
142
0.0
143
0.03937
144
1.0
145
0.0
146
1.0
147
0.625
 71
     0
 72
     0
 73
     0
 74
     0
 75
     0
 76
     0
 77
     1
 78
     8
170
     0
171
     3
172
     1
173
     0
174
     0
175
     0
176
     7
177
     7
178
     7
179
     1
270
     2
271
     2
272
     2
273
     2
274
     3
340
72
275
     0
280
     0
281
     0
282
     0
283
     0
284
     8
285
     8
286
     0
287
     3
288
     1
  0
DIMSTYLE
105
2A9
330
A
100
AcDbSymbolTableRecord
100
AcDbDimStyleTableRecord
  2
ONSHAPE-CHAMFERDIMSTYLE
 70
     0
  3

  4

  5

  6

  7

 40
1.0
 41
2.5
 42
0.625
 43
3.75
 44
1.25
 45
0.0
 46
0.0
 47
0.0
 48
0.0
140
3.5
141
2.5
142
0.0
143
0.03937
144
1.0
145
0.0
146
1.0
147
0.625
 71
     0
 72
     0
 73
     0
 74
     0
 75
     0
 76
     0
 77
     1
 78
     8
170
     0
171
     3
172
     1
173
     0
174
     0
175
     0
176
     7
177
     7
178
     7
179
     1
270
     2
271
     2
272
     2
273
     2
274
     3
340
72
275
     0
280
     0
281
     0
282
     0
283
     0
284
     8
285
     8
286
     0
287
     3
288
     1
  0
ENDTAB
  0
TABLE
  2
BLOCK_RECORD
  5
1
330
0
100
AcDbSymbolTable
 70
     0
  0
BLOCK_RECORD
  5
1F
330
1
100
AcDbSymbolTableRecord
100
AcDbBlockTableRecord
  2
*MODEL_SPACE
  0
BLOCK_RECORD
  5
1B
330
1
100
AcDbSymbolTableRecord
100
AcDbBlockTableRecord
  2
*PAPER_SPACE
  0
ENDTAB
  0
ENDSEC
  0
SECTION
  2
BLOCKS
  0
BLOCK
  5
20
330
1F
100
AcDbEntity
  8
0
100
AcDbBlockBegin
  2
*MODEL_SPACE
 70
     0
 10
0.0
 20
0.0
 30
0.0
  3
*MODEL_SPACE
  1

  0
ENDBLK
  5
21
330
1F
100
AcDbEntity
  8
0
100
AcDbBlockEnd
  0
BLOCK
  5
1C
330
1B
100
AcDbEntity
 67
     1
  8
0
100
AcDbBlockBegin
  2
*PAPER_SPACE
 70
     0
 10
0.0
 20
0.0
 30
0.0
  3
*PAPER_SPACE
  1

  0
ENDBLK
  5
1D
330
1B
100
AcDbEntity
 67
     1
  8
0
100
AcDbBlockEnd
  0
ENDSEC
  0
SECTION
  2
ENTITIES
  0
LINE
  5
75
330
1F
100
AcDbEntity
  8
VISIBLE
100
AcDbLine
 10
182.95
 20
243.0420537008053
 30
0.0
 11
207.95
 21
243.0420537008053
 31
0.0
  0
LINE
  5
76
330
1F
100
AcDbEntity
  8
VISIBLE
100
AcDbLine
 10
182.95
 20
238.0420537008053
 30
0.0
 11
182.95
 21
243.0420537008053
 31
0.0
  0
LINE
  5
77
330
1F
100
AcDbEntity
  8
VISIBLE
100
AcDbLine
 10
182.95
 20
238.0420537008053
 30
0.0
 11
207.95
 21
238.0420537008053
 31
0.0
  0
LINE
  5
78
330
1F
100
AcDbEntity
  8
VISIBLE
100
AcDbLine
 10
207.95
 20
238.0420537008053
 30
0.0
 11
207.95
 21
243.0420537008053
 31
0.0
  0
LINE
  5
79
330
1F
100
AcDbEntity
  8
VISIBLE
100
AcDbLine
 10
182.95
 20
213.0420537008053
 30
0.0
 11
207.95
 21
213.0420537008053
 31
0.0
  0
LINE
  5
7A
330
1F
100
AcDbEntity
  8
VISIBLE
100
AcDbLine
 10
182.95
 20
208.0420537008053
 30
0.0
 11
182.95
 21
213.0420537008053
 31
0.0
  0
LINE
  5
7B
330
1F
100
AcDbEntity
  8
VISIBLE
100
AcDbLine
 10
182.95
 20
208.0420537008053
 30
0.0
 11
207.95
 21
208.0420537008053
 31
0.0
  0
LINE
  5
7C
330
1F
100
AcDbEntity
  8
VISIBLE
100
AcDbLine
 10
207.95
 20
208.0420537008053
 30
0.0
 11
207.95
 21
213.0420537008053
 31
0.0
  0
LINE
  5
7D
330
1F
100
AcDbEntity
  8
VISIBLE
100
AcDbLine
 10
182.95
 20
153.0420537008053
 30
0.0
 11
207.95
 21
153.0420537008053
 31
0.0
  0
LINE
  5
7E
330
1F
100
AcDbEntity
  8
VISIBLE
100
AcDbLine
 10
182.95
 20
148.0420537008053
 30
0.0
 11
182.95
 21
153.0420537008053
 31
0.0
  0
LINE
  5
7F
330
1F
100
AcDbEntity
  8
VISIBLE
100
AcDbLine
 10
182.95
 20
148.0420537008053
 30
0.0
 11
207.95
 21
148.0420537008053
 31
0.0
  0
LINE
  5
80
330
1F
100
AcDbEntity
  8
VISIBLE
100
AcDbLine
 10
207.95
 20
148.0420537008053
 30
0.0
 11
207.95
 21
153.0420537008053
 31
0.0
  0
LINE
  5
81
330
1F
100
AcDbEntity
  8
VISIBLE
100
AcDbLine
 10
182.95
 20
168.0420537008053
 30
0.0
 11
207.95
 21
168.0420537008053
 31
0.0
  0
LINE
  5
82
330
1F
100
AcDbEntity
  8
VISIBLE
100
AcDbLine
 10
182.95
 20
163.0420537008053
 30
0.0
 11
182.95
 21
168.0420537008053
 31
0.0
  0
LINE
  5
83
330
1F
100
AcDbEntity
  8
VISIBLE
100
AcDbLine
 10
182.95
 20
163.0420537008053
 30
0.0
 11
207.95
 21
163.0420537008053
 31
0.0
  0
LINE
  5
84
330
1F
100
AcDbEntity
  8
VISIBLE
100
AcDbLine
 10
207.95
 20
163.0420537008053
 30
0.0
 11
207.95
 21
168.0420537008053
 31
0.0
  0
LINE
  5
85
330
1F
100
AcDbEntity
  8
VISIBLE
100
AcDbLine
 10
182.95
 20
258.0420537008052
 30
0.0
 11
207.95
 21
258.0420537008052
 31
0.0
  0
LINE
  5
86
330
1F
100
AcDbEntity
  8
VISIBLE
100
AcDbLine
 10
182.95
 20
253.0420537008053
 30
0.0
 11
182.95
 21
258.0420537008052
 31
0.0
  0
LINE
  5
87
330
1F
100
AcDbEntity
  8
VISIBLE
100
AcDbLine
 10
182.95
 20
253.0420537008053
 30
0.0
 11
207.95
 21
253.0420537008053
 31
0.0
  0
LINE
  5
88
330
1F
100
AcDbEntity
  8
VISIBLE
100
AcDbLine
 10
207.95
 20
253.0420537008053
 30
0.0
 11
207.95
 21
258.0420537008052
 31
0.0
  0
LINE
  5
89
330
1F
100
AcDbEntity
  8
VISIBLE
100
AcDbLine
 10
201.1166666666667
 20
127.0420537008053
 30
0.0
 11
201.1166666666667
 21
130.0420537008053
 31
0.0
  0
LINE
  5
8A
330
1F
100
AcDbEntity
  8
VISIBLE
100
AcDbLine
 10
201.1166666666667
 20
130.0420537008053
 30
0.0
 11
189.7833333333334
 21
130.0420537008053
 31
0.0
  0
LINE
  5
8B
330
1F
100
AcDbEntity
  8
VISIBLE
100
AcDbLine
 10
189.7833333333334
 20
127.0420537008053
 30
0.0
 11
189.7833333333334
 21
130.0420537008053
 31
0.0
  0
LINE
  5
8C
330
1F
100
AcDbEntity
  8
VISIBLE
100
AcDbLine
 10
189.7833333333334
 20
127.0420537008053
 30
0.0
 11
178.45
 21
127.0420537008053
 31
0.0
  0
LINE
  5
8D
330
1F
100
AcDbEntity
  8
VISIBLE
100
AcDbLine
 10
178.45
 20
127.0420537008053
 30
0.0
 11
178.45
 21
153.0920537008053
 31
0.0
  0
LINE
  5
8E
330
1F
100
AcDbEntity
  8
VISIBLE
100
AcDbLine
 10
175.45
 20
153.0920537008053
 30
0.0
 11
178.45
 21
153.0920537008053
 31
0.0
  0
LINE
  5
8F
330
1F
100
AcDbEntity
  8
VISIBLE
100
AcDbLine
 10
175.45
 20
175.9920537008053
 30
0.0
 11
175.45
 21
153.0920537008053
 31
0.0
  0
LINE
  5
90
330
1F
100
AcDbEntity
  8
VISIBLE
100
AcDbLine
 10
175.45
 20
175.9920537008053
 30
0.0
 11
178.45
 21
175.9920537008053
 31
0.0
  0
LINE
  5
91
330
1F
100
AcDbEntity
  8
VISIBLE
100
AcDbLine
 10
178.45
 20
175.9920537008053
 30
0.0
 11
178.45
 21
199.0920537008053
 31
0.0
  0
LINE
  5
92
330
1F
100
AcDbEntity
  8
VISIBLE
100
AcDbLine
 10
175.45
 20
199.0920537008053
 30
0.0
 11
178.45
 21
199.0920537008053
 31
0.0
  0
LINE
  5
93
330
1F
100
AcDbEntity
  8
VISIBLE
100
AcDbLine
 10
175.45
 20
221.9920537008053
 30
0.0
 11
175.45
 21
199.0920537008053
 31
0.0
  0
LINE
  5
94
330
1F
100
AcDbEntity
  8
VISIBLE
100
AcDbLine
 10
175.45
 20
221.9920537008053
 30
0.0
 11
178.45
 21
221.9920537008053
 31
0.0
  0
LINE
  5
95
330
1F
100
AcDbEntity
  8
VISIBLE
100
AcDbLine
 10
178.45
 20
221.9920537008053
 30
0.0
 11
178.45
 21
245.0920537008053
 31
0.0
  0
LINE
  5
96
330
1F
100
AcDbEntity
  8
VISIBLE
100
AcDbLine
 10
175.45
 20
245.0920537008053
 30
0.0
 11
178.45
 21
245.0920537008053
 31
0.0
  0
LINE
  5
97
330
1F
100
AcDbEntity
  8
VISIBLE
100
AcDbLine
 10
175.45
 20
267.9920537008053
 30
0.0
 11
175.45
 21
245.0920537008053
 31
0.0
  0
LINE
  5
98
330
1F
100
AcDbEntity
  8
VISIBLE
100
AcDbLine
 10
175.45
 20
267.9920537008053
 30
0.0
 11
178.45
 21
267.9920537008053
 31
0.0
  0
LINE
  5
99
330
1F
100
AcDbEntity
  8
VISIBLE
100
AcDbLine
 10
178.45
 20
267.9920537008053
 30
0.0
 11
178.45
 21
294.0420537008053
 31
0.0
  0
LINE
  5
9A
330
1F
100
AcDbEntity
  8
VISIBLE
100
AcDbLine
 10
189.7833333333334
 20
294.0420537008053
 30
0.0
 11
178.45
 21
294.0420537008053
 31
0.0
  0
LINE
  5
9B
330
1F
100
AcDbEntity
  8
VISIBLE
100
AcDbLine
 10
189.7833333333334
 20
294.0420537008053
 30
0.0
 11
189.7833333333334
 21
291.0420537008053
 31
0.0
  0
LINE
  5
9C
330
1F
100
AcDbEntity
  8
VISIBLE
100
AcDbLine
 10
189.7833333333334
 20
291.0420537008053
 30
0.0
 11
201.1166666666667
 21
291.0420537008053
 31
0.0
  0
LINE
  5
9D
330
1F
100
AcDbEntity
  8
VISIBLE
100
AcDbLine
 10
201.1166666666667
 20
294.0420537008053
 30
0.0
 11
201.1166666666667
 21
291.0420537008053
 31
0.0
  0
LINE
  5
9E
330
1F
100
AcDbEntity
  8
VISIBLE
100
AcDbLine
 10
212.45
 20
294.0420537008053
 30
0.0
 11
201.1166666666667
 21
294.0420537008053
 31
0.0
  0
LINE
  5
9F
330
1F
100
AcDbEntity
  8
VISIBLE
100
AcDbLine
 10
212.45
 20
294.0420537008053
 30
0.0
 11
212.45
 21
127.0420537008053
 31
0.0
  0
LINE
  5
A0
330
1F
100
AcDbEntity
  8
VISIBLE
100
AcDbLine
 10
212.45
 20
127.0420537008053
 30
0.0
 11
201.1166666666667
 21
127.0420537008053
 31
0.0
  0
LINE
  5
A1
330
1F
100
AcDbEntity
  8
VISIBLE
100
AcDbLine
 10
182.95
 20
183.0420537008053
 30
0.0
 11
207.95
 21
183.0420537008053
 31
0.0
  0
LINE
  5
A2
330
1F
100
AcDbEntity
  8
VISIBLE
100
AcDbLine
 10
182.95
 20
178.0420537008053
 30
0.0
 11
182.95
 21
183.0420537008053
 31
0.0
  0
LINE
  5
A3
330
1F
100
AcDbEntity
  8
VISIBLE
100
AcDbLine
 10
182.95
 20
178.0420537008053
 30
0.0
 11
207.95
 21
178.0420537008053
 31
0.0
  0
LINE
  5
A4
330
1F
100
AcDbEntity
  8
VISIBLE
100
AcDbLine
 10
207.95
 20
178.0420537008053
 30
0.0
 11
207.95
 21
183.0420537008053
 31
0.0
  0
LINE
  5
A5
330
1F
100
AcDbEntity
  8
VISIBLE
100
AcDbLine
 10
182.95
 20
273.0420537008053
 30
0.0
 11
207.95
 21
273.0420537008053
 31
0.0
  0
LINE
  5
A6
330
1F
100
AcDbEntity
  8
VISIBLE
100
AcDbLine
 10
182.95
 20
268.0420537008053
 30
0.0
 11
182.95
 21
273.0420537008053
 31
0.0
  0
LINE
  5
A7
330
1F
100
AcDbEntity
  8
VISIBLE
100
AcDbLine
 10
182.95
 20
268.0420537008053
 30
0.0
 11
207.95
 21
268.0420537008053
 31
0.0
  0
LINE
  5
A8
330
1F
100
AcDbEntity
  8
VISIBLE
100
AcDbLine
 10
207.95
 20
268.0420537008053
 30
0.0
 11
207.95
 21
273.0420537008053
 31
0.0
  0
LINE
  5
A9
330
1F
100
AcDbEntity
  8
VISIBLE
100
AcDbLine
 10
182.95
 20
198.0420537008053
 30
0.0
 11
207.95
 21
198.0420537008053
 31
0.0
  0
LINE
  5
AA
330
1F
100
AcDbEntity
  8
VISIBLE
100
AcDbLine
 10
182.95
 20
193.0420537008053
 30
0.0
 11
182.95
 21
198.0420537008053
 31
0.0
  0
LINE
  5
AB
330
1F
100
AcDbEntity
  8
VISIBLE
100
AcDbLine
 10
182.95
 20
193.0420537008053
 30
0.0
 11
207.95
 21
193.0420537008053
 31
0.0
  0
LINE
  5
AC
330
1F
100
AcDbEntity
  8
VISIBLE
100
AcDbLine
 10
207.95
 20
193.0420537008053
 30
0.0
 11
207.95
 21
198.0420537008053
 31
0.0
  0
LINE
  5
AD
330
1F
100
AcDbEntity
  8
VISIBLE
100
AcDbLine
 10
182.95
 20
228.0420537008053
 30
0.0
 11
207.95
 21
228.0420537008053
 31
0.0
  0
LINE
  5
AE
330
1F
100
AcDbEntity
  8
VISIBLE
100
AcDbLine
 10
182.95
 20
223.0420537008053
 30
0.0
 11
182.95
 21
228.0420537008053
 31
0.0
  0
LINE
  5
AF
330
1F
100
AcDbEntity
  8
VISIBLE
100
AcDbLine
 10
182.95
 20
223.0420537008053
 30
0.0
 11
207.95
 21
223.0420537008053
 31
0.0
  0
LINE
  5
B0
330
1F
100
AcDbEntity
  8
VISIBLE
100
AcDbLine
 10
207.95
 20
223.0420537008053
 30
0.0
 11
207.95
 21
228.0420537008053
 31
0.0
  0
ARC
  5
B1
330
1F
100
AcDbEntity
  8
VISIBLE
100
AcDbCircle
 10
221.3006080117077
 20
156.0849063767201
 30
0.0
 40
2.999999999999994
100
AcDbArc
 50
90.0
 51
180.0
  0
LINE
  5
B2
330
1F
100
AcDbEntity
  8
VISIBLE
100
AcDbLine
 10
218.3006080117077
 20
156.0849063767201
 30
0.0
 11
218.3006080117077
 21
137.0849063767201
 31
0.0
  0
ARC
  5
B3
330
1F
100
AcDbEntity
  8
VISIBLE
100
AcDbCircle
 10
221.3006080117077
 20
137.0849063767201
 30
0.0
 40
2.999999999999988
100
AcDbArc
 50
180.0
 51
270.0000000000005
  0
LINE
  5
B4
330
1F
100
AcDbEntity
  8
VISIBLE
100
AcDbLine
 10
221.3006080117077
 20
134.0849063767201
 30
0.0
 11
230.3006080117077
 21
134.0849063767201
 31
0.0
  0
ARC
  5
B5
330
1F
100
AcDbEntity
  8
VISIBLE
100
AcDbCircle
 10
230.3006080117077
 20
137.0849063767201
 30
0.0
 40
3.000000000000001
100
AcDbArc
 50
270.0
 51
0.0
  0
LINE
  5
B6
330
1F
100
AcDbEntity
  8
VISIBLE
100
AcDbLine
 10
233.3006080117077
 20
156.0849063767201
 30
0.0
 11
233.3006080117077
 21
137.0849063767201
 31
0.0
  0
ARC
  5
B7
330
1F
100
AcDbEntity
  8
VISIBLE
100
AcDbCircle
 10
230.3006080117077
 20
156.0849063767201
 30
0.0
 40
2.999999999999994
100
AcDbArc
 50
0.0
 51
90.0
  0
LINE
  5
B8
330
1F
100
AcDbEntity
  8
VISIBLE
100
AcDbLine
 10
221.3006080117077
 20
159.0849063767201
 30
0.0
 11
230.3006080117077
 21
159.0849063767201
 31
0.0
  0
CIRCLE
  5
B9
330
1F
100
AcDbEntity
  8
VISIBLE
100
AcDbCircle
 10
252.95
 20
131.0420537008053
 30
0.0
 40
2.500000000000002
  0
ARC
  5
BA
330
1F
100
AcDbEntity
  8
VISIBLE
100
AcDbCircle
 10
252.95
 20
131.0420537008053
 30
0.0
 40
4.0
100
AcDbArc
 50
180.0
 51
270.0
  0
LINE
  5
BB
330
1F
100
AcDbEntity
  8
VISIBLE
100
AcDbLine
 10
248.95
 20
132.5849063767201
 30
0.0
 11
248.95
 21
131.0420537008053
 31
0.0
  0
LINE
  5
BC
330
1F
100
AcDbEntity
  8
VISIBLE
100
AcDbLine
 10
248.95
 20
132.5849063767201
 30
0.0
 11
240.0666666666667
 21
132.5849063767201
 31
0.0
  0
LINE
  5
BD
330
1F
100
AcDbEntity
  8
VISIBLE
100
AcDbLine
 10
240.0666666666667
 20
129.5849063767201
 30
0.0
 11
240.0666666666667
 21
132.5849063767201
 31
0.0
  0
LINE
  5
BE
330
1F
100
AcDbEntity
  8
VISIBLE
100
AcDbLine
 10
240.0666666666667
 20
129.5849063767201
 30
0.0
 11
228.8333333333334
 21
129.5849063767201
 31
0.0
  0
LINE
  5
BF
330
1F
100
AcDbEntity
  8
VISIBLE
100
AcDbLine
 10
228.8333333333334
 20
129.5849063767201
 30
0.0
 11
228.8333333333334
 21
132.5849063767201
 31
0.0
  0
LINE
  5
C0
330
1F
100
AcDbEntity
  8
VISIBLE
100
AcDbLine
 10
228.8333333333334
 20
132.5849063767201
 30
0.0
 11
217.4
 21
132.5849063767201
 31
0.0
  0
LINE
  5
C1
330
1F
100
AcDbEntity
  8
VISIBLE
100
AcDbLine
 10
217.4
 20
129.5849063767201
 30
0.0
 11
217.4
 21
132.5849063767201
 31
0.0
  0
LINE
  5
C2
330
1F
100
AcDbEntity
  8
VISIBLE
100
AcDbLine
 10
217.4
 20
129.5849063767201
 30
0.0
 11
214.45
 21
129.5849063767201
 31
0.0
  0
LINE
  5
C3
330
1F
100
AcDbEntity
  8
VISIBLE
100
AcDbLine
 10
214.45
 20
135.53490637672
 30
0.0
 11
214.45
 21
129.5849063767201
 31
0.0
  0
LINE
  5
C4
330
1F
100
AcDbEntity
  8
VISIBLE
100
AcDbLine
 10
214.45
 20
135.53490637672
 30
0.0
 11
217.45
 21
135.53490637672
 31
0.0
  0
LINE
  5
C5
330
1F
100
AcDbEntity
  8
VISIBLE
100
AcDbLine
 10
214.45
 20
151.0634778052915
 30
0.0
 11
217.45
 21
151.0634778052915
 31
0.0
  0
LINE
  5
C6
330
1F
100
AcDbEntity
  8
VISIBLE
100
AcDbLine
 10
214.45
 20
166.3920492338629
 30
0.0
 11
214.45
 21
151.0634778052915
 31
0.0
  0
LINE
  5
C7
330
1F
100
AcDbEntity
  8
VISIBLE
100
AcDbLine
 10
214.45
 20
166.3920492338629
 30
0.0
 11
217.45
 21
166.3920492338629
 31
0.0
  0
LINE
  5
C8
330
1F
100
AcDbEntity
  8
VISIBLE
100
AcDbLine
 10
217.45
 20
166.3920492338629
 30
0.0
 11
217.45
 21
181.9206206624343
 31
0.0
  0
LINE
  5
C9
330
1F
100
AcDbEntity
  8
VISIBLE
100
AcDbLine
 10
214.45
 20
181.9206206624343
 30
0.0
 11
217.45
 21
181.9206206624343
 31
0.0
  0
LINE
  5
CA
330
1F
100
AcDbEntity
  8
VISIBLE
100
AcDbLine
 10
214.45
 20
197.2491920910057
 30
0.0
 11
214.45
 21
181.9206206624343
 31
0.0
  0
LINE
  5
CB
330
1F
100
AcDbEntity
  8
VISIBLE
100
AcDbLine
 10
214.45
 20
197.2491920910057
 30
0.0
 11
217.45
 21
197.2491920910057
 31
0.0
  0
LINE
  5
CC
330
1F
100
AcDbEntity
  8
VISIBLE
100
AcDbLine
 10
217.45
 20
197.2491920910057
 30
0.0
 11
217.45
 21
212.7777635195772
 31
0.0
  0
LINE
  5
CD
330
1F
100
AcDbEntity
  8
VISIBLE
100
AcDbLine
 10
214.45
 20
212.7777635195772
 30
0.0
 11
217.45
 21
212.7777635195772
 31
0.0
  0
LINE
  5
CE
330
1F
100
AcDbEntity
  8
VISIBLE
100
AcDbLine
 10
214.45
 20
228.1063349481486
 30
0.0
 11
214.45
 21
212.7777635195772
 31
0.0
  0
LINE
  5
CF
330
1F
100
AcDbEntity
  8
VISIBLE
100
AcDbLine
 10
214.45
 20
228.1063349481486
 30
0.0
 11
217.45
 21
228.1063349481486
 31
0.0
  0
LINE
  5
D0
330
1F
100
AcDbEntity
  8
VISIBLE
100
AcDbLine
 10
217.45
 20
228.1063349481486
 30
0.0
 11
217.45
 21
243.63490637672
 31
0.0
  0
LINE
  5
D1
330
1F
100
AcDbEntity
  8
VISIBLE
100
AcDbLine
 10
214.45
 20
243.63490637672
 30
0.0
 11
217.45
 21
243.63490637672
 31
0.0
  0
LINE
  5
D2
330
1F
100
AcDbEntity
  8
VISIBLE
100
AcDbLine
 10
214.45
 20
249.58490637672
 30
0.0
 11
214.45
 21
243.63490637672
 31
0.0
  0
LINE
  5
D3
330
1F
100
AcDbEntity
  8
VISIBLE
100
AcDbLine
 10
217.4
 20
249.58490637672
 30
0.0
 11
214.45
 21
249.58490637672
 31
0.0
  0
LINE
  5
D4
330
1F
100
AcDbEntity
  8
VISIBLE
100
AcDbLine
 10
217.4
 20
249.58490637672
 30
0.0
 11
217.4
 21
246.58490637672
 31
0.0
  0
LINE
  5
D5
330
1F
100
AcDbEntity
  8
VISIBLE
100
AcDbLine
 10
217.4
 20
246.58490637672
 30
0.0
 11
228.8333333333334
 21
246.58490637672
 31
0.0
  0
LINE
  5
D6
330
1F
100
AcDbEntity
  8
VISIBLE
100
AcDbLine
 10
228.8333333333334
 20
249.58490637672
 30
0.0
 11
228.8333333333334
 21
246.58490637672
 31
0.0
  0
LINE
  5
D7
330
1F
100
AcDbEntity
  8
VISIBLE
100
AcDbLine
 10
240.0666666666667
 20
249.58490637672
 30
0.0
 11
228.8333333333334
 21
249.58490637672
 31
0.0
  0
LINE
  5
D8
330
1F
100
AcDbEntity
  8
VISIBLE
100
AcDbLine
 10
240.0666666666667
 20
249.58490637672
 30
0.0
 11
240.0666666666667
 21
246.58490637672
 31
0.0
  0
LINE
  5
D9
330
1F
100
AcDbEntity
  8
VISIBLE
100
AcDbLine
 10
240.0666666666667
 20
246.58490637672
 30
0.0
 11
251.45
 21
246.58490637672
 31
0.0
  0
LINE
  5
DA
330
1F
100
AcDbEntity
  8
VISIBLE
100
AcDbLine
 10
251.45
 20
246.58490637672
 30
0.0
 11
251.45
 21
135.0420537008053
 31
0.0
  0
LINE
  5
DB
330
1F
100
AcDbEntity
  8
VISIBLE
100
AcDbLine
 10
252.95
 20
135.0420537008053
 30
0.0
 11
251.45
 21
135.0420537008053
 31
0.0
  0
ARC
  5
DC
330
1F
100
AcDbEntity
  8
VISIBLE
100
AcDbCircle
 10
252.95
 20
131.0420537008053
 30
0.0
 40
4.0
100
AcDbArc
 50
0.0
 51
90.0
  0
ARC
  5
DD
330
1F
100
AcDbEntity
  8
VISIBLE
100
AcDbCircle
 10
252.95
 20
131.0420537008053
 30
0.0
 40
4.0
100
AcDbArc
 50
270.0
 51
0.0
  0
CIRCLE
  5
DE
330
1F
100
AcDbEntity
  8
VISIBLE
100
AcDbCircle
 10
224.45
 20
164.5849063767201
 30
0.0
 40
4.999999999999999
  0
LINE
  5
DF
330
1F
100
AcDbEntity
  8
VISIBLE
100
AcDbLine
 10
217.45
 20
135.53490637672
 30
0.0
 11
217.45
 21
151.0634778052915
 31
0.0
  0
ARC
  5
E0
330
1F
100
AcDbEntity
  8
VISIBLE
100
AcDbCircle
 10
97.95
 20
355.9888290544376
 30
0.0
 40
50.0
100
AcDbArc
 50
151.719131320878
 51
268.2808686791222
  0
LINE
  5
E1
330
1F
100
AcDbEntity
  8
VISIBLE
100
AcDbLine
 10
96.45000000000002
 20
306.0113341192169
 30
0.0
 11
96.45000000000003
 21
321.0209866846258
 31
0.0
  0
ARC
  5
E2
330
1F
100
AcDbEntity
  8
VISIBLE
100
AcDbCircle
 10
97.95000000000002
 20
355.9888290544376
 30
0.0
 40
35.0
100
AcDbArc
 50
152.4562857235821
 51
267.543714276418
  0
LINE
  5
E3
330
1F
100
AcDbEntity
  8
VISIBLE
100
AcDbLine
 10
53.91821976859083
 20
379.6785384163711
 30
0.0
 11
66.91696019221322
 21
372.1737121336668
 31
0.0
  0
CIRCLE
  5
E4
330
1F
100
AcDbEntity
  8
VISIBLE
100
AcDbCircle
 10
45.44999999999998
 20
408.4888290544376
 30
0.0
 40
2.200000000000007
  0
CIRCLE
  5
E5
330
1F
100
AcDbEntity
  8
VISIBLE
100
AcDbCircle
 10
150.45
 20
408.4888290544376
 30
0.0
 40
2.199999999999994
  0
CIRCLE
  5
E6
330
1F
100
AcDbEntity
  8
VISIBLE
100
AcDbCircle
 10
150.4500000000001
 20
303.4888290544375
 30
0.0
 40
2.199999999999994
  0
CIRCLE
  5
E7
330
1F
100
AcDbEntity
  8
VISIBLE
100
AcDbCircle
 10
45.45000000000003
 20
303.4888290544375
 30
0.0
 40
2.200000000000007
  0
LINE
  5
E8
330
1F
100
AcDbEntity
  8
VISIBLE
100
AcDbLine
 10
14.45000000000002
 20
296.0420537008053
 30
0.0
 11
181.45
 21
296.0420537008053
 31
0.0
  0
LINE
  5
E9
330
1F
100
AcDbEntity
  8
VISIBLE
100
AcDbLine
 10
14.45000000000002
 20
296.0420537008053
 30
0.0
 11
14.45000000000002
 21
410.0420537008054
 31
0.0
  0
LINE
  5
EA
330
1F
100
AcDbEntity
  8
VISIBLE
100
AcDbLine
 10
14.45000000000002
 20
410.0420537008054
 30
0.0
 11
17.65000000000002
 21
410.0420537008054
 31
0.0
  0
LINE
  5
EB
330
1F
100
AcDbEntity
  8
VISIBLE
100
AcDbLine
 10
17.65000000000002
 20
410.0420537008054
 30
0.0
 11
17.65000000000002
 21
413.0420537008054
 31
0.0
  0
LINE
  5
EC
330
1F
100
AcDbEntity
  8
VISIBLE
100
AcDbLine
 10
14.45000000000002
 20
413.0420537008054
 30
0.0
 11
17.65000000000002
 21
413.0420537008054
 31
0.0
  0
LINE
  5
ED
330
1F
100
AcDbEntity
  8
VISIBLE
100
AcDbLine
 10
14.45000000000002
 20
413.0420537008054
 30
0.0
 11
14.45000000000002
 21
416.0420537008054
 31
0.0
  0
LINE
  5
EE
330
1F
100
AcDbEntity
  8
VISIBLE
100
AcDbLine
 10
14.45000000000002
 20
416.0420537008054
 30
0.0
 11
181.45
 21
416.0420537008054
 31
0.0
  0
LINE
  5
EF
330
1F
100
AcDbEntity
  8
VISIBLE
100
AcDbLine
 10
181.45
 20
413.0420537008054
 30
0.0
 11
181.45
 21
416.0420537008054
 31
0.0
  0
LINE
  5
F0
330
1F
100
AcDbEntity
  8
VISIBLE
100
AcDbLine
 10
181.45
 20
413.0420537008054
 30
0.0
 11
178.2500000000001
 21
413.0420537008054
 31
0.0
  0
LINE
  5
F1
330
1F
100
AcDbEntity
  8
VISIBLE
100
AcDbLine
 10
178.2500000000001
 20
410.0420537008054
 30
0.0
 11
178.2500000000001
 21
413.0420537008054
 31
0.0
  0
LINE
  5
F2
330
1F
100
AcDbEntity
  8
VISIBLE
100
AcDbLine
 10
181.45
 20
410.0420537008054
 30
0.0
 11
178.2500000000001
 21
410.0420537008054
 31
0.0
  0
LINE
  5
F3
330
1F
100
AcDbEntity
  8
VISIBLE
100
AcDbLine
 10
181.45
 20
296.0420537008053
 30
0.0
 11
181.45
 21
410.0420537008054
 31
0.0
  0
LINE
  5
F4
330
1F
100
AcDbEntity
  8
VISIBLE
100
AcDbLine
 10
124.8823499725006
 20
373.2702793685388
 30
0.0
 11
107.5107953136506
 21
363.2408076100095
 31
0.0
  0
ARC
  5
F5
330
1F
100
AcDbEntity
  8
VISIBLE
100
AcDbCircle
 10
97.95000000000002
 20
355.9888290544376
 30
0.0
 40
32.0
100
AcDbArc
 50
32.6867241856915
 51
147.3132758143085
  0
LINE
  5
F6
330
1F
100
AcDbEntity
  8
VISIBLE
100
AcDbLine
 10
71.01765002749949
 20
373.2702793685388
 30
0.0
 11
88.38920468634937
 21
363.2408076100095
 31
0.0
  0
ARC
  5
F7
330
1F
100
AcDbEntity
  8
VISIBLE
100
AcDbCircle
 10
97.95000000000002
 20
355.9888290544376
 30
0.0
 40
12.0
100
AcDbArc
 50
37.18075578145806
 51
142.8192442185423
  0
ARC
  5
F8
330
1F
100
AcDbEntity
  8
VISIBLE
100
AcDbCircle
 10
97.95000000000005
 20
355.9888290544376
 30
0.0
 40
49.99999999999999
100
AcDbArc
 50
31.71913132087774
 51
148.2808686791223
  0
LINE
  5
F9
330
1F
100
AcDbEntity
  8
VISIBLE
100
AcDbLine
 10
55.41821976859085
 20
382.2766146277245
 30
0.0
 11
68.41696019221322
 21
374.77178834502
 31
0.0
  0
ARC
  5
FA
330
1F
100
AcDbEntity
  8
VISIBLE
100
AcDbCircle
 10
97.95000000000002
 20
355.9888290544376
 30
0.0
 40
35.0
100
AcDbArc
 50
32.45628572358201
 51
147.5437142764182
  0
LINE
  5
FB
330
1F
100
AcDbEntity
  8
VISIBLE
100
AcDbLine
 10
169.9500000000001
 20
411.0420537008054
 30
0.0
 11
157.95
 21
411.0420537008054
 31
0.0
  0
LINE
  5
FC
330
1F
100
AcDbEntity
  8
VISIBLE
100
AcDbLine
 10
157.95
 20
399.0420537008052
 30
0.0
 11
157.95
 21
411.0420537008054
 31
0.0
  0
LINE
  5
FD
330
1F
100
AcDbEntity
  8
VISIBLE
100
AcDbLine
 10
169.9500000000001
 20
399.0420537008052
 30
0.0
 11
157.95
 21
399.0420537008052
 31
0.0
  0
LINE
  5
FE
330
1F
100
AcDbEntity
  8
VISIBLE
100
AcDbLine
 10
169.9500000000001
 20
399.0420537008052
 30
0.0
 11
169.9500000000001
 21
411.0420537008054
 31
0.0
  0
ARC
  5
FF
330
1F
100
AcDbEntity
  8
VISIBLE
100
AcDbCircle
 10
97.94999999999987
 20
355.9888290544375
 30
0.0
 40
32.00000000000016
100
AcDbArc
 50
272.6867241856918
 51
27.31327581430828
  0
LINE
  5
100
330
1F
100
AcDbEntity
  8
VISIBLE
100
AcDbLine
 10
126.3823499725006
 20
370.6722031571855
 30
0.0
 11
109.0107953136507
 21
360.6427313986562
 31
0.0
  0
ARC
  5
101
330
1F
100
AcDbEntity
  8
VISIBLE
100
AcDbCircle
 10
97.95000000000002
 20
355.9888290544376
 30
0.0
 40
12.0
100
AcDbArc
 50
277.1807557814583
 51
22.81924421854153
  0
LINE
  5
102
330
1F
100
AcDbEntity
  8
VISIBLE
100
AcDbLine
 10
99.45000000000005
 20
324.0240046375881
 30
0.0
 11
99.45000000000005
 21
344.0829481546469
 31
0.0
  0
ARC
  5
103
330
1F
100
AcDbEntity
  8
VISIBLE
100
AcDbCircle
 10
97.95
 20
355.9888290544376
 30
0.0
 40
32.0
100
AcDbArc
 50
152.6867241856917
 51
267.3132758143084
  0
LINE
  5
104
330
1F
100
AcDbEntity
  8
VISIBLE
100
AcDbLine
 10
96.45000000000003
 20
324.0240046375883
 30
0.0
 11
96.45000000000003
 21
344.0829481546469
 31
0.0
  0
ARC
  5
105
330
1F
100
AcDbEntity
  8
VISIBLE
100
AcDbCircle
 10
97.95000000000002
 20
355.9888290544376
 30
0.0
 40
12.0
100
AcDbArc
 50
157.1807557814585
 51
262.8192442185418
  0
LINE
  5
106
330
1F
100
AcDbEntity
  8
VISIBLE
100
AcDbLine
 10
69.51765002749949
 20
370.6722031571855
 30
0.0
 11
86.88920468634937
 21
360.6427313986562
 31
0.0
  0
ARC
  5
107
330
1F
100
AcDbEntity
  8
VISIBLE
100
AcDbCircle
 10
97.95000000000003
 20
355.9888290544376
 30
0.0
 40
50.0
100
AcDbArc
 50
271.7191313208778
 51
28.2808686791222
  0
LINE
  5
108
330
1F
100
AcDbEntity
  8
VISIBLE
100
AcDbLine
 10
141.9817802314092
 20
379.6785384163712
 30
0.0
 11
128.9830398077868
 21
372.1737121336668
 31
0.0
  0
ARC
  5
109
330
1F
100
AcDbEntity
  8
VISIBLE
100
AcDbCircle
 10
97.95000000000002
 20
355.9888290544376
 30
0.0
 40
35.0
100
AcDbArc
 50
272.456285723582
 51
27.54371427641796
  0
LINE
  5
10A
330
1F
100
AcDbEntity
  8
VISIBLE
100
AcDbLine
 10
99.45000000000003
 20
306.0113341192169
 30
0.0
 11
99.45000000000003
 21
321.0209866846258
 31
0.0
  0
LINE
  5
10B
330
1F
100
AcDbEntity
  8
VISIBLE
100
AcDbLine
 10
140.4817802314092
 20
382.2766146277245
 30
0.0
 11
127.4830398077868
 21
374.7717883450201
 31
0.0
  0
LINE
  5
10C
330
1F
100
AcDbEntity
  8
VISIBLE
100
AcDbLine
 10
165.95
 20
238.0420537008053
 30
0.0
 11
165.95
 21
243.0420537008053
 31
0.0
  0
LINE
  5
10D
330
1F
100
AcDbEntity
  8
VISIBLE
100
AcDbLine
 10
165.95
 20
238.0420537008053
 30
0.0
 11
140.95
 21
238.0420537008053
 31
0.0
  0
LINE
  5
10E
330
1F
100
AcDbEntity
  8
VISIBLE
100
AcDbLine
 10
165.95
 20
258.0420537008052
 30
0.0
 11
140.95
 21
258.0420537008052
 31
0.0
  0
LINE
  5
10F
330
1F
100
AcDbEntity
  8
VISIBLE
100
AcDbLine
 10
140.95
 20
253.0420537008053
 30
0.0
 11
140.95
 21
258.0420537008052
 31
0.0
  0
LINE
  5
110
330
1F
100
AcDbEntity
  8
VISIBLE
100
AcDbLine
 10
136.45
 20
291.0420537008053
 30
0.0
 11
139.05
 21
291.0420537008053
 31
0.0
  0
LINE
  5
111
330
1F
100
AcDbEntity
  8
VISIBLE
100
AcDbLine
 10
139.05
 20
294.0420537008053
 30
0.0
 11
139.05
 21
291.0420537008053
 31
0.0
  0
LINE
  5
112
330
1F
100
AcDbEntity
  8
VISIBLE
100
AcDbLine
 10
139.05
 20
294.0420537008053
 30
0.0
 11
147.7833333333334
 21
294.0420537008053
 31
0.0
  0
LINE
  5
113
330
1F
100
AcDbEntity
  8
VISIBLE
100
AcDbLine
 10
147.7833333333334
 20
294.0420537008053
 30
0.0
 11
147.7833333333334
 21
291.0420537008053
 31
0.0
  0
LINE
  5
114
330
1F
100
AcDbEntity
  8
VISIBLE
100
AcDbLine
 10
147.7833333333334
 20
291.0420537008053
 30
0.0
 11
159.1166666666667
 21
291.0420537008053
 31
0.0
  0
LINE
  5
115
330
1F
100
AcDbEntity
  8
VISIBLE
100
AcDbLine
 10
159.1166666666667
 20
294.0420537008053
 30
0.0
 11
159.1166666666667
 21
291.0420537008053
 31
0.0
  0
LINE
  5
116
330
1F
100
AcDbEntity
  8
VISIBLE
100
AcDbLine
 10
159.1166666666667
 20
294.0420537008053
 30
0.0
 11
170.45
 21
294.0420537008053
 31
0.0
  0
LINE
  5
117
330
1F
100
AcDbEntity
  8
VISIBLE
100
AcDbLine
 10
170.45
 20
267.9920537008053
 30
0.0
 11
170.45
 21
294.0420537008053
 31
0.0
  0
LINE
  5
118
330
1F
100
AcDbEntity
  8
VISIBLE
100
AcDbLine
 10
170.45
 20
267.9920537008053
 30
0.0
 11
173.45
 21
267.9920537008053
 31
0.0
  0
LINE
  5
119
330
1F
100
AcDbEntity
  8
VISIBLE
100
AcDbLine
 10
173.45
 20
267.9920537008053
 30
0.0
 11
173.45
 21
245.0920537008053
 31
0.0
  0
LINE
  5
11A
330
1F
100
AcDbEntity
  8
VISIBLE
100
AcDbLine
 10
170.45
 20
245.0920537008053
 30
0.0
 11
173.45
 21
245.0920537008053
 31
0.0
  0
LINE
  5
11B
330
1F
100
AcDbEntity
  8
VISIBLE
100
AcDbLine
 10
170.45
 20
221.9920537008053
 30
0.0
 11
170.45
 21
245.0920537008053
 31
0.0
  0
LINE
  5
11C
330
1F
100
AcDbEntity
  8
VISIBLE
100
AcDbLine
 10
170.45
 20
221.9920537008053
 30
0.0
 11
173.45
 21
221.9920537008053
 31
0.0
  0
LINE
  5
11D
330
1F
100
AcDbEntity
  8
VISIBLE
100
AcDbLine
 10
173.45
 20
221.9920537008053
 30
0.0
 11
173.45
 21
199.0920537008053
 31
0.0
  0
LINE
  5
11E
330
1F
100
AcDbEntity
  8
VISIBLE
100
AcDbLine
 10
170.45
 20
199.0920537008053
 30
0.0
 11
173.45
 21
199.0920537008053
 31
0.0
  0
LINE
  5
11F
330
1F
100
AcDbEntity
  8
VISIBLE
100
AcDbLine
 10
170.45
 20
175.9920537008053
 30
0.0
 11
170.45
 21
199.0920537008053
 31
0.0
  0
LINE
  5
120
330
1F
100
AcDbEntity
  8
VISIBLE
100
AcDbLine
 10
170.45
 20
175.9920537008053
 30
0.0
 11
173.45
 21
175.9920537008053
 31
0.0
  0
LINE
  5
121
330
1F
100
AcDbEntity
  8
VISIBLE
100
AcDbLine
 10
173.45
 20
175.9920537008053
 30
0.0
 11
173.45
 21
153.0920537008053
 31
0.0
  0
LINE
  5
122
330
1F
100
AcDbEntity
  8
VISIBLE
100
AcDbLine
 10
170.45
 20
153.0920537008053
 30
0.0
 11
173.45
 21
153.0920537008053
 31
0.0
  0
LINE
  5
123
330
1F
100
AcDbEntity
  8
VISIBLE
100
AcDbLine
 10
170.45
 20
127.0420537008053
 30
0.0
 11
170.45
 21
153.0920537008053
 31
0.0
  0
LINE
  5
124
330
1F
100
AcDbEntity
  8
VISIBLE
100
AcDbLine
 10
159.1166666666667
 20
127.0420537008053
 30
0.0
 11
170.45
 21
127.0420537008053
 31
0.0
  0
LINE
  5
125
330
1F
100
AcDbEntity
  8
VISIBLE
100
AcDbLine
 10
159.1166666666667
 20
127.0420537008053
 30
0.0
 11
159.1166666666667
 21
130.0420537008053
 31
0.0
  0
LINE
  5
126
330
1F
100
AcDbEntity
  8
VISIBLE
100
AcDbLine
 10
159.1166666666667
 20
130.0420537008053
 30
0.0
 11
147.7833333333334
 21
130.0420537008053
 31
0.0
  0
LINE
  5
127
330
1F
100
AcDbEntity
  8
VISIBLE
100
AcDbLine
 10
147.7833333333334
 20
127.0420537008053
 30
0.0
 11
147.7833333333334
 21
130.0420537008053
 31
0.0
  0
LINE
  5
128
330
1F
100
AcDbEntity
  8
VISIBLE
100
AcDbLine
 10
139.05
 20
127.0420537008053
 30
0.0
 11
147.7833333333334
 21
127.0420537008053
 31
0.0
  0
LINE
  5
129
330
1F
100
AcDbEntity
  8
VISIBLE
100
AcDbLine
 10
139.05
 20
127.0420537008053
 30
0.0
 11
139.05
 21
130.0420537008053
 31
0.0
  0
LINE
  5
12A
330
1F
100
AcDbEntity
  8
VISIBLE
100
AcDbLine
 10
136.45
 20
130.0420537008053
 30
0.0
 11
139.05
 21
130.0420537008053
 31
0.0
  0
LINE
  5
12B
330
1F
100
AcDbEntity
  8
VISIBLE
100
AcDbLine
 10
136.45
 20
291.0420537008053
 30
0.0
 11
136.45
 21
130.0420537008053
 31
0.0
  0
LINE
  5
12C
330
1F
100
AcDbEntity
  8
VISIBLE
100
AcDbLine
 10
165.95
 20
243.0420537008053
 30
0.0
 11
140.95
 21
243.0420537008053
 31
0.0
  0
LINE
  5
12D
330
1F
100
AcDbEntity
  8
VISIBLE
100
AcDbLine
 10
140.95
 20
238.0420537008053
 30
0.0
 11
140.95
 21
243.0420537008053
 31
0.0
  0
LINE
  5
12E
330
1F
100
AcDbEntity
  8
VISIBLE
100
AcDbLine
 10
165.95
 20
223.0420537008053
 30
0.0
 11
140.95
 21
223.0420537008053
 31
0.0
  0
LINE
  5
12F
330
1F
100
AcDbEntity
  8
VISIBLE
100
AcDbLine
 10
165.95
 20
223.0420537008053
 30
0.0
 11
165.95
 21
228.0420537008053
 31
0.0
  0
LINE
  5
130
330
1F
100
AcDbEntity
  8
VISIBLE
100
AcDbLine
 10
165.95
 20
228.0420537008053
 30
0.0
 11
140.95
 21
228.0420537008053
 31
0.0
  0
LINE
  5
131
330
1F
100
AcDbEntity
  8
VISIBLE
100
AcDbLine
 10
140.95
 20
223.0420537008053
 30
0.0
 11
140.95
 21
228.0420537008053
 31
0.0
  0
LINE
  5
132
330
1F
100
AcDbEntity
  8
VISIBLE
100
AcDbLine
 10
165.95
 20
208.0420537008053
 30
0.0
 11
140.95
 21
208.0420537008053
 31
0.0
  0
LINE
  5
133
330
1F
100
AcDbEntity
  8
VISIBLE
100
AcDbLine
 10
165.95
 20
208.0420537008053
 30
0.0
 11
165.95
 21
213.0420537008053
 31
0.0
  0
LINE
  5
134
330
1F
100
AcDbEntity
  8
VISIBLE
100
AcDbLine
 10
165.95
 20
213.0420537008053
 30
0.0
 11
140.95
 21
213.0420537008053
 31
0.0
  0
LINE
  5
135
330
1F
100
AcDbEntity
  8
VISIBLE
100
AcDbLine
 10
140.95
 20
208.0420537008053
 30
0.0
 11
140.95
 21
213.0420537008053
 31
0.0
  0
LINE
  5
136
330
1F
100
AcDbEntity
  8
VISIBLE
100
AcDbLine
 10
165.95
 20
193.0420537008053
 30
0.0
 11
140.95
 21
193.0420537008053
 31
0.0
  0
LINE
  5
137
330
1F
100
AcDbEntity
  8
VISIBLE
100
AcDbLine
 10
165.95
 20
193.0420537008053
 30
0.0
 11
165.95
 21
198.0420537008053
 31
0.0
  0
LINE
  5
138
330
1F
100
AcDbEntity
  8
VISIBLE
100
AcDbLine
 10
165.95
 20
198.0420537008053
 30
0.0
 11
140.95
 21
198.0420537008053
 31
0.0
  0
LINE
  5
139
330
1F
100
AcDbEntity
  8
VISIBLE
100
AcDbLine
 10
140.95
 20
193.0420537008053
 30
0.0
 11
140.95
 21
198.0420537008053
 31
0.0
  0
LINE
  5
13A
330
1F
100
AcDbEntity
  8
VISIBLE
100
AcDbLine
 10
165.95
 20
148.0420537008053
 30
0.0
 11
140.95
 21
148.0420537008053
 31
0.0
  0
LINE
  5
13B
330
1F
100
AcDbEntity
  8
VISIBLE
100
AcDbLine
 10
165.95
 20
148.0420537008053
 30
0.0
 11
165.95
 21
153.0420537008053
 31
0.0
  0
LINE
  5
13C
330
1F
100
AcDbEntity
  8
VISIBLE
100
AcDbLine
 10
165.95
 20
153.0420537008053
 30
0.0
 11
140.95
 21
153.0420537008053
 31
0.0
  0
LINE
  5
13D
330
1F
100
AcDbEntity
  8
VISIBLE
100
AcDbLine
 10
140.95
 20
148.0420537008053
 30
0.0
 11
140.95
 21
153.0420537008053
 31
0.0
  0
LINE
  5
13E
330
1F
100
AcDbEntity
  8
VISIBLE
100
AcDbLine
 10
165.95
 20
268.0420537008053
 30
0.0
 11
140.95
 21
268.0420537008053
 31
0.0
  0
LINE
  5
13F
330
1F
100
AcDbEntity
  8
VISIBLE
100
AcDbLine
 10
165.95
 20
268.0420537008053
 30
0.0
 11
165.95
 21
273.0420537008053
 31
0.0
  0
LINE
  5
140
330
1F
100
AcDbEntity
  8
VISIBLE
100
AcDbLine
 10
165.95
 20
273.0420537008053
 30
0.0
 11
140.95
 21
273.0420537008053
 31
0.0
  0
LINE
  5
141
330
1F
100
AcDbEntity
  8
VISIBLE
100
AcDbLine
 10
140.95
 20
268.0420537008053
 30
0.0
 11
140.95
 21
273.0420537008053
 31
0.0
  0
LINE
  5
142
330
1F
100
AcDbEntity
  8
VISIBLE
100
AcDbLine
 10
165.95
 20
163.0420537008053
 30
0.0
 11
140.95
 21
163.0420537008053
 31
0.0
  0
LINE
  5
143
330
1F
100
AcDbEntity
  8
VISIBLE
100
AcDbLine
 10
165.95
 20
163.0420537008053
 30
0.0
 11
165.95
 21
168.0420537008053
 31
0.0
  0
LINE
  5
144
330
1F
100
AcDbEntity
  8
VISIBLE
100
AcDbLine
 10
165.95
 20
168.0420537008053
 30
0.0
 11
140.95
 21
168.0420537008053
 31
0.0
  0
LINE
  5
145
330
1F
100
AcDbEntity
  8
VISIBLE
100
AcDbLine
 10
140.95
 20
163.0420537008053
 30
0.0
 11
140.95
 21
168.0420537008053
 31
0.0
  0
LINE
  5
146
330
1F
100
AcDbEntity
  8
VISIBLE
100
AcDbLine
 10
165.95
 20
178.0420537008053
 30
0.0
 11
140.95
 21
178.0420537008053
 31
0.0
  0
LINE
  5
147
330
1F
100
AcDbEntity
  8
VISIBLE
100
AcDbLine
 10
165.95
 20
178.0420537008053
 30
0.0
 11
165.95
 21
183.0420537008053
 31
0.0
  0
LINE
  5
148
330
1F
100
AcDbEntity
  8
VISIBLE
100
AcDbLine
 10
165.95
 20
183.0420537008053
 30
0.0
 11
140.95
 21
183.0420537008053
 31
0.0
  0
LINE
  5
149
330
1F
100
AcDbEntity
  8
VISIBLE
100
AcDbLine
 10
140.95
 20
178.0420537008053
 30
0.0
 11
140.95
 21
183.0420537008053
 31
0.0
  0
LINE
  5
14A
330
1F
100
AcDbEntity
  8
VISIBLE
100
AcDbLine
 10
165.95
 20
253.0420537008053
 30
0.0
 11
140.95
 21
253.0420537008053
 31
0.0
  0
LINE
  5
14B
330
1F
100
AcDbEntity
  8
VISIBLE
100
AcDbLine
 10
165.95
 20
253.0420537008053
 30
0.0
 11
165.95
 21
258.0420537008052
 31
0.0
  0
LINE
  5
14C
330
1F
100
AcDbEntity
  8
VISIBLE
100
AcDbLine
 10
279.1308305095054
 20
205.173135003572
 30
0.0
 11
284.7691343396903
 21
205.173135003572
 31
0.0
  0
LINE
  5
14D
330
1F
100
AcDbEntity
  8
VISIBLE
100
AcDbLine
 10
280.3593821574352
 20
206.5489197566565
 30
0.0
 11
280.3593821574352
 21
207.3128423432376
 31
0.0
  0
LINE
  5
14E
330
1F
100
AcDbEntity
  8
VISIBLE
100
AcDbLine
 10
280.3593821574352
 20
207.3128423432376
 30
0.0
 11
279.1308305095054
 21
207.3128423432376
 31
0.0
  0
LINE
  5
14F
330
1F
100
AcDbEntity
  8
VISIBLE
100
AcDbLine
 10
279.1308305095054
 20
207.3128423432376
 30
0.0
 11
279.1308305095054
 21
205.173135003572
 31
0.0
  0
SPLINE
  5
150
330
1F
100
AcDbEntity
  8
VISIBLE
100
AcDbSpline
210
0.0
220
0.0
230
1.0
 70
     8
 71
     2
 72
     6
 73
     3
 74
     0
 42
0.000000001
 43
0.0000000330602975
 40
0.0
 40
0.0
 40
0.0
 40
1.0
 40
1.0
 40
1.0
 10
281.684639822415
 20
180.1604685162947
 30
0.0
 10
281.2910548551733
 20
179.8905199790919
 30
0.0
 10
280.9174460796846
 20
179.8905199790919
 30
0.0
  0
SPLINE
  5
151
330
1F
100
AcDbEntity
  8
VISIBLE
100
AcDbSpline
210
0.0
220
0.0
230
1.0
 70
     8
 71
     2
 72
     6
 73
     3
 74
     0
 42
0.000000001
 43
0.0000000329889863
 40
0.0
 40
0.0
 40
0.0
 40
1.0
 40
1.0
 40
1.0
 10
280.9174460796846
 20
179.8905199790919
 30
0.0
 10
280.6345400126962
 20
179.8905199790919
 30
0.0
 10
280.4752703757465
 20
180.0222548652469
 30
0.0
  0
SPLINE
  5
152
330
1F
100
AcDbEntity
  8
VISIBLE
100
AcDbSpline
210
0.0
220
0.0
230
1.0
 70
     8
 71
     2
 72
     6
 73
     3
 74
     0
 42
0.000000001
 43
0.0000000330537467
 40
0.0
 40
0.0
 40
0.0
 40
1.0
 40
1.0
 40
1.0
 10
280.513063170955
 20
180.8272414031855
 30
0.0
 10
280.7101256031129
 20
180.975713098647
 30
0.0
 10
281.069697054667
 20
180.975713098647
 30
0.0
  0
LINE
  5
153
330
1F
100
AcDbEntity
  8
VISIBLE
100
AcDbLine
 10
281.069697054667
 20
180.975713098647
 30
0.0
 11
281.069697054667
 21
182.1159757197915
 31
0.0
  0
SPLINE
  5
154
330
1F
100
AcDbEntity
  8
VISIBLE
100
AcDbSpline
210
0.0
220
0.0
230
1.0
 70
     8
 71
     2
 72
     6
 73
     3
 74
     0
 42
0.000000001
 43
0.0000000329385303
 40
0.0
 40
0.0
 40
0.0
 40
1.0
 40
1.0
 40
1.0
 10
279.5077748184119
 20
181.2354035914361
 30
0.0
 10
279.321510327742
 20
180.8450580066409
 30
0.0
 10
279.321510327742
 20
180.3677889928664
 30
0.0
  0
SPLINE
  5
155
330
1F
100
AcDbEntity
  8
VISIBLE
100
AcDbSpline
210
0.0
220
0.0
230
1.0
 70
     8
 71
     2
 72
     6
 73
     3
 74
     0
 42
0.000000001
 43
0.0000000329103485
 40
0.0
 40
0.0
 40
0.0
 40
1.0
 40
1.0
 40
1.0
 10
279.321510327742
 20
180.3677889928664
 30
0.0
 10
279.321510327742
 20
179.5449858514724
 30
0.0
 10
279.7426300457782
 20
179.1271055158825
 30
0.0
  0
SPLINE
  5
156
330
1F
100
AcDbEntity
  8
VISIBLE
100
AcDbSpline
210
0.0
220
0.0
230
1.0
 70
     8
 71
     2
 72
     6
 73
     3
 74
     0
 42
0.000000001
 43
0.000000033225338
 40
0.0
 40
0.0
 40
0.0
 40
1.0
 40
1.0
 40
1.0
 10
282.2131990582579
 20
179.2134890477874
 30
0.0
 10
282.8459584294612
 20
179.7177529152822
 30
0.0
 10
283.4463239762001
 20
180.4995238790214
 30
0.0
  0
LINE
  5
157
330
1F
100
AcDbEntity
  8
VISIBLE
100
AcDbLine
 10
283.4463239762001
 20
180.4995238790214
 30
0.0
 11
283.4463239762001
 21
178.6336395898759
 31
0.0
  0
LINE
  5
158
330
1F
100
AcDbEntity
  8
VISIBLE
100
AcDbLine
 10
283.4463239762001
 20
178.6336395898759
 30
0.0
 11
284.4073407686419
 21
178.6336395898759
 31
0.0
  0
LINE
  5
159
330
1F
100
AcDbEntity
  8
VISIBLE
100
AcDbLine
 10
284.4073407686419
 20
178.6336395898759
 30
0.0
 11
284.4073407686419
 21
182.1019383958569
 31
0.0
  0
LINE
  5
15A
330
1F
100
AcDbEntity
  8
VISIBLE
100
AcDbLine
 10
284.4073407686419
 20
182.1019383958569
 30
0.0
 11
283.5294681256586
 21
182.1019383958569
 31
0.0
  0
SPLINE
  5
15B
330
1F
100
AcDbEntity
  8
VISIBLE
100
AcDbSpline
210
0.0
220
0.0
230
1.0
 70
     8
 71
     2
 72
     6
 73
     3
 74
     0
 42
0.000000001
 43
0.0000000333195678
 40
0.0
 40
0.0
 40
0.0
 40
1.0
 40
1.0
 40
1.0
 10
283.5294681256586
 20
182.1019383958569
 30
0.0
 10
283.3426637379143
 20
181.8676230655649
 30
0.0
 10
283.3567010618488
 20
181.8881391543923
 30
0.0
  0
SPLINE
  5
15C
330
1F
100
AcDbEntity
  8
VISIBLE
100
AcDbSpline
210
0.0
220
0.0
230
1.0
 70
     8
 71
     2
 72
     6
 73
     3
 74
     0
 42
0.000000001
 43
0.0000000319074561
 40
0.0
 40
0.0
 40
0.0
 40
1.0
 40
1.0
 40
1.0
 10
282.3536074679656
 20
156.8431983244855
 30
0.0
 10
281.9951740362091
 20
156.4540881575786
 30
0.0
 10
281.6028347392863
 20
156.1849939895932
 30
0.0
  0
SPLINE
  5
15D
330
1F
100
AcDbEntity
  8
VISIBLE
100
AcDbSpline
210
0.0
220
0.0
230
1.0
 70
     8
 71
     2
 72
     6
 73
     3
 74
     0
 42
0.000000001
 43
0.0000000318102679
 40
0.0
 40
0.0
 40
0.0
 40
1.0
 40
1.0
 40
1.0
 10
281.6028347392863
 20
156.1849939895932
 30
0.0
 10
281.2104954423636
 20
155.9158998216078
 30
0.0
 10
280.8380691138718
 20
155.9158998216078
 30
0.0
  0
SPLINE
  5
15E
330
1F
100
AcDbEntity
  8
VISIBLE
100
AcDbSpline
210
0.0
220
0.0
230
1.0
 70
     8
 71
     2
 72
     6
 73
     3
 74
     0
 42
0.000000001
 43
0.0000000317374431
 40
0.0
 40
0.0
 40
0.0
 40
1.0
 40
1.0
 40
1.0
 10
280.8380691138718
 20
155.9158998216078
 30
0.0
 10
280.556058425823
 20
155.9158998216078
 30
0.0
 10
280.3972928667117
 20
156.0472177755847
 30
0.0
  0
SPLINE
  5
15F
330
1F
100
AcDbEntity
  8
VISIBLE
100
AcDbSpline
210
0.0
220
0.0
230
1.0
 70
     8
 71
     2
 72
     6
 73
     3
 74
     0
 42
0.000000001
 43
0.0000000317187477
 40
0.0
 40
0.0
 40
0.0
 40
1.0
 40
1.0
 40
1.0
 10
280.3972928667117
 20
156.0472177755847
 30
0.0
 10
280.2385273076003
 20
156.1785357295616
 30
0.0
 10
280.2385273076003
 20
156.4400952608434
 30
0.0
  0
SPLINE
  5
160
330
1F
100
AcDbEntity
  8
VISIBLE
100
AcDbSpline
210
0.0
220
0.0
230
1.0
 70
     8
 71
     2
 72
     6
 73
     3
 74
     0
 42
0.000000001
 43
0.0000000317422155
 40
0.0
 40
0.0
 40
0.0
 40
1.0
 40
1.0
 40
1.0
 10
280.2385273076003
 20
156.4400952608434
 30
0.0
 10
280.2385273076003
 20
156.7016547921252
 30
0.0
 10
280.4349660502296
 20
156.8496565845172
 30
0.0
  0
SPLINE
  5
161
330
1F
100
AcDbEntity
  8
VISIBLE
100
AcDbSpline
210
0.0
220
0.0
230
1.0
 70
     8
 71
     2
 72
     6
 73
     3
 74
     0
 42
0.000000001
 43
0.0000000317973694
 40
0.0
 40
0.0
 40
0.0
 40
1.0
 40
1.0
 40
1.0
 10
280.4349660502296
 20
156.8496565845172
 30
0.0
 10
280.631404792859
 20
156.9976583769092
 30
0.0
 10
280.9898382246156
 20
156.9976583769092
 30
0.0
  0
LINE
  5
162
330
1F
100
AcDbEntity
  8
VISIBLE
100
AcDbLine
 10
280.9898382246156
 20
156.9976583769092
 30
0.0
 11
280.9898382246156
 21
158.1343121424795
 31
0.0
  0
SPLINE
  5
163
330
1F
100
AcDbEntity
  8
VISIBLE
100
AcDbSpline
210
0.0
220
0.0
230
1.0
 70
     8
 71
     2
 72
     6
 73
     3
 74
     0
 42
0.000000001
 43
0.0000000318536444
 40
0.0
 40
0.0
 40
0.0
 40
1.0
 40
1.0
 40
1.0
 10
280.9898382246156
 20
158.1343121424795
 30
0.0
 10
280.4042893150793
 20
158.1203192457443
 30
0.0
 10
280.0114118298206
 20
157.8829781895812
 30
0.0
  0
SPLINE
  5
164
330
1F
100
AcDbEntity
  8
VISIBLE
100
AcDbSpline
210
0.0
220
0.0
230
1.0
 70
     8
 71
     2
 72
     6
 73
     3
 74
     0
 42
0.000000001
 43
0.0000000317569531
 40
0.0
 40
0.0
 40
0.0
 40
1.0
 40
1.0
 40
1.0
 10
280.0114118298206
 20
157.8829781895812
 30
0.0
 10
279.6185343445619
 20
157.645637133418
 30
0.0
 10
279.432859368652
 20
157.2565269665111
 30
0.0
  0
SPLINE
  5
165
330
1F
100
AcDbEntity
  8
VISIBLE
100
AcDbSpline
210
0.0
220
0.0
230
1.0
 70
     8
 71
     2
 72
     6
 73
     3
 74
     0
 42
0.000000001
 43
0.000000031676042
 40
0.0
 40
0.0
 40
0.0
 40
1.0
 40
1.0
 40
1.0
 10
279.432859368652
 20
157.2565269665111
 30
0.0
 10
279.247184392742
 20
156.8674167996042
 30
0.0
 10
279.247184392742
 20
156.391658310606
 30
0.0
  0
SPLINE
  5
166
330
1F
100
AcDbEntity
  8
VISIBLE
100
AcDbSpline
210
0.0
220
0.0
230
1.0
 70
     8
 71
     2
 72
     6
 73
     3
 74
     0
 42
0.000000001
 43
0.0000000316533754
 40
0.0
 40
0.0
 40
0.0
 40
1.0
 40
1.0
 40
1.0
 10
279.247184392742
 20
156.391658310606
 30
0.0
 10
279.247184392742
 20
155.5714592865865
 30
0.0
 10
279.6669712947993
 20
155.1549015145451
 30
0.0
  0
SPLINE
  5
167
330
1F
100
AcDbEntity
  8
VISIBLE
100
AcDbSpline
210
0.0
220
0.0
230
1.0
 70
     8
 71
     2
 72
     6
 73
     3
 74
     0
 42
0.000000001
 43
0.0000000316871497
 40
0.0
 40
0.0
 40
0.0
 40
1.0
 40
1.0
 40
1.0
 10
279.6669712947993
 20
155.1549015145451
 30
0.0
 10
280.0867581968565
 20
154.7383437425036
 30
0.0
 10
280.7627227468358
 20
154.7383437425036
 30
0.0
  0
SPLINE
  5
168
330
1F
100
AcDbEntity
  8
VISIBLE
100
AcDbSpline
210
0.0
220
0.0
230
1.0
 70
     8
 71
     2
 72
     6
 73
     3
 74
     0
 42
0.000000001
 43
0.0000000319786381
 40
0.0
 40
0.0
 40
0.0
 40
1.0
 40
1.0
 40
1.0
 10
282.1297211202018
 20
155.2410116483004
 30
0.0
 10
282.7604778499596
 20
155.7436795540972
 30
0.0
 10
283.3589432795591
 20
156.5229762645829
 30
0.0
  0
LINE
  5
169
330
1F
100
AcDbEntity
  8
VISIBLE
100
AcDbLine
 10
283.3589432795591
 20
156.5229762645829
 30
0.0
 11
283.3589432795591
 21
154.6629973754677
 31
0.0
  0
LINE
  5
16A
330
1F
100
AcDbEntity
  8
VISIBLE
100
AcDbLine
 10
283.3589432795591
 20
154.6629973754677
 30
0.0
 11
284.3169185175872
 21
154.6629973754677
 31
0.0
  0
LINE
  5
16B
330
1F
100
AcDbEntity
  8
VISIBLE
100
AcDbLine
 10
284.3169185175872
 20
154.6629973754677
 30
0.0
 11
284.3169185175872
 21
158.1203192457443
 31
0.0
  0
LINE
  5
16C
330
1F
100
AcDbEntity
  8
VISIBLE
100
AcDbLine
 10
284.3169185175872
 20
158.1203192457443
 30
0.0
 11
283.4418242832986
 21
158.1203192457443
 31
0.0
  0
SPLINE
  5
16D
330
1F
100
AcDbEntity
  8
VISIBLE
100
AcDbSpline
210
0.0
220
0.0
230
1.0
 70
     8
 71
     2
 72
     6
 73
     3
 74
     0
 42
0.000000001
 43
0.0000000320389075
 40
0.0
 40
0.0
 40
0.0
 40
1.0
 40
1.0
 40
1.0
 10
283.269604015788
 20
157.9071966646999
 30
0.0
 10
282.7120408997222
 20
157.2323084913924
 30
0.0
 10
282.3536074679656
 20
156.8431983244855
 30
0.0
  0
LINE
  5
16E
330
1F
100
AcDbEntity
  8
VISIBLE
100
AcDbLine
 10
275.8333333333334
 20
246.58490637672
 30
0.0
 11
264.45
 21
246.58490637672
 31
0.0
  0
LINE
  5
16F
330
1F
100
AcDbEntity
  8
VISIBLE
100
AcDbLine
 10
275.8333333333334
 20
246.58490637672
 30
0.0
 11
275.8333333333334
 21
249.58490637672
 31
0.0
  0
LINE
  5
170
330
1F
100
AcDbEntity
  8
VISIBLE
100
AcDbLine
 10
275.8333333333334
 20
249.58490637672
 30
0.0
 11
287.0666666666667
 21
249.58490637672
 31
0.0
  0
LINE
  5
171
330
1F
100
AcDbEntity
  8
VISIBLE
100
AcDbLine
 10
298.5
 20
246.58490637672
 30
0.0
 11
298.5
 21
249.58490637672
 31
0.0
  0
LINE
  5
172
330
1F
100
AcDbEntity
  8
VISIBLE
100
AcDbLine
 10
298.5
 20
249.58490637672
 30
0.0
 11
301.45
 21
249.58490637672
 31
0.0
  0
LINE
  5
173
330
1F
100
AcDbEntity
  8
VISIBLE
100
AcDbLine
 10
301.45
 20
249.58490637672
 30
0.0
 11
301.45
 21
243.63490637672
 31
0.0
  0
LINE
  5
174
330
1F
100
AcDbEntity
  8
VISIBLE
100
AcDbLine
 10
298.45
 20
243.63490637672
 30
0.0
 11
301.45
 21
243.63490637672
 31
0.0
  0
LINE
  5
175
330
1F
100
AcDbEntity
  8
VISIBLE
100
AcDbLine
 10
298.45
 20
228.1063349481486
 30
0.0
 11
298.45
 21
243.63490637672
 31
0.0
  0
LINE
  5
176
330
1F
100
AcDbEntity
  8
VISIBLE
100
AcDbLine
 10
298.45
 20
228.1063349481486
 30
0.0
 11
301.45
 21
228.1063349481486
 31
0.0
  0
LINE
  5
177
330
1F
100
AcDbEntity
  8
VISIBLE
100
AcDbLine
 10
298.45
 20
212.7777635195772
 30
0.0
 11
301.45
 21
212.7777635195772
 31
0.0
  0
LINE
  5
178
330
1F
100
AcDbEntity
  8
VISIBLE
100
AcDbLine
 10
298.45
 20
197.2491920910058
 30
0.0
 11
298.45
 21
212.7777635195772
 31
0.0
  0
LINE
  5
179
330
1F
100
AcDbEntity
  8
VISIBLE
100
AcDbLine
 10
298.45
 20
197.2491920910058
 30
0.0
 11
301.45
 21
197.2491920910058
 31
0.0
  0
LINE
  5
17A
330
1F
100
AcDbEntity
  8
VISIBLE
100
AcDbLine
 10
301.45
 20
197.2491920910058
 30
0.0
 11
301.45
 21
181.9206206624343
 31
0.0
  0
LINE
  5
17B
330
1F
100
AcDbEntity
  8
VISIBLE
100
AcDbLine
 10
298.45
 20
181.9206206624343
 30
0.0
 11
301.45
 21
181.9206206624343
 31
0.0
  0
LINE
  5
17C
330
1F
100
AcDbEntity
  8
VISIBLE
100
AcDbLine
 10
298.45
 20
166.3920492338629
 30
0.0
 11
298.45
 21
181.9206206624343
 31
0.0
  0
LINE
  5
17D
330
1F
100
AcDbEntity
  8
VISIBLE
100
AcDbLine
 10
298.45
 20
166.3920492338629
 30
0.0
 11
301.45
 21
166.3920492338629
 31
0.0
  0
LINE
  5
17E
330
1F
100
AcDbEntity
  8
VISIBLE
100
AcDbLine
 10
301.45
 20
166.3920492338629
 30
0.0
 11
301.45
 21
151.0634778052915
 31
0.0
  0
LINE
  5
17F
330
1F
100
AcDbEntity
  8
VISIBLE
100
AcDbLine
 10
298.45
 20
135.5349063767201
 30
0.0
 11
298.45
 21
151.0634778052915
 31
0.0
  0
LINE
  5
180
330
1F
100
AcDbEntity
  8
VISIBLE
100
AcDbLine
 10
298.45
 20
135.5349063767201
 30
0.0
 11
301.45
 21
135.5349063767201
 31
0.0
  0
LINE
  5
181
330
1F
100
AcDbEntity
  8
VISIBLE
100
AcDbLine
 10
301.45
 20
135.5349063767201
 30
0.0
 11
301.45
 21
129.5849063767201
 31
0.0
  0
LINE
  5
182
330
1F
100
AcDbEntity
  8
VISIBLE
100
AcDbLine
 10
298.5
 20
129.5849063767201
 30
0.0
 11
301.45
 21
129.5849063767201
 31
0.0
  0
LINE
  5
183
330
1F
100
AcDbEntity
  8
VISIBLE
100
AcDbLine
 10
275.8333333333334
 20
129.5849063767201
 30
0.0
 11
287.0666666666667
 21
129.5849063767201
 31
0.0
  0
LINE
  5
184
330
1F
100
AcDbEntity
  8
VISIBLE
100
AcDbLine
 10
266.95
 20
132.5849063767201
 30
0.0
 11
275.8333333333334
 21
132.5849063767201
 31
0.0
  0
LINE
  5
185
330
1F
100
AcDbEntity
  8
VISIBLE
100
AcDbLine
 10
281.5253936310261
 20
236.8457326690928
 30
0.0
 11
281.5253936310261
 21
235.6123217672112
 31
0.0
  0
LINE
  5
186
330
1F
100
AcDbEntity
  8
VISIBLE
100
AcDbLine
 10
281.6916898906491
 20
235.6123217672112
 30
0.0
 11
281.6916898906491
 21
234.8467952568112
 31
0.0
  0
SPLINE
  5
187
330
1F
100
AcDbEntity
  8
VISIBLE
100
AcDbSpline
210
0.0
220
0.0
230
1.0
 70
     8
 71
     2
 72
     6
 73
     3
 74
     0
 42
0.000000001
 43
0.00000003633145
 40
0.0
 40
0.0
 40
0.0
 40
1.0
 40
1.0
 40
1.0
 10
281.6916898906491
 20
234.8467952568112
 30
0.0
 10
281.6916898906491
 20
234.5085655762222
 30
0.0
 10
281.5253936310261
 20
234.3388870197933
 30
0.0
  0
LINE
  5
188
330
1F
100
AcDbEntity
  8
VISIBLE
100
AcDbLine
 10
280.7753936310261
 20
234.2205842866487
 30
0.0
 11
280.7753936310261
 21
232.92785944213
 31
0.0
  0
SPLINE
  5
189
330
1F
100
AcDbEntity
  8
VISIBLE
100
AcDbSpline
210
0.0
220
0.0
230
1.0
 70
     8
 71
     2
 72
     6
 73
     3
 74
     0
 42
0.000000001
 43
0.0000000362490248
 40
0.0
 40
0.0
 40
0.0
 40
1.0
 40
1.0
 40
1.0
 10
280.6014628868835
 20
234.3388870197933
 30
0.0
 10
280.4357303433949
 20
234.5085655762222
 30
0.0
 10
280.4357303433949
 20
234.8467952568112
 30
0.0
  0
SPLINE
  5
18A
330
1F
100
AcDbEntity
  8
VISIBLE
100
AcDbSpline
210
0.0
220
0.0
230
1.0
 70
     8
 71
     2
 72
     6
 73
     3
 74
     0
 42
0.000000001
 43
0.0000000346599507
 40
0.560268254139238
 40
0.560268254139238
 40
0.560268254139238
 40
1.0
 40
1.0
 40
1.0
 10
280.7753936310262
 20
209.1329617990425
 30
0.0
 10
280.6687652928277
 20
209.178600981467
 30
0.0
 10
280.5904898593787
 20
209.2600605003445
 30
0.0
  0
SPLINE
  5
18B
330
1F
100
AcDbEntity
  8
VISIBLE
100
AcDbSpline
210
0.0
220
0.0
230
1.0
 70
     8
 71
     2
 72
     6
 73
     3
 74
     0
 42
0.000000001
 43
0.0000000346794422
 40
0.0
 40
0.0
 40
0.0
 40
1.0
 40
1.0
 40
1.0
 10
280.5904898593787
 20
209.2600605003445
 30
0.0
 10
280.4124826215893
 20
209.4453087105185
 30
0.0
 10
280.4124826215893
 20
209.8242529319822
 30
0.0
  0
LINE
  5
18C
330
1F
100
AcDbEntity
  8
VISIBLE
100
AcDbLine
 10
280.4124826215893
 20
209.8242529319822
 30
0.0
 11
280.4124826215893
 21
210.5423160267938
 31
0.0
  0
SPLINE
  5
18D
330
1F
100
AcDbEntity
  8
VISIBLE
100
AcDbSpline
210
0.0
220
0.0
230
1.0
 70
     8
 71
     2
 72
     6
 73
     3
 74
     0
 42
0.000000001
 43
0.0000000318096233
 40
0.0
 40
0.0
 40
0.0
 40
1.0
 40
1.0
 40
1.0
 10
280.7627227468358
 20
154.7383437425036
 30
0.0
 10
281.4989643904439
 20
154.7383437425036
 30
0.0
 10
282.1297211202018
 20
155.2410116483004
 30
0.0
  0
LINE
  5
18E
330
1F
100
AcDbEntity
  8
VISIBLE
100
AcDbLine
 10
284.4764475941658
 20
236.8457326690928
 30
0.0
 11
281.5253936310261
 21
236.8457326690928
 31
0.0
  0
SPLINE
  5
18F
330
1F
100
AcDbEntity
  8
VISIBLE
100
AcDbSpline
210
0.0
220
0.0
230
1.0
 70
     8
 71
     2
 72
     6
 73
     3
 74
     0
 42
0.000000001
 43
0.0000000361507252
 40
0.0
 40
0.0
 40
0.0
 40
0.7356886951878462
 40
0.7356886951878462
 40
0.7356886951878462
 10
280.1938961217736
 20
233.1223876019412
 30
0.0
 10
280.4622196947637
 20
232.9685266350489
 30
0.0
 10
280.7753936310261
 20
232.92785944213
 30
0.0
  0
LINE
  5
190
330
1F
100
AcDbEntity
  8
VISIBLE
100
AcDbLine
 10
280.7753936310261
 20
211.8625866582626
 30
0.0
 11
279.3468528523142
 21
211.8625866582626
 31
0.0
  0
SPLINE
  5
191
330
1F
100
AcDbEntity
  8
VISIBLE
100
AcDbSpline
210
0.0
220
0.0
230
1.0
 70
     8
 71
     2
 72
     6
 73
     3
 74
     0
 42
0.000000001
 43
0.0000000345812702
 40
0.0
 40
0.0
 40
0.0
 40
0.6768785726437083
 40
0.6768785726437083
 40
0.6768785726437083
 10
280.1886158920304
 20
207.954271813645
 30
0.0
 10
280.4553260721252
 20
207.8027412212787
 30
0.0
 10
280.7753936310261
 20
207.7537784399852
 30
0.0
  0
LINE
  5
192
330
1F
100
AcDbEntity
  8
VISIBLE
100
AcDbLine
 10
280.7753936310261
 20
186.4491896389702
 30
0.0
 11
279.6249324835578
 21
186.4491896389702
 31
0.0
  0
SPLINE
  5
193
330
1F
100
AcDbEntity
  8
VISIBLE
100
AcDbSpline
210
0.0
220
0.0
230
1.0
 70
     8
 71
     2
 72
     6
 73
     3
 74
     0
 42
0.000000001
 43
0.0000000331342269
 40
0.0
 40
0.0
 40
0.0
 40
0.5401821053911219
 40
0.5401821053911219
 40
0.5401821053911219
 10
280.3748495199071
 20
182.8831694625217
 30
0.0
 10
280.5635423716176
 20
182.774970006595
 30
0.0
 10
280.7753936310261
 20
182.725217960573
 30
0.0
  0
LINE
  5
194
330
1F
100
AcDbEntity
  8
VISIBLE
100
AcDbLine
 10
280.7753936310261
 20
162.2611403027038
 30
0.0
 11
279.5496462375577
 21
162.2611403027038
 31
0.0
  0
SPLINE
  5
195
330
1F
100
AcDbEntity
  8
VISIBLE
100
AcDbSpline
210
0.0
220
0.0
230
1.0
 70
     8
 71
     2
 72
     6
 73
     3
 74
     0
 42
0.000000001
 43
0.0000000318670739
 40
0.0
 40
0.0
 40
0.0
 40
0.6191161939060056
 40
0.6191161939060056
 40
0.6191161939060056
 10
280.300418966237
 20
158.7752944506208
 30
0.0
 10
280.5179992937905
 20
158.6516768372634
 30
0.0
 10
280.775393631027
 20
158.6045928901876
 30
0.0
  0
LINE
  5
196
330
1F
100
AcDbEntity
  8
VISIBLE
100
AcDbLine
 10
298.45
 20
151.0634778052915
 30
0.0
 11
301.45
 21
151.0634778052915
 31
0.0
  0
LINE
  5
197
330
1F
100
AcDbEntity
  8
VISIBLE
100
AcDbLine
 10
301.45
 20
228.1063349481486
 30
0.0
 11
301.45
 21
212.7777635195772
 31
0.0
  0
SPLINE
  5
198
330
1F
100
AcDbEntity
  8
VISIBLE
100
AcDbSpline
210
0.0
220
0.0
230
1.0
 70
     8
 71
     2
 72
     6
 73
     3
 74
     0
 42
0.000000001
 43
0.000000032039074
 40
0.0
 40
0.0
 40
0.0
 40
1.0
 40
1.0
 40
1.0
 10
281.8746198489516
 20
158.7688361905891
 30
0.0
 10
282.2222895139887
 20
158.9620458032027
 30
0.0
 10
282.4359502833692
 20
159.361381548493
 30
0.0
  0
SPLINE
  5
199
330
1F
100
AcDbEntity
  8
VISIBLE
100
AcDbSpline
210
0.0
220
0.0
230
1.0
 70
     8
 71
     2
 72
     6
 73
     3
 74
     0
 42
0.000000001
 43
0.0000000321068548
 40
0.0
 40
0.0
 40
0.0
 40
1.0
 40
1.0
 40
1.0
 10
282.4359502833692
 20
159.361381548493
 30
0.0
 10
282.6496110527496
 20
159.7607172937834
 30
0.0
 10
282.6496110527496
 20
160.3527244633513
 30
0.0
  0
SPLINE
  5
19A
330
1F
100
AcDbEntity
  8
VISIBLE
100
AcDbSpline
210
0.0
220
0.0
230
1.0
 70
     8
 71
     2
 72
     6
 73
     3
 74
     0
 42
0.000000001
 43
0.0000000347247452
 40
0.0
 40
0.0
 40
0.0
 40
0.18093861204004
 40
0.18093861204004
 40
0.18093861204004
 10
281.5945713633844
 20
209.2600605003445
 30
0.0
 10
281.5623629808456
 20
209.2265419463126
 30
0.0
 10
281.5253936310261
 20
209.1990881929249
 30
0.0
  0
LINE
  5
19B
330
1F
100
AcDbEntity
  8
VISIBLE
100
AcDbLine
 10
280.4124826215893
 20
210.5423160267938
 30
0.0
 11
280.7753936310261
 21
210.5423160267938
 31
0.0
  0
LINE
  5
19C
330
1F
100
AcDbEntity
  8
VISIBLE
100
AcDbLine
 10
284.3858066245914
 20
161.0835842235996
 30
0.0
 11
284.3858066245914
 21
162.2611403027038
 31
0.0
  0
LINE
  5
19D
330
1F
100
AcDbEntity
  8
VISIBLE
100
AcDbLine
 10
284.3858066245914
 20
162.2611403027038
 30
0.0
 11
281.5253936310261
 21
162.2611403027038
 31
0.0
  0
LINE
  5
19E
330
1F
100
AcDbEntity
  8
VISIBLE
100
AcDbLine
 10
281.5253936310261
 20
234.3388870197933
 30
0.0
 11
281.5253936310261
 21
232.9982455019834
 31
0.0
  0
LINE
  5
19F
330
1F
100
AcDbEntity
  8
VISIBLE
100
AcDbLine
 10
280.7753936310261
 20
236.8457326690928
 30
0.0
 11
280.7753936310261
 21
235.6123217672112
 31
0.0
  0
SPLINE
  5
1A0
330
1F
100
AcDbEntity
  8
VISIBLE
100
AcDbSpline
210
0.0
220
0.0
230
1.0
 70
     8
 71
     2
 72
     6
 73
     3
 74
     0
 42
0.000000001
 43
0.0000000318561967
 40
0.0
 40
0.0
 40
0.0
 40
1.0
 40
1.0
 40
1.0
 10
279.7493141102028
 20
159.3748362568923
 30
0.0
 10
279.948981982848
 20
158.974962323266
 30
0.0
 10
280.300418966237
 20
158.7752944506208
 30
0.0
  0
SPLINE
  5
1A1
330
1F
100
AcDbEntity
  8
VISIBLE
100
AcDbSpline
210
0.0
220
0.0
230
1.0
 70
     8
 71
     2
 72
     6
 73
     3
 74
     0
 42
0.000000001
 43
0.000000031961315
 40
0.5215075571784168
 40
0.5215075571784168
 40
0.5215075571784168
 40
1.0
 40
1.0
 40
1.0
 10
281.5253936310261
 20
158.6281738218593
 30
0.0
 10
281.708262541633
 20
158.6763868510731
 30
0.0
 10
281.8746198489516
 20
158.7688361905891
 30
0.0
  0
LINE
  5
1A2
330
1F
100
AcDbEntity
  8
VISIBLE
100
AcDbLine
 10
281.5253936310261
 20
235.6123217672112
 30
0.0
 11
281.6916898906491
 21
235.6123217672112
 31
0.0
  0
LINE
  5
1A3
330
1F
100
AcDbEntity
  8
VISIBLE
100
AcDbLine
 10
280.4357303433949
 20
234.8467952568112
 30
0.0
 11
280.4357303433949
 21
235.6123217672112
 31
0.0
  0
LINE
  5
1A4
330
1F
100
AcDbEntity
  8
VISIBLE
100
AcDbLine
 10
287.45
 20
221.5849063767201
 30
0.0
 11
291.45
 21
221.5849063767201
 31
0.0
  0
ARC
  5
1A5
330
1F
100
AcDbEntity
  8
VISIBLE
100
AcDbCircle
 10
291.45
 20
239.5849063767201
 30
0.0
 40
1.999999999999995
100
AcDbArc
 50
359.9999999999992
 51
90.0
  0
LINE
  5
1A6
330
1F
100
AcDbEntity
  8
VISIBLE
100
AcDbLine
 10
280.4357303433949
 20
235.6123217672112
 30
0.0
 11
280.7753936310261
 21
235.6123217672112
 31
0.0
  0
SPLINE
  5
1A7
330
1F
100
AcDbEntity
  8
VISIBLE
100
AcDbSpline
210
0.0
220
0.0
230
1.0
 70
     8
 71
     2
 72
     6
 73
     3
 74
     0
 42
0.000000001
 43
0.0000000362292919
 40
0.5502574317885784
 40
0.5502574317885784
 40
0.5502574317885784
 40
1.0
 40
1.0
 40
1.0
 10
280.7753936310261
 20
234.2205842866487
 30
0.0
 10
280.6759998666283
 20
234.2625753500546
 30
0.0
 10
280.6014628868835
 20
234.3388870197933
 30
0.0
  0
LINE
  5
1A8
330
1F
100
AcDbEntity
  8
VISIBLE
100
AcDbLine
 10
285.45
 20
239.58490637672
 30
0.0
 11
285.45
 21
223.5849063767201
 31
0.0
  0
ARC
  5
1A9
330
1F
100
AcDbEntity
  8
VISIBLE
100
AcDbCircle
 10
287.45
 20
223.5849063767201
 30
0.0
 40
2.000000000000008
100
AcDbArc
 50
180.0
 51
270.0
  0
LINE
  5
1AA
330
1F
100
AcDbEntity
  8
VISIBLE
100
AcDbLine
 10
284.7691343396903
 20
205.173135003572
 30
0.0
 11
284.7691343396903
 21
206.5489197566565
 31
0.0
  0
LINE
  5
1AB
330
1F
100
AcDbEntity
  8
VISIBLE
100
AcDbLine
 10
284.7691343396903
 20
206.5489197566565
 30
0.0
 11
280.3593821574352
 21
206.5489197566565
 31
0.0
  0
LINE
  5
1AC
330
1F
100
AcDbEntity
  8
VISIBLE
100
AcDbLine
 10
264.45
 20
135.0420537008053
 30
0.0
 11
262.95
 21
135.0420537008053
 31
0.0
  0
LINE
  5
1AD
330
1F
100
AcDbEntity
  8
VISIBLE
100
AcDbLine
 10
266.95
 20
131.0420537008053
 30
0.0
 11
266.95
 21
132.5849063767201
 31
0.0
  0
SPLINE
  5
1AE
330
1F
100
AcDbEntity
  8
VISIBLE
100
AcDbSpline
210
0.0
220
0.0
230
1.0
 70
     8
 71
     2
 72
     6
 73
     3
 74
     0
 42
0.000000001
 43
0.0000000332935342
 40
0.0
 40
0.0
 40
0.0
 40
1.0
 40
1.0
 40
1.0
 10
283.3567010618488
 20
181.8881391543923
 30
0.0
 10
282.7973676927647
 20
181.2111082230878
 30
0.0
 10
282.4377962412107
 20
180.8207626382926
 30
0.0
  0
SPLINE
  5
1AF
330
1F
100
AcDbEntity
  8
VISIBLE
100
AcDbSpline
210
0.0
220
0.0
230
1.0
 70
     8
 71
     2
 72
     6
 73
     3
 74
     0
 42
0.000000001
 43
0.0000000331589117
 40
0.0
 40
0.0
 40
0.0
 40
1.0
 40
1.0
 40
1.0
 10
282.4377962412107
 20
180.8207626382926
 30
0.0
 10
282.0782247896566
 20
180.4304170534975
 30
0.0
 10
281.684639822415
 20
180.1604685162947
 30
0.0
  0
LINE
  5
1B0
330
1F
100
AcDbEntity
  8
VISIBLE
100
AcDbLine
 10
287.0666666666667
 20
132.5849063767201
 30
0.0
 11
298.5
 21
132.5849063767201
 31
0.0
  0
LINE
  5
1B1
330
1F
100
AcDbEntity
  8
VISIBLE
100
AcDbLine
 10
287.0666666666667
 20
132.5849063767201
 30
0.0
 11
287.0666666666667
 21
129.5849063767201
 31
0.0
  0
SPLINE
  5
1B2
330
1F
100
AcDbEntity
  8
VISIBLE
100
AcDbSpline
210
0.0
220
0.0
230
1.0
 70
     8
 71
     2
 72
     6
 73
     3
 74
     0
 42
0.000000001
 43
0.0000000329737987
 40
0.0
 40
0.0
 40
0.0
 40
1.0
 40
1.0
 40
1.0
 10
280.4752703757465
 20
180.0222548652469
 30
0.0
 10
280.3160007387969
 20
180.1539897514018
 30
0.0
 10
280.3160007387969
 20
180.4163797295629
 30
0.0
  0
SPLINE
  5
1B3
330
1F
100
AcDbEntity
  8
VISIBLE
100
AcDbSpline
210
0.0
220
0.0
230
1.0
 70
     8
 71
     2
 72
     6
 73
     3
 74
     0
 42
0.000000001
 43
0.0000000329994319
 40
0.0
 40
0.0
 40
0.0
 40
1.0
 40
1.0
 40
1.0
 10
280.3160007387969
 20
180.4163797295629
 30
0.0
 10
280.3160007387969
 20
180.678769707724
 30
0.0
 10
280.513063170955
 20
180.8272414031855
 30
0.0
  0
LINE
  5
1B4
330
1F
100
AcDbEntity
  8
VISIBLE
100
AcDbLine
 10
298.5
 20
246.58490637672
 30
0.0
 11
287.0666666666667
 21
246.58490637672
 31
0.0
  0
LINE
  5
1B5
330
1F
100
AcDbEntity
  8
VISIBLE
100
AcDbLine
 10
293.45
 20
164.58490637672
 30
0.0
 11
293.45
 21
148.58490637672
 31
0.0
  0
SPLINE
  5
1B6
330
1F
100
AcDbEntity
  8
VISIBLE
100
AcDbSpline
210
0.0
220
0.0
230
1.0
 70
     8
 71
     2
 72
     6
 73
     3
 74
     0
 42
0.000000001
 43
0.0000000331163158
 40
0.0
 40
0.0
 40
0.0
 40
1.0
 40
1.0
 40
1.0
 10
281.069697054667
 20
182.1159757197915
 30
0.0
 10
280.4822890377138
 20
182.1019383958569
 30
0.0
 10
280.0881641733978
 20
181.8638437860441
 30
0.0
  0
SPLINE
  5
1B7
330
1F
100
AcDbEntity
  8
VISIBLE
100
AcDbSpline
210
0.0
220
0.0
230
1.0
 70
     8
 71
     2
 72
     6
 73
     3
 74
     0
 42
0.000000001
 43
0.0000000330211718
 40
0.0
 40
0.0
 40
0.0
 40
1.0
 40
1.0
 40
1.0
 10
280.0881641733978
 20
181.8638437860441
 30
0.0
 10
279.6940393090817
 20
181.6257491762313
 30
0.0
 10
279.5077748184119
 20
181.2354035914361
 30
0.0
  0
ARC
  5
1B8
330
1F
100
AcDbEntity
  8
VISIBLE
100
AcDbCircle
 10
287.45
 20
148.58490637672
 30
0.0
 40
2.000000000000011
100
AcDbArc
 50
180.0
 51
270.0
  0
LINE
  5
1B9
330
1F
100
AcDbEntity
  8
VISIBLE
100
AcDbLine
 10
287.45
 20
146.58490637672
 30
0.0
 11
291.45
 21
146.58490637672
 31
0.0
  0
SPLINE
  5
1BA
330
1F
100
AcDbEntity
  8
VISIBLE
100
AcDbSpline
210
0.0
220
0.0
230
1.0
 70
     8
 71
     2
 72
     6
 73
     3
 74
     0
 42
0.000000001
 43
0.0000000329339328
 40
0.0
 40
0.0
 40
0.0
 40
1.0
 40
1.0
 40
1.0
 10
279.7426300457782
 20
179.1271055158825
 30
0.0
 10
280.1637497638146
 20
178.7092251802927
 30
0.0
 10
280.8418604892679
 20
178.7092251802927
 30
0.0
  0
SPLINE
  5
1BB
330
1F
100
AcDbEntity
  8
VISIBLE
100
AcDbSpline
210
0.0
220
0.0
230
1.0
 70
     8
 71
     2
 72
     6
 73
     3
 74
     0
 42
0.000000001
 43
0.0000000330528206
 40
0.0
 40
0.0
 40
0.0
 40
1.0
 40
1.0
 40
1.0
 10
280.8418604892679
 20
178.7092251802927
 30
0.0
 10
281.5804396870546
 20
178.7092251802927
 30
0.0
 10
282.2131990582579
 20
179.2134890477874
 30
0.0
  0
LINE
  5
1BC
330
1F
100
AcDbEntity
  8
VISIBLE
100
AcDbLine
 10
279.2090840351251
 20
230.3945652279902
 30
0.0
 11
284.4764475941658
 21
230.3945652279902
 31
0.0
  0
LINE
  5
1BD
330
1F
100
AcDbEntity
  8
VISIBLE
100
AcDbLine
 10
284.4764475941658
 20
230.3945652279902
 30
0.0
 11
284.4764475941658
 21
231.6798380142287
 31
0.0
  0
LINE
  5
1BE
330
1F
100
AcDbEntity
  8
VISIBLE
100
AcDbLine
 10
284.4764475941658
 20
231.6798380142287
 30
0.0
 11
280.3568100845907
 21
231.6798380142287
 31
0.0
  0
LINE
  5
1BF
330
1F
100
AcDbEntity
  8
VISIBLE
100
AcDbLine
 10
280.3568100845907
 20
231.6798380142287
 30
0.0
 11
280.3568100845907
 21
232.3935026402717
 31
0.0
  0
LINE
  5
1C0
330
1F
100
AcDbEntity
  8
VISIBLE
100
AcDbLine
 10
280.3568100845907
 20
232.3935026402717
 30
0.0
 11
279.2090840351251
 21
232.3935026402717
 31
0.0
  0
SPLINE
  5
1C1
330
1F
100
AcDbEntity
  8
VISIBLE
100
AcDbSpline
210
0.0
220
0.0
230
1.0
 70
     8
 71
     2
 72
     6
 73
     3
 74
     0
 42
0.000000001
 43
0.0000000347640563
 40
0.0
 40
0.0
 40
0.0
 40
1.0
 40
1.0
 40
1.0
 10
281.9536029107901
 20
207.9470308412603
 30
0.0
 10
282.3434085908308
 20
208.1636565984346
 30
0.0
 10
282.5829640938898
 20
208.6113900575524
 30
0.0
  0
SPLINE
  5
1C2
330
1F
100
AcDbEntity
  8
VISIBLE
100
AcDbSpline
210
0.0
220
0.0
230
1.0
 70
     8
 71
     2
 72
     6
 73
     3
 74
     0
 42
0.000000001
 43
0.0000000348498397
 40
0.0
 40
0.0
 40
0.0
 40
1.0
 40
1.0
 40
1.0
 10
282.5829640938898
 20
208.6113900575524
 30
0.0
 10
282.8225195969487
 20
209.0591235166703
 30
0.0
 10
282.8225195969487
 20
209.722879318597
 30
0.0
  0
LINE
  5
1C3
330
1F
100
AcDbEntity
  8
VISIBLE
100
AcDbLine
 10
282.8225195969487
 20
209.722879318597
 30
0.0
 11
282.8225195969487
 21
210.5423160267938
 31
0.0
  0
LINE
  5
1C4
330
1F
100
AcDbEntity
  8
VISIBLE
100
AcDbLine
 10
282.8225195969487
 20
210.5423160267938
 30
0.0
 11
284.7691343396903
 21
210.5423160267938
 31
0.0
  0
LINE
  5
1C5
330
1F
100
AcDbEntity
  8
VISIBLE
100
AcDbLine
 10
284.7691343396903
 20
210.5423160267938
 30
0.0
 11
284.7691343396903
 21
211.8625866582626
 31
0.0
  0
LINE
  5
1C6
330
1F
100
AcDbEntity
  8
VISIBLE
100
AcDbLine
 10
284.7691343396903
 20
211.8625866582626
 30
0.0
 11
281.5253936310261
 21
211.8625866582626
 31
0.0
  0
LINE
  5
1C7
330
1F
100
AcDbEntity
  8
VISIBLE
100
AcDbLine
 10
279.3468528523142
 20
211.8625866582626
 30
0.0
 11
279.3468528523142
 21
209.722879318597
 31
0.0
  0
SPLINE
  5
1C8
330
1F
100
AcDbEntity
  8
VISIBLE
100
AcDbSpline
210
0.0
220
0.0
230
1.0
 70
     8
 71
     2
 72
     6
 73
     3
 74
     0
 42
0.000000001
 43
0.0000000345928359
 40
0.0
 40
0.0
 40
0.0
 40
1.0
 40
1.0
 40
1.0
 10
279.3468528523142
 20
209.722879318597
 30
0.0
 10
279.3468528523142
 20
209.0748122901704
 30
0.0
 10
279.5707195818732
 20
208.6264754166871
 30
0.0
  0
SPLINE
  5
1C9
330
1F
100
AcDbEntity
  8
VISIBLE
100
AcDbSpline
210
0.0
220
0.0
230
1.0
 70
     8
 71
     2
 72
     6
 73
     3
 74
     0
 42
0.000000001
 43
0.0000000345753157
 40
0.0
 40
0.0
 40
0.0
 40
1.0
 40
1.0
 40
1.0
 10
279.5707195818732
 20
208.6264754166871
 30
0.0
 10
279.7945863114321
 20
208.1781385432039
 30
0.0
 10
280.1886158920304
 20
207.954271813645
 30
0.0
  0
SPLINE
  5
1CA
330
1F
100
AcDbEntity
  8
VISIBLE
100
AcDbSpline
210
0.0
220
0.0
230
1.0
 70
     8
 71
     2
 72
     6
 73
     3
 74
     0
 42
0.000000001
 43
0.000000034674263
 40
0.4789030948366911
 40
0.4789030948366911
 40
0.4789030948366911
 40
1.0
 40
1.0
 40
1.0
 10
281.525393631026
 20
207.7800878059882
 30
0.0
 10
281.750476377306
 20
207.8341478296181
 30
0.0
 10
281.9536029107901
 20
207.9470308412603
 30
0.0
  0
LINE
  5
1CB
330
1F
100
AcDbEntity
  8
VISIBLE
100
AcDbLine
 10
282.6451167177823
 20
184.9839089790336
 30
0.0
 11
282.6451167177823
 21
185.2678948401709
 31
0.0
  0
LINE
  5
1CC
330
1F
100
AcDbEntity
  8
VISIBLE
100
AcDbLine
 10
282.6451167177823
 20
185.2678948401709
 30
0.0
 11
284.4764475941658
 21
185.2678948401709
 31
0.0
  0
LINE
  5
1CD
330
1F
100
AcDbEntity
  8
VISIBLE
100
AcDbLine
 10
284.4764475941658
 20
185.2678948401709
 30
0.0
 11
284.4764475941658
 21
186.4491896389702
 31
0.0
  0
LINE
  5
1CE
330
1F
100
AcDbEntity
  8
VISIBLE
100
AcDbLine
 10
284.4764475941658
 20
186.4491896389702
 30
0.0
 11
281.5253936310261
 21
186.4491896389702
 31
0.0
  0
LINE
  5
1CF
330
1F
100
AcDbEntity
  8
VISIBLE
100
AcDbLine
 10
279.6249324835578
 20
186.4491896389702
 30
0.0
 11
279.6249324835578
 21
184.4656077876043
 31
0.0
  0
SPLINE
  5
1D0
330
1F
100
AcDbEntity
  8
VISIBLE
100
AcDbSpline
210
0.0
220
0.0
230
1.0
 70
     8
 71
     2
 72
     6
 73
     3
 74
     0
 42
0.000000001
 43
0.0000000331435104
 40
0.0
 40
0.0
 40
0.0
 40
1.0
 40
1.0
 40
1.0
 10
279.6249324835578
 20
184.4656077876043
 30
0.0
 10
279.6249324835578
 20
183.8922370945856
 30
0.0
 10
279.8252342981623
 20
183.4878541858559
 30
0.0
  0
SPLINE
  5
1D1
330
1F
100
AcDbEntity
  8
VISIBLE
100
AcDbSpline
210
0.0
220
0.0
230
1.0
 70
     8
 71
     2
 72
     6
 73
     3
 74
     0
 42
0.000000001
 43
0.0000000331345595
 40
0.0
 40
0.0
 40
0.0
 40
1.0
 40
1.0
 40
1.0
 10
279.8252342981623
 20
183.4878541858559
 30
0.0
 10
280.0255361127668
 20
183.0834712771262
 30
0.0
 10
280.3748495199071
 20
182.8831694625217
 30
0.0
  0
SPLINE
  5
1D2
330
1F
100
AcDbEntity
  8
VISIBLE
100
AcDbSpline
210
0.0
220
0.0
230
1.0
 70
     8
 71
     2
 72
     6
 73
     3
 74
     0
 42
0.000000001
 43
0.0000000332409565
 40
0.4024197694071275
 40
0.4024197694071275
 40
0.4024197694071275
 40
1.0
 40
1.0
 40
1.0
 10
281.525393631026
 20
182.7271081560703
 30
0.0
 10
281.7895437231476
 20
182.7928038675473
 30
0.0
 10
282.0166765231743
 20
182.9560555675665
 30
0.0
  0
SPLINE
  5
1D3
330
1F
100
AcDbEntity
  8
VISIBLE
100
AcDbSpline
210
0.0
220
0.0
230
1.0
 70
     8
 71
     2
 72
     6
 73
     3
 74
     0
 42
0.000000001
 43
0.0000000333299288
 40
0.0
 40
0.0
 40
0.0
 40
1.0
 40
1.0
 40
1.0
 10
282.0166765231743
 20
182.9560555675665
 30
0.0
 10
282.3967640635558
 20
183.2292434872157
 30
0.0
 10
282.5554938034311
 20
183.7615820025795
 30
0.0
  0
LINE
  5
1D4
330
1F
100
AcDbEntity
  8
VISIBLE
100
AcDbLine
 10
282.5554938034311
 20
183.7615820025795
 30
0.0
 11
284.4764475941658
 21
182.6418354702624
 31
0.0
  0
SPLINE
  5
1D5
330
1F
100
AcDbEntity
  8
VISIBLE
100
AcDbSpline
210
0.0
220
0.0
230
1.0
 70
     8
 71
     2
 72
     6
 73
     3
 74
     0
 42
0.000000001
 43
0.0000000320642755
 40
0.0
 40
0.0
 40
0.0
 40
1.0
 40
1.0
 40
1.0
 10
283.4418242832986
 20
158.1203192457443
 30
0.0
 10
283.2556111190527
 20
157.886745507933
 30
0.0
 10
283.269604015788
 20
157.9071966646999
 30
0.0
  0
LINE
  5
1D6
330
1F
100
AcDbEntity
  8
VISIBLE
100
AcDbLine
 10
282.5643224665689
 20
235.3158070805615
 30
0.0
 11
282.5643224665689
 21
235.6123217672112
 31
0.0
  0
LINE
  5
1D7
330
1F
100
AcDbEntity
  8
VISIBLE
100
AcDbLine
 10
282.5643224665689
 20
235.6123217672112
 30
0.0
 11
284.4764475941658
 21
235.6123217672112
 31
0.0
  0
LINE
  5
1D8
330
1F
100
AcDbEntity
  8
VISIBLE
100
AcDbLine
 10
284.4764475941658
 20
235.6123217672112
 30
0.0
 11
284.4764475941658
 21
236.8457326690928
 31
0.0
  0
LINE
  5
1D9
330
1F
100
AcDbEntity
  8
VISIBLE
100
AcDbLine
 10
280.7753936310261
 20
236.8457326690928
 30
0.0
 11
279.4108944112099
 21
236.8457326690928
 31
0.0
  0
LINE
  5
1DA
330
1F
100
AcDbEntity
  8
VISIBLE
100
AcDbLine
 10
279.4108944112099
 20
236.8457326690928
 30
0.0
 11
279.4108944112099
 21
234.7746395916189
 31
0.0
  0
SPLINE
  5
1DB
330
1F
100
AcDbEntity
  8
VISIBLE
100
AcDbSpline
210
0.0
220
0.0
230
1.0
 70
     8
 71
     2
 72
     6
 73
     3
 74
     0
 42
0.000000001
 43
0.0000000361702616
 40
0.0
 40
0.0
 40
0.0
 40
1.0
 40
1.0
 40
1.0
 10
279.4108944112099
 20
234.7746395916189
 30
0.0
 10
279.4108944112099
 20
234.1759730569762
 30
0.0
 10
279.6200330970408
 20
233.7537496723742
 30
0.0
  0
SPLINE
  5
1DC
330
1F
100
AcDbEntity
  8
VISIBLE
100
AcDbSpline
210
0.0
220
0.0
230
1.0
 70
     8
 71
     2
 72
     6
 73
     3
 74
     0
 42
0.000000001
 43
0.0000000361474678
 40
0.0
 40
0.0
 40
0.0
 40
1.0
 40
1.0
 40
1.0
 10
279.6200330970408
 20
233.7537496723742
 30
0.0
 10
279.8291717828718
 20
233.3315262877721
 30
0.0
 10
280.1938961217736
 20
233.1223876019412
 30
0.0
  0
SPLINE
  5
1DD
330
1F
100
AcDbEntity
  8
VISIBLE
100
AcDbSpline
210
0.0
220
0.0
230
1.0
 70
     8
 71
     2
 72
     6
 73
     3
 74
     0
 42
0.000000001
 43
0.0000000362415522
 40
0.545877570173387
 40
0.545877570173387
 40
0.545877570173387
 40
1.0
 40
1.0
 40
1.0
 10
281.5253936310261
 20
232.9982455019834
 30
0.0
 10
281.7279356032101
 20
233.068955232906
 30
0.0
 10
281.908156886226
 20
233.1984892800738
 30
0.0
  0
SPLINE
  5
1DE
330
1F
100
AcDbEntity
  8
VISIBLE
100
AcDbSpline
210
0.0
220
0.0
230
1.0
 70
     8
 71
     2
 72
     6
 73
     3
 74
     0
 42
0.000000001
 43
0.000000036338392
 40
0.0
 40
0.0
 40
0.0
 40
1.0
 40
1.0
 40
1.0
 10
281.908156886226
 20
233.1984892800738
 30
0.0
 10
282.3050130447839
 20
233.4837296440372
 30
0.0
 10
282.4707455882726
 20
234.0395537524719
 30
0.0
  0
LINE
  5
1DF
330
1F
100
AcDbEntity
  8
VISIBLE
100
AcDbLine
 10
282.4707455882726
 20
234.0395537524719
 30
0.0
 11
284.4764475941658
 21
232.8704064899023
 31
0.0
  0
LINE
  5
1E0
330
1F
100
AcDbEntity
  8
VISIBLE
100
AcDbLine
 10
284.4764475941658
 20
232.8704064899023
 30
0.0
 11
284.4764475941658
 21
234.2627853416607
 31
0.0
  0
LINE
  5
1E1
330
1F
100
AcDbEntity
  8
VISIBLE
100
AcDbLine
 10
284.4764475941658
 20
234.2627853416607
 30
0.0
 11
282.5643224665689
 21
235.3158070805615
 31
0.0
  0
ARC
  5
1E2
330
1F
100
AcDbEntity
  8
VISIBLE
100
AcDbCircle
 10
291.45
 20
214.58490637672
 30
0.0
 40
1.999999999999995
100
AcDbArc
 50
0.0
 51
90.0
  0
LINE
  5
1E3
330
1F
100
AcDbEntity
  8
VISIBLE
100
AcDbLine
 10
287.45
 20
216.58490637672
 30
0.0
 11
291.45
 21
216.58490637672
 31
0.0
  0
LINE
  5
1E4
330
1F
100
AcDbEntity
  8
VISIBLE
100
AcDbLine
 10
293.45
 20
214.58490637672
 30
0.0
 11
293.45
 21
198.58490637672
 31
0.0
  0
ARC
  5
1E5
330
1F
100
AcDbEntity
  8
VISIBLE
100
AcDbCircle
 10
287.45
 20
214.58490637672
 30
0.0
 40
2.000000000000001
100
AcDbArc
 50
90.0
 51
180.0
  0
LINE
  5
1E6
330
1F
100
AcDbEntity
  8
VISIBLE
100
AcDbLine
 10
285.45
 20
214.58490637672
 30
0.0
 11
285.45
 21
198.58490637672
 31
0.0
  0
ARC
  5
1E7
330
1F
100
AcDbEntity
  8
VISIBLE
100
AcDbCircle
 10
287.45
 20
198.58490637672
 30
0.0
 40
2.000000000000008
100
AcDbArc
 50
180.0
 51
270.0
  0
LINE
  5
1E8
330
1F
100
AcDbEntity
  8
VISIBLE
100
AcDbLine
 10
287.45
 20
196.58490637672
 30
0.0
 11
291.45
 21
196.58490637672
 31
0.0
  0
ARC
  5
1E9
330
1F
100
AcDbEntity
  8
VISIBLE
100
AcDbCircle
 10
291.45
 20
198.58490637672
 30
0.0
 40
2.000000000000005
100
AcDbArc
 50
270.0
 51
0.0
  0
ARC
  5
1EA
330
1F
100
AcDbEntity
  8
VISIBLE
100
AcDbCircle
 10
291.45
 20
189.5849063767201
 30
0.0
 40
1.999999999999994
100
AcDbArc
 50
0.0
 51
90.0
  0
LINE
  5
1EB
330
1F
100
AcDbEntity
  8
VISIBLE
100
AcDbLine
 10
287.45
 20
191.5849063767201
 30
0.0
 11
291.45
 21
191.5849063767201
 31
0.0
  0
LINE
  5
1EC
330
1F
100
AcDbEntity
  8
VISIBLE
100
AcDbLine
 10
293.45
 20
189.5849063767201
 30
0.0
 11
293.45
 21
173.58490637672
 31
0.0
  0
ARC
  5
1ED
330
1F
100
AcDbEntity
  8
VISIBLE
100
AcDbCircle
 10
287.45
 20
189.5849063767201
 30
0.0
 40
2.0
100
AcDbArc
 50
90.0
 51
180.0
  0
LINE
  5
1EE
330
1F
100
AcDbEntity
  8
VISIBLE
100
AcDbLine
 10
285.45
 20
189.5849063767201
 30
0.0
 11
285.45
 21
173.58490637672
 31
0.0
  0
ARC
  5
1EF
330
1F
100
AcDbEntity
  8
VISIBLE
100
AcDbCircle
 10
287.45
 20
173.5849063767201
 30
0.0
 40
2.000000000000008
100
AcDbArc
 50
180.0
 51
270.0
  0
LINE
  5
1F0
330
1F
100
AcDbEntity
  8
VISIBLE
100
AcDbLine
 10
287.45
 20
171.58490637672
 30
0.0
 11
291.45
 21
171.58490637672
 31
0.0
  0
ARC
  5
1F1
330
1F
100
AcDbEntity
  8
VISIBLE
100
AcDbCircle
 10
291.45
 20
173.5849063767201
 30
0.0
 40
2.000000000000006
100
AcDbArc
 50
270.0
 51
359.9999999999992
  0
ARC
  5
1F2
330
1F
100
AcDbEntity
  8
VISIBLE
100
AcDbCircle
 10
291.45
 20
164.58490637672
 30
0.0
 40
1.999999999999995
100
AcDbArc
 50
0.0
 51
90.0
  0
LINE
  5
1F3
330
1F
100
AcDbEntity
  8
VISIBLE
100
AcDbLine
 10
287.45
 20
166.58490637672
 30
0.0
 11
291.45
 21
166.58490637672
 31
0.0
  0
ARC
  5
1F4
330
1F
100
AcDbEntity
  8
VISIBLE
100
AcDbCircle
 10
287.45
 20
164.58490637672
 30
0.0
 40
1.999999999999998
100
AcDbArc
 50
90.0
 51
180.0
  0
LINE
  5
1F5
330
1F
100
AcDbEntity
  8
VISIBLE
100
AcDbLine
 10
280.7753936310261
 20
159.850251047438
 30
0.0
 11
280.7753936310261
 21
158.6045928901877
 31
0.0
  0
LINE
  5
1F6
330
1F
100
AcDbEntity
  8
VISIBLE
100
AcDbLine
 10
281.5253936310261
 20
159.9120836514113
 30
0.0
 11
281.5253936310261
 21
158.6281738218593
 31
0.0
  0
ARC
  5
1F7
330
1F
100
AcDbEntity
  8
VISIBLE
100
AcDbCircle
 10
291.45
 20
148.58490637672
 30
0.0
 40
2.000000000000001
100
AcDbArc
 50
270.0
 51
0.0
  0
LINE
  5
1F8
330
1F
100
AcDbEntity
  8
VISIBLE
100
AcDbLine
 10
279.2090840351251
 20
232.3935026402717
 30
0.0
 11
279.2090840351251
 21
230.3945652279902
 31
0.0
  0
SPLINE
  5
1F9
330
1F
100
AcDbEntity
  8
VISIBLE
100
AcDbSpline
210
0.0
220
0.0
230
1.0
 70
     8
 71
     2
 72
     6
 73
     3
 74
     0
 42
0.000000001
 43
0.0000000320309565
 40
0.0
 40
0.0
 40
0.0
 40
1.0
 40
1.0
 40
1.0
 10
281.7131633481604
 20
160.4431401037943
 30
0.0
 10
281.7131633481604
 20
160.1051578288047
 30
0.0
 10
281.5543977890489
 20
159.9399340096616
 30
0.0
  0
LINE
  5
1FA
330
1F
100
AcDbEntity
  8
VISIBLE
100
AcDbLine
 10
281.7131633481604
 20
161.0835842235996
 30
0.0
 11
281.7131633481604
 21
160.4431401037943
 31
0.0
  0
LINE
  5
1FB
330
1F
100
AcDbEntity
  8
VISIBLE
100
AcDbLine
 10
281.5253936310261
 20
161.0835842235996
 30
0.0
 11
281.7131633481604
 21
161.0835842235996
 31
0.0
  0
LINE
  5
1FC
330
1F
100
AcDbEntity
  8
VISIBLE
100
AcDbLine
 10
280.5000868388821
 20
160.4431401037943
 30
0.0
 11
280.5000868388821
 21
161.0835842235996
 31
0.0
  0
SPLINE
  5
1FD
330
1F
100
AcDbEntity
  8
VISIBLE
100
AcDbSpline
210
0.0
220
0.0
230
1.0
 70
     8
 71
     2
 72
     6
 73
     3
 74
     0
 42
0.000000001
 43
0.0000000319405066
 40
0.0
 40
0.0
 40
0.0
 40
1.0
 40
1.0
 40
1.0
 10
280.6588523979935
 20
159.9399340096616
 30
0.0
 10
280.5000868388821
 20
160.1051578288047
 30
0.0
 10
280.5000868388821
 20
160.4431401037943
 30
0.0
  0
SPLINE
  5
1FE
330
1F
100
AcDbEntity
  8
VISIBLE
100
AcDbSpline
210
0.0
220
0.0
230
1.0
 70
     8
 71
     2
 72
     6
 73
     3
 74
     0
 42
0.000000001
 43
0.0000000319921434
 40
0.0
 40
0.0
 40
0.0
 40
0.0881674495240701
 40
0.0881674495240701
 40
0.0881674495240701
 10
281.5543977890489
 20
159.9399340096616
 30
0.0
 10
281.5403998346297
 20
159.9253666469272
 30
0.0
 10
281.5253936310261
 20
159.9120836514113
 30
0.0
  0
LINE
  5
1FF
330
1F
100
AcDbEntity
  8
VISIBLE
100
AcDbLine
 10
280.5000868388821
 20
161.0835842235996
 30
0.0
 11
280.7753936310261
 21
161.0835842235996
 31
0.0
  0
SPLINE
  5
200
330
1F
100
AcDbEntity
  8
VISIBLE
100
AcDbSpline
210
0.0
220
0.0
230
1.0
 70
     8
 71
     2
 72
     6
 73
     3
 74
     0
 42
0.000000001
 43
0.0000000319252608
 40
0.6761680179110253
 40
0.6761680179110253
 40
0.6761680179110253
 40
1.0
 40
1.0
 40
1.0
 10
280.7753936310261
 20
159.850251047438
 30
0.0
 10
280.710265763688
 20
159.8864292528202
 30
0.0
 10
280.6588523979935
 20
159.9399340096616
 30
0.0
  0
LINE
  5
201
330
1F
100
AcDbEntity
  8
VISIBLE
100
AcDbLine
 10
280.7753936310261
 20
184.0381113213144
 30
0.0
 11
280.7753936310261
 21
182.725217960573
 31
0.0
  0
LINE
  5
202
330
1F
100
AcDbEntity
  8
VISIBLE
100
AcDbLine
 10
281.5253936310261
 20
183.9559057873261
 30
0.0
 11
281.5253936310261
 21
182.7271081560703
 31
0.0
  0
LINE
  5
203
330
1F
100
AcDbEntity
  8
VISIBLE
100
AcDbLine
 10
280.7753936310261
 20
186.4491896389702
 30
0.0
 11
280.7753936310261
 21
185.2678948401709
 31
0.0
  0
LINE
  5
204
330
1F
100
AcDbEntity
  8
VISIBLE
100
AcDbLine
 10
281.5253936310261
 20
186.4491896389702
 30
0.0
 11
281.5253936310261
 21
185.2678948401709
 31
0.0
  0
LINE
  5
205
330
1F
100
AcDbEntity
  8
VISIBLE
100
AcDbLine
 10
281.8093560466026
 20
185.2678948401709
 30
0.0
 11
281.8093560466026
 21
184.5347146131282
 31
0.0
  0
LINE
  5
206
330
1F
100
AcDbEntity
  8
VISIBLE
100
AcDbLine
 10
281.5253936310261
 20
185.2678948401709
 30
0.0
 11
281.8093560466026
 21
185.2678948401709
 31
0.0
  0
LINE
  5
207
330
1F
100
AcDbEntity
  8
VISIBLE
100
AcDbLine
 10
280.606465364827
 20
184.5347146131282
 30
0.0
 11
280.606465364827
 21
185.2678948401709
 31
0.0
  0
SPLINE
  5
208
330
1F
100
AcDbEntity
  8
VISIBLE
100
AcDbSpline
210
0.0
220
0.0
230
1.0
 70
     8
 71
     2
 72
     6
 73
     3
 74
     0
 42
0.000000001
 43
0.0000000332248277
 40
0.0
 40
0.0
 40
0.0
 40
1.0
 40
1.0
 40
1.0
 10
280.7651951047023
 20
184.0482673490888
 30
0.0
 10
280.606465364827
 20
184.2107763684849
 30
0.0
 10
280.606465364827
 20
184.5347146131282
 30
0.0
  0
SPLINE
  5
209
330
1F
100
AcDbEntity
  8
VISIBLE
100
AcDbSpline
210
0.0
220
0.0
230
1.0
 70
     8
 71
     2
 72
     6
 73
     3
 74
     0
 42
0.000000001
 43
0.0000000332709033
 40
0.0
 40
0.0
 40
0.0
 40
0.3429971811948737
 40
0.3429971811948737
 40
0.3429971811948737
 10
281.650086409653
 20
184.0482673490888
 30
0.0
 10
281.5954573731293
 20
183.9925272135172
 30
0.0
 10
281.5253936310261
 20
183.9559057873261
 30
0.0
  0
SPLINE
  5
20A
330
1F
100
AcDbEntity
  8
VISIBLE
100
AcDbSpline
210
0.0
220
0.0
230
1.0
 70
     8
 71
     2
 72
     6
 73
     3
 74
     0
 42
0.000000001
 43
0.0000000333109861
 40
0.0
 40
0.0
 40
0.0
 40
1.0
 40
1.0
 40
1.0
 10
281.8093560466026
 20
184.5347146131282
 30
0.0
 10
281.8093560466026
 20
184.2107763684849
 30
0.0
 10
281.650086409653
 20
184.0482673490888
 30
0.0
  0
LINE
  5
20B
330
1F
100
AcDbEntity
  8
VISIBLE
100
AcDbLine
 10
280.606465364827
 20
185.2678948401709
 30
0.0
 11
280.7753936310261
 21
185.2678948401709
 31
0.0
  0
SPLINE
  5
20C
330
1F
100
AcDbEntity
  8
VISIBLE
100
AcDbSpline
210
0.0
220
0.0
230
1.0
 70
     8
 71
     2
 72
     6
 73
     3
 74
     0
 42
0.000000001
 43
0.0000000331986762
 40
0.9682483339887277
 40
0.9682483339887277
 40
0.9682483339887277
 40
1.0
 40
1.0
 40
1.0
 10
280.7753936310261
 20
184.0381113213144
 30
0.0
 10
280.7702350383889
 20
184.0431074169811
 30
0.0
 10
280.7651951047023
 20
184.0482673490888
 30
0.0
  0
LINE
  5
20D
330
1F
100
AcDbEntity
  8
VISIBLE
100
AcDbLine
 10
281.5253936310261
 20
209.1990881929249
 30
0.0
 11
281.5253936310261
 21
207.7800878059882
 31
0.0
  0
LINE
  5
20E
330
1F
100
AcDbEntity
  8
VISIBLE
100
AcDbLine
 10
280.7753936310261
 20
209.1329617990426
 30
0.0
 11
280.7753936310261
 21
207.7537784399852
 31
0.0
  0
LINE
  5
20F
330
1F
100
AcDbEntity
  8
VISIBLE
100
AcDbLine
 10
280.7753936310261
 20
211.8625866582626
 30
0.0
 11
280.7753936310261
 21
210.5423160267938
 31
0.0
  0
LINE
  5
210
330
1F
100
AcDbEntity
  8
VISIBLE
100
AcDbLine
 10
281.5253936310261
 20
211.8625866582626
 30
0.0
 11
281.5253936310261
 21
210.5423160267938
 31
0.0
  0
SPLINE
  5
211
330
1F
100
AcDbEntity
  8
VISIBLE
100
AcDbSpline
210
0.0
220
0.0
230
1.0
 70
     8
 71
     2
 72
     6
 73
     3
 74
     0
 42
0.000000001
 43
0.0000000347728497
 40
0.0
 40
0.0
 40
0.0
 40
1.0
 40
1.0
 40
1.0
 10
281.7725786011738
 20
209.8242529319822
 30
0.0
 10
281.7725786011738
 20
209.4453087105185
 30
0.0
 10
281.5945713633844
 20
209.2600605003445
 30
0.0
  0
LINE
  5
212
330
1F
100
AcDbEntity
  8
VISIBLE
100
AcDbLine
 10
284.4764475941658
 20
182.6418354702624
 30
0.0
 11
284.4764475941658
 21
183.9753812440441
 31
0.0
  0
LINE
  5
213
330
1F
100
AcDbEntity
  8
VISIBLE
100
AcDbLine
 10
284.4764475941658
 20
183.9753812440441
 30
0.0
 11
282.6451167177823
 21
184.9839089790336
 31
0.0
  0
LINE
  5
214
330
1F
100
AcDbEntity
  8
VISIBLE
100
AcDbLine
 10
285.45
 20
164.58490637672
 30
0.0
 11
285.45
 21
148.58490637672
 31
0.0
  0
LINE
  5
215
330
1F
100
AcDbEntity
  8
VISIBLE
100
AcDbLine
 10
282.6496110527496
 20
160.3527244633513
 30
0.0
 11
282.6496110527496
 21
161.0835842235996
 31
0.0
  0
LINE
  5
216
330
1F
100
AcDbEntity
  8
VISIBLE
100
AcDbLine
 10
282.6496110527496
 20
161.0835842235996
 30
0.0
 11
284.3858066245914
 21
161.0835842235996
 31
0.0
  0
LINE
  5
217
330
1F
100
AcDbEntity
  8
VISIBLE
100
AcDbLine
 10
279.5496462375577
 20
162.2611403027038
 30
0.0
 11
279.5496462375577
 21
160.3527244633513
 31
0.0
  0
SPLINE
  5
218
330
1F
100
AcDbEntity
  8
VISIBLE
100
AcDbSpline
210
0.0
220
0.0
230
1.0
 70
     8
 71
     2
 72
     6
 73
     3
 74
     0
 42
0.000000001
 43
0.000000031857999
 40
0.0
 40
0.0
 40
0.0
 40
1.0
 40
1.0
 40
1.0
 10
279.5496462375577
 20
160.3527244633513
 30
0.0
 10
279.5496462375577
 20
159.7747101905186
 30
0.0
 10
279.7493141102028
 20
159.3748362568923
 30
0.0
  0
LINE
  5
219
330
1F
100
AcDbEntity
  8
VISIBLE
100
AcDbLine
 10
298.5
 20
132.5849063767201
 30
0.0
 11
298.5
 21
129.5849063767201
 31
0.0
  0
ARC
  5
21A
330
1F
100
AcDbEntity
  8
VISIBLE
100
AcDbCircle
 10
291.45
 20
223.5849063767201
 30
0.0
 40
2.000000000000006
100
AcDbArc
 50
270.0
 51
0.0
  0
LINE
  5
21B
330
1F
100
AcDbEntity
  8
VISIBLE
100
AcDbLine
 10
293.45
 20
239.58490637672
 30
0.0
 11
293.45
 21
223.5849063767201
 31
0.0
  0
LINE
  5
21C
330
1F
100
AcDbEntity
  8
VISIBLE
100
AcDbLine
 10
287.45
 20
241.58490637672
 30
0.0
 11
291.45
 21
241.58490637672
 31
0.0
  0
ARC
  5
21D
330
1F
100
AcDbEntity
  8
VISIBLE
100
AcDbCircle
 10
287.45
 20
239.5849063767201
 30
0.0
 40
2.000000000000001
100
AcDbArc
 50
90.0
 51
180.0
  0
LINE
  5
21E
330
1F
100
AcDbEntity
  8
VISIBLE
100
AcDbLine
 10
281.5253936310261
 20
210.5423160267938
 30
0.0
 11
281.7725786011738
 21
210.5423160267938
 31
0.0
  0
ARC
  5
21F
330
1F
100
AcDbEntity
  8
VISIBLE
100
AcDbCircle
 10
262.95
 20
131.0420537008053
 30
0.0
 40
4.0
100
AcDbArc
 50
90.0
 51
180.0
  0
ARC
  5
220
330
1F
100
AcDbEntity
  8
VISIBLE
100
AcDbCircle
 10
262.95
 20
131.0420537008053
 30
0.0
 40
4.0
100
AcDbArc
 50
180.0
 51
270.0
  0
ARC
  5
221
330
1F
100
AcDbEntity
  8
VISIBLE
100
AcDbCircle
 10
262.95
 20
131.0420537008053
 30
0.0
 40
4.0
100
AcDbArc
 50
270.0
 51
0.0
  0
CIRCLE
  5
222
330
1F
100
AcDbEntity
  8
VISIBLE
100
AcDbCircle
 10
262.95
 20
131.0420537008053
 30
0.0
 40
2.500000000000002
  0
LINE
  5
223
330
1F
100
AcDbEntity
  8
VISIBLE
100
AcDbLine
 10
287.0666666666667
 20
246.58490637672
 30
0.0
 11
287.0666666666667
 21
249.58490637672
 31
0.0
  0
LINE
  5
224
330
1F
100
AcDbEntity
  8
VISIBLE
100
AcDbLine
 10
264.45
 20
246.58490637672
 30
0.0
 11
264.45
 21
135.0420537008053
 31
0.0
  0
LINE
  5
225
330
1F
100
AcDbEntity
  8
VISIBLE
100
AcDbLine
 10
281.7725786011738
 20
210.5423160267938
 30
0.0
 11
281.7725786011738
 21
209.8242529319822
 31
0.0
  0
LINE
  5
226
330
1F
100
AcDbEntity
  8
VISIBLE
100
AcDbLine
 10
275.8333333333334
 20
132.5849063767201
 30
0.0
 11
275.8333333333334
 21
129.5849063767201
 31
0.0
  0
LINE
  5
227
330
1F
100
AcDbEntity
  8
VISIBLE
100
AcDbLine
 10
280.7753936310261
 20
162.2611403027038
 30
0.0
 11
280.7753936310261
 21
161.0835842235996
 31
0.0
  0
LINE
  5
228
330
1F
100
AcDbEntity
  8
VISIBLE
100
AcDbLine
 10
281.5253936310261
 20
162.2611403027038
 30
0.0
 11
281.5253936310261
 21
161.0835842235996
 31
0.0
  0
LINE
  5
229
330
1F
100
AcDbEntity
  8
VISIBLE
100
AcDbLine
 10
134.45
 20
291.0420537008053
 30
0.0
 11
128.45
 21
291.0420537008053
 31
0.0
  0
LINE
  5
22A
330
1F
100
AcDbEntity
  8
VISIBLE
100
AcDbLine
 10
134.45
 20
268.0420537008053
 30
0.0
 11
134.45
 21
291.0420537008053
 31
0.0
  0
LINE
  5
22B
330
1F
100
AcDbEntity
  8
VISIBLE
100
AcDbLine
 10
134.45
 20
268.0420537008053
 30
0.0
 11
131.45
 21
268.0420537008053
 31
0.0
  0
LINE
  5
22C
330
1F
100
AcDbEntity
  8
VISIBLE
100
AcDbLine
 10
131.45
 20
268.0420537008053
 30
0.0
 11
131.45
 21
245.0420537008053
 31
0.0
  0
LINE
  5
22D
330
1F
100
AcDbEntity
  8
VISIBLE
100
AcDbLine
 10
134.45
 20
245.0420537008053
 30
0.0
 11
131.45
 21
245.0420537008053
 31
0.0
  0
LINE
  5
22E
330
1F
100
AcDbEntity
  8
VISIBLE
100
AcDbLine
 10
134.45
 20
222.0420537008053
 30
0.0
 11
134.45
 21
245.0420537008053
 31
0.0
  0
LINE
  5
22F
330
1F
100
AcDbEntity
  8
VISIBLE
100
AcDbLine
 10
134.45
 20
222.0420537008053
 30
0.0
 11
131.45
 21
222.0420537008053
 31
0.0
  0
LINE
  5
230
330
1F
100
AcDbEntity
  8
VISIBLE
100
AcDbLine
 10
134.45
 20
199.0420537008053
 30
0.0
 11
131.45
 21
199.0420537008053
 31
0.0
  0
LINE
  5
231
330
1F
100
AcDbEntity
  8
VISIBLE
100
AcDbLine
 10
134.45
 20
176.0420537008053
 30
0.0
 11
134.45
 21
199.0420537008053
 31
0.0
  0
LINE
  5
232
330
1F
100
AcDbEntity
  8
VISIBLE
100
AcDbLine
 10
134.45
 20
176.0420537008053
 30
0.0
 11
131.45
 21
176.0420537008053
 31
0.0
  0
LINE
  5
233
330
1F
100
AcDbEntity
  8
VISIBLE
100
AcDbLine
 10
131.45
 20
176.0420537008053
 30
0.0
 11
131.45
 21
153.0420537008053
 31
0.0
  0
LINE
  5
234
330
1F
100
AcDbEntity
  8
VISIBLE
100
AcDbLine
 10
134.45
 20
153.0420537008053
 30
0.0
 11
131.45
 21
153.0420537008053
 31
0.0
  0
LINE
  5
235
330
1F
100
AcDbEntity
  8
VISIBLE
100
AcDbLine
 10
134.45
 20
130.0420537008053
 30
0.0
 11
134.45
 21
153.0420537008053
 31
0.0
  0
LINE
  5
236
330
1F
100
AcDbEntity
  8
VISIBLE
100
AcDbLine
 10
134.45
 20
130.0420537008053
 30
0.0
 11
128.45
 21
130.0420537008053
 31
0.0
  0
LINE
  5
237
330
1F
100
AcDbEntity
  8
VISIBLE
100
AcDbLine
 10
128.45
 20
127.0420537008053
 30
0.0
 11
128.45
 21
130.0420537008053
 31
0.0
  0
LINE
  5
238
330
1F
100
AcDbEntity
  8
VISIBLE
100
AcDbLine
 10
113.0214285714286
 20
127.0420537008053
 30
0.0
 11
128.45
 21
127.0420537008053
 31
0.0
  0
LINE
  5
239
330
1F
100
AcDbEntity
  8
VISIBLE
100
AcDbLine
 10
113.0214285714286
 20
127.0420537008053
 30
0.0
 11
113.0214285714286
 21
130.0420537008053
 31
0.0
  0
LINE
  5
23A
330
1F
100
AcDbEntity
  8
VISIBLE
100
AcDbLine
 10
113.0214285714286
 20
130.0420537008053
 30
0.0
 11
97.59285714285714
 21
130.0420537008053
 31
0.0
  0
LINE
  5
23B
330
1F
100
AcDbEntity
  8
VISIBLE
100
AcDbLine
 10
97.59285714285714
 20
127.0420537008053
 30
0.0
 11
97.59285714285714
 21
130.0420537008053
 31
0.0
  0
LINE
  5
23C
330
1F
100
AcDbEntity
  8
VISIBLE
100
AcDbLine
 10
82.16428571428571
 20
127.0420537008053
 30
0.0
 11
97.59285714285714
 21
127.0420537008053
 31
0.0
  0
LINE
  5
23D
330
1F
100
AcDbEntity
  8
VISIBLE
100
AcDbLine
 10
82.16428571428571
 20
127.0420537008053
 30
0.0
 11
82.16428571428571
 21
130.0420537008053
 31
0.0
  0
LINE
  5
23E
330
1F
100
AcDbEntity
  8
VISIBLE
100
AcDbLine
 10
82.16428571428571
 20
130.0420537008053
 30
0.0
 11
66.7357142857143
 21
130.0420537008053
 31
0.0
  0
LINE
  5
23F
330
1F
100
AcDbEntity
  8
VISIBLE
100
AcDbLine
 10
66.7357142857143
 20
127.0420537008053
 30
0.0
 11
66.7357142857143
 21
130.0420537008053
 31
0.0
  0
LINE
  5
240
330
1F
100
AcDbEntity
  8
VISIBLE
100
AcDbLine
 10
51.30714285714287
 20
127.0420537008053
 30
0.0
 11
51.30714285714287
 21
130.0420537008053
 31
0.0
  0
LINE
  5
241
330
1F
100
AcDbEntity
  8
VISIBLE
100
AcDbLine
 10
51.30714285714287
 20
130.0420537008053
 30
0.0
 11
35.87857142857144
 21
130.0420537008053
 31
0.0
  0
LINE
  5
242
330
1F
100
AcDbEntity
  8
VISIBLE
100
AcDbLine
 10
35.87857142857144
 20
127.0420537008053
 30
0.0
 11
35.87857142857144
 21
130.0420537008053
 31
0.0
  0
LINE
  5
243
330
1F
100
AcDbEntity
  8
VISIBLE
100
AcDbLine
 10
20.45000000000002
 20
127.0420537008053
 30
0.0
 11
35.87857142857144
 21
127.0420537008053
 31
0.0
  0
LINE
  5
244
330
1F
100
AcDbEntity
  8
VISIBLE
100
AcDbLine
 10
20.45000000000002
 20
127.0420537008053
 30
0.0
 11
20.45000000000002
 21
130.0420537008053
 31
0.0
  0
LINE
  5
245
330
1F
100
AcDbEntity
  8
VISIBLE
100
AcDbLine
 10
14.45000000000002
 20
130.0420537008053
 30
0.0
 11
20.45000000000002
 21
130.0420537008053
 31
0.0
  0
LINE
  5
246
330
1F
100
AcDbEntity
  8
VISIBLE
100
AcDbLine
 10
14.45000000000002
 20
130.0420537008053
 30
0.0
 11
14.45000000000002
 21
153.0420537008053
 31
0.0
  0
LINE
  5
247
330
1F
100
AcDbEntity
  8
VISIBLE
100
AcDbLine
 10
14.45000000000002
 20
153.0420537008053
 30
0.0
 11
17.45000000000002
 21
153.0420537008053
 31
0.0
  0
LINE
  5
248
330
1F
100
AcDbEntity
  8
VISIBLE
100
AcDbLine
 10
17.45000000000002
 20
153.0420537008053
 30
0.0
 11
17.45000000000002
 21
176.0420537008053
 31
0.0
  0
LINE
  5
249
330
1F
100
AcDbEntity
  8
VISIBLE
100
AcDbLine
 10
14.45000000000002
 20
176.0420537008053
 30
0.0
 11
17.45000000000002
 21
176.0420537008053
 31
0.0
  0
LINE
  5
24A
330
1F
100
AcDbEntity
  8
VISIBLE
100
AcDbLine
 10
14.45000000000002
 20
176.0420537008053
 30
0.0
 11
14.45000000000002
 21
199.0420537008053
 31
0.0
  0
LINE
  5
24B
330
1F
100
AcDbEntity
  8
VISIBLE
100
AcDbLine
 10
14.45000000000002
 20
199.0420537008053
 30
0.0
 11
17.45000000000002
 21
199.0420537008053
 31
0.0
  0
LINE
  5
24C
330
1F
100
AcDbEntity
  8
VISIBLE
100
AcDbLine
 10
17.45000000000002
 20
199.0420537008053
 30
0.0
 11
17.45000000000002
 21
222.0420537008053
 31
0.0
  0
LINE
  5
24D
330
1F
100
AcDbEntity
  8
VISIBLE
100
AcDbLine
 10
14.45000000000002
 20
222.0420537008053
 30
0.0
 11
17.45000000000002
 21
222.0420537008053
 31
0.0
  0
LINE
  5
24E
330
1F
100
AcDbEntity
  8
VISIBLE
100
AcDbLine
 10
14.45000000000002
 20
222.0420537008053
 30
0.0
 11
14.45000000000002
 21
245.0420537008053
 31
0.0
  0
LINE
  5
24F
330
1F
100
AcDbEntity
  8
VISIBLE
100
AcDbLine
 10
14.45000000000002
 20
245.0420537008053
 30
0.0
 11
17.45000000000002
 21
245.0420537008053
 31
0.0
  0
LINE
  5
250
330
1F
100
AcDbEntity
  8
VISIBLE
100
AcDbLine
 10
17.45000000000002
 20
245.0420537008053
 30
0.0
 11
17.45000000000002
 21
268.0420537008053
 31
0.0
  0
LINE
  5
251
330
1F
100
AcDbEntity
  8
VISIBLE
100
AcDbLine
 10
14.45000000000002
 20
268.0420537008053
 30
0.0
 11
17.45000000000002
 21
268.0420537008053
 31
0.0
  0
LINE
  5
252
330
1F
100
AcDbEntity
  8
VISIBLE
100
AcDbLine
 10
14.45000000000002
 20
268.0420537008053
 30
0.0
 11
14.45000000000002
 21
291.0420537008053
 31
0.0
  0
LINE
  5
253
330
1F
100
AcDbEntity
  8
VISIBLE
100
AcDbLine
 10
14.45000000000002
 20
291.0420537008053
 30
0.0
 11
20.45000000000002
 21
291.0420537008053
 31
0.0
  0
LINE
  5
254
330
1F
100
AcDbEntity
  8
VISIBLE
100
AcDbLine
 10
20.45000000000002
 20
294.0420537008053
 30
0.0
 11
20.45000000000002
 21
291.0420537008053
 31
0.0
  0
LINE
  5
255
330
1F
100
AcDbEntity
  8
VISIBLE
100
AcDbLine
 10
20.45000000000002
 20
294.0420537008053
 30
0.0
 11
35.87857142857145
 21
294.0420537008053
 31
0.0
  0
LINE
  5
256
330
1F
100
AcDbEntity
  8
VISIBLE
100
AcDbLine
 10
35.87857142857145
 20
294.0420537008053
 30
0.0
 11
35.87857142857145
 21
291.0420537008053
 31
0.0
  0
LINE
  5
257
330
1F
100
AcDbEntity
  8
VISIBLE
100
AcDbLine
 10
35.87857142857145
 20
291.0420537008053
 30
0.0
 11
51.30714285714289
 21
291.0420537008053
 31
0.0
  0
LINE
  5
258
330
1F
100
AcDbEntity
  8
VISIBLE
100
AcDbLine
 10
51.30714285714289
 20
294.0420537008053
 30
0.0
 11
51.30714285714289
 21
291.0420537008053
 31
0.0
  0
LINE
  5
259
330
1F
100
AcDbEntity
  8
VISIBLE
100
AcDbLine
 10
51.30714285714289
 20
294.0420537008053
 30
0.0
 11
66.73571428571431
 21
294.0420537008053
 31
0.0
  0
LINE
  5
25A
330
1F
100
AcDbEntity
  8
VISIBLE
100
AcDbLine
 10
66.73571428571431
 20
294.0420537008053
 30
0.0
 11
66.73571428571431
 21
291.0420537008053
 31
0.0
  0
LINE
  5
25B
330
1F
100
AcDbEntity
  8
VISIBLE
100
AcDbLine
 10
66.73571428571431
 20
291.0420537008053
 30
0.0
 11
82.16428571428573
 21
291.0420537008053
 31
0.0
  0
LINE
  5
25C
330
1F
100
AcDbEntity
  8
VISIBLE
100
AcDbLine
 10
82.16428571428573
 20
294.0420537008053
 30
0.0
 11
82.16428571428573
 21
291.0420537008053
 31
0.0
  0
LINE
  5
25D
330
1F
100
AcDbEntity
  8
VISIBLE
100
AcDbLine
 10
82.16428571428573
 20
294.0420537008053
 30
0.0
 11
97.59285714285716
 21
294.0420537008053
 31
0.0
  0
LINE
  5
25E
330
1F
100
AcDbEntity
  8
VISIBLE
100
AcDbLine
 10
97.59285714285716
 20
294.0420537008053
 30
0.0
 11
97.59285714285716
 21
291.0420537008053
 31
0.0
  0
LINE
  5
25F
330
1F
100
AcDbEntity
  8
VISIBLE
100
AcDbLine
 10
97.59285714285716
 20
291.0420537008053
 30
0.0
 11
113.0214285714286
 21
291.0420537008053
 31
0.0
  0
LINE
  5
260
330
1F
100
AcDbEntity
  8
VISIBLE
100
AcDbLine
 10
113.0214285714286
 20
294.0420537008053
 30
0.0
 11
113.0214285714286
 21
291.0420537008053
 31
0.0
  0
LINE
  5
261
330
1F
100
AcDbEntity
  8
VISIBLE
100
AcDbLine
 10
113.0214285714286
 20
294.0420537008053
 30
0.0
 11
128.45
 21
294.0420537008053
 31
0.0
  0
LINE
  5
262
330
1F
100
AcDbEntity
  8
VISIBLE
100
AcDbLine
 10
128.45
 20
294.0420537008053
 30
0.0
 11
128.45
 21
291.0420537008053
 31
0.0
  0
LINE
  5
263
330
1F
100
AcDbEntity
  8
VISIBLE
100
AcDbLine
 10
51.30714285714287
 20
127.0420537008053
 30
0.0
 11
66.7357142857143
 21
127.0420537008053
 31
0.0
  0
LINE
  5
264
330
1F
100
AcDbEntity
  8
VISIBLE
100
AcDbLine
 10
131.45
 20
222.0420537008053
 30
0.0
 11
131.45
 21
199.0420537008053
 31
0.0
  0
MTEXT
  5
265
102
{ACAD_XDICTIONARY
360
266
102
}
330
1F
100
AcDbEntity
  8
ANNOTATION_TEXT
 62
     7
 60
     1
100
AcDbMText
 10
157.95
 20
110.8420537008053
 30
0.0
 40
3.5
 41
0.0
 71
     2
 72
     1
  1

  7
ONSHAPE-STANDARD-VIEW-LABE
1001
ACAD
1000
ACAD_MTEXT_DEFINED_HEIGHT_BEGIN
1070
    46
1040
3.5
1000
ACAD_MTEXT_DEFINED_HEIGHT_END
  0
ENDSEC
  0
SECTION
  2
OBJECTS
  0
DICTIONARY
  5
C
330
0
100
AcDbDictionary
  3
ACAD_GROUP
350
D
  3
ACAD_LAYOUT
350
1A
  3
ACAD_MATERIAL
350
43
  3
ACAD_MLEADERSTYLE
350
6B
  3
ACAD_MLINESTYLE
350
17
  3
ACAD_PLOTSETTINGS
350
19
  3
ACAD_SCALELIST
350
47
  3
ACAD_VISUALSTYLE
350
2A
  3
ACDBHEADERROUNDTRIPXREC
350
2C0
  3
ACDBVARIABLEDICTIONARY
350
6E
  3
ONSHAPE_DATA
350
26D
  0
DICTIONARY
  5
2EB
330
8
100
AcDbDictionary
280
     1
  3
ACAD_XREC_ROUNDTRIP
360
2EC
  0
DICTIONARY
  5
266
330
265
100
AcDbDictionary
280
     1
  3
ONSHAPE_VIEW_ID
360
267
  0
DICTIONARY
  5
D
102
{ACAD_REACTORS
330
C
102
}
330
C
100
AcDbDictionary
  0
DICTIONARY
  5
1A
102
{ACAD_REACTORS
330
C
102
}
330
C
100
AcDbDictionary
  0
DICTIONARY
  5
43
102
{ACAD_REACTORS
330
C
102
}
330
C
100
AcDbDictionary
  3
BYBLOCK
350
45
  3
BYLAYER
350
44
  3
GLOBAL
350
46
  0
DICTIONARY
  5
6B
102
{ACAD_REACTORS
330
C
102
}
330
C
100
AcDbDictionary
  3
STANDARD
350
6C
  0
DICTIONARY
  5
17
102
{ACAD_REACTORS
330
C
102
}
330
C
100
AcDbDictionary
  3
STANDARD
350
18
  0
DICTIONARY
  5
19
102
{ACAD_REACTORS
330
C
102
}
330
C
100
AcDbDictionary
  0
DICTIONARY
  5
47
102
{ACAD_REACTORS
330
C
102
}
330
C
100
AcDbDictionary
  3
A0
350
48
  3
A1
350
49
  3
A2
350
4A
  3
A3
350
4B
  3
A4
350
4C
  3
A5
350
4D
  3
A6
350
4E
  3
A7
350
4F
  3
A8
350
50
  3
A9
350
51
  3
B0
350
52
  3
B1
350
53
  3
B2
350
54
  3
B3
350
55
  3
B4
350
56
  3
B5
350
57
  3
B6
350
58
  3
B7
350
59
  3
B8
350
5A
  3
B9
350
5B
  3
C0
350
5C
  3
C1
350
5D
  3
C2
350
5E
  3
C3
350
5F
  3
C4
350
60
  3
C5
350
61
  3
C6
350
62
  3
C7
350
63
  3
C8
350
64
  3
C9
350
65
  3
D0
350
66
  3
D1
350
67
  3
D2
350
68
  0
DICTIONARY
  5
2A
102
{ACAD_REACTORS
330
C
102
}
330
C
100
AcDbDictionary
  3
2DWIREFRAME
350
2F
  3
BASIC
350
32
  3
BRIGHTEN
350
36
  3
COLORCHANGE
350
3A
  3
CONCEPTUAL
350
34
  3
DIM
350
35
  3
EDGECOLOROFF
350
3D
  3
FACEPATTERN
350
39
  3
FLAT
350
2B
  3
FLATWITHEDGES
350
2C
  3
GOURAUD
350
2D
  3
GOURAUDWITHEDGES
350
2E
  3
HIDDEN
350
31
  3
JITTEROFF
350
3B
  3
LINEPATTERN
350
38
  3
OVERHANGOFF
350
3C
  3
REALISTIC
350
33
  3
SHADED
350
42
  3
SHADED_WITH_EDGES
350
41
  3
SHADES_OF_GRAY
350
3E
  3
SKETCHY
350
3F
  3
THICKEN
350
37
  3
WIREFRAME
350
30
  3
X-RAY
350
40
  0
DICTIONARY
  5
2C0
102
{ACAD_REACTORS
330
C
102
}
330
C
100
AcDbDictionary
  3
CEPSNID
350
2CA
  3
CEPSNTYPE
350
2C9
  3
DIMSTYLEDATA
350
2E0
  3
FINGERPRINTGUID
350
2CB
  3
HYPERLINKBASE
350
2C3
  3
INSUNITS
350
2C8
  3
LAYOUTDICT
350
2C5
  3
LWETCUNION
350
2C7
  3
PLOTSETDICT
350
2C6
  3
PSVPSCALE
350
2CD
  3
PUCSBASE
350
2D0
  3
PUCSORGBACK
350
2D6
  3
PUCSORGBOTTOM
350
2D2
  3
PUCSORGFRONT
350
2D5
  3
PUCSORGLEFT
350
2D3
  3
PUCSORGRIGHT
350
2D4
  3
PUCSORGTOP
350
2D1
  3
PUCSORTHOREF
350
2CE
  3
PUCSORTHOVIEW
350
2CF
  3
STYLESHEET
350
2C4
  3
TSTACKALIGN
350
2C1
  3
TSTACKSIZE
350
2C2
  3
UCSBASE
350
2D9
  3
UCSORGBACK
350
2DF
  3
UCSORGBOTTOM
350
2DB
  3
UCSORGFRONT
350
2DE
  3
UCSORGLEFT
350
2DC
  3
UCSORGRIGHT
350
2DD
  3
UCSORGTOP
350
2DA
  3
UCSORTHOREF
350
2D7
  3
UCSORTHOVIEW
350
2D8
  3
VERSIONGUID
350
2CC
  0
DICTIONARY
  5
6E
102
{ACAD_REACTORS
330
C
102
}
330
C
100
AcDbDictionary
  3
CANNOSCALE
350
2ED
  3
CENTEREXE
350
2E7
  3
CENTERLTYPEFILE
350
2E8
  3
CMLEADERSTYLE
350
2E2
  3
CTABLESTYLE
350
2E1
  3
DIMASSOC
350
2E9
  3
HIDETEXT
350
2EA
  3
MSLTSCALE
350
2EE
  3
OLEFRAME
350
6F
  3
PSOLHEIGHT
350
2E4
  3
PSOLWIDTH
350
2E3
  0
DICTIONARY
  5
26D
102
{ACAD_REACTORS
330
C
102
}
330
C
100
AcDbDictionary
280
     1
  3
DIM_UNITS
360
26E
  3
ONSHAPE_ANG_TOL_PRECISION
360
271
  3
ONSHAPE_JOGDIMENSION_LOCK_
360
273
  3
ONSHAPE_SHOWDIMENSIONSLINE
360
274
  3
ONSHAPE_UNDERLINEOVERRIDEN
360
272
  3
ONSHAPE_VSHARP_EXTENSION
360
270
  3
ONSHAPE_WELD_STANDARD
360
26F
  0
XRECORD
  5
2EC
102
{ACAD_REACTORS
330
2EB
102
}
330
2EB
100
AcDbXrecord
102
VTR_0.000_0.000_1.000_1.000_VISUALSTYLE
340
2F
102
VTR_0.000_0.000_1.000_1.000_GRIDDISPLAY
 70
     3
102
VTR_0.000_0.000_1.000_1.000_GRIDMAJOR
 70
     5
102
VTR_0.000_0.000_1.000_1.000_DEFAULTLIGHTING
280
     1
102
VTR_0.000_0.000_1.000_1.000_DEFAULTLIGHTINGTYPE
 70
     1
102
VTR_0.000_0.000_1.000_1.000_BRIGHTNESS
141
0.0
102
VTR_0.000_0.000_1.000_1.000_CONTRAST
142
0.0
  0
XRECORD
  5
267
102
{ACAD_REACTORS
330
266
102
}
330
266
100
AcDbXrecord
330
0
  0
MATERIAL
  5
45
102
{ACAD_REACTORS
330
43
102
}
102
{ACAD_XDICTIONARY
360
2F1
102
}
330
43
100
AcDbMaterial
  1
BYBLOCK
  0
MATERIAL
  5
44
102
{ACAD_REACTORS
330
43
102
}
102
{ACAD_XDICTIONARY
360
2EF
102
}
330
43
100
AcDbMaterial
  1
BYLAYER
  0
MATERIAL
  5
46
102
{ACAD_REACTORS
330
43
102
}
102
{ACAD_XDICTIONARY
360
2F3
102
}
330
43
100
AcDbMaterial
  1
GLOBAL
  0
ACAD_PROXY_OBJECT
  5
6C
102
{ACAD_REACTORS
330
6B
102
}
330
6B
100
AcDbProxyObject
 90
      499
 91
      505
 93
      610
310
40901902A4063FBFFFFFE0000000000000020400000000000020404214DD185B99185C990000000000000104090140501A00000000000004100000000000000041025764000000000000039000
340
14
340
0
340
11
340
0
 94
        0
1001
ACAD_MLEADERVER
1070
     2
  0
MLINESTYLE
  5
18
102
{ACAD_REACTORS
330
17
102
}
330
17
100
AcDbMlineStyle
  2
Standard
 70
     0
  3

 62
   256
 51
90.0
 52
90.0
 71
     2
 49
0.5
 62
   256
  6
BYLAYER
 49
-0.5
 62
   256
  6
BYLAYER
  0
ACAD_PROXY_OBJECT
  5
48
102
{ACAD_REACTORS
330
47
102
}
330
47
100
AcDbProxyObject
 90
      499
 91
      503
 93
       41
310
903313A31580
  0
ACAD_PROXY_OBJECT
  5
49
102
{ACAD_REACTORS
330
47
102
}
330
47
100
AcDbProxyObject
 90
      499
 91
      503
 93
      105
310
903313A324000000000000004000
  0
ACAD_PROXY_OBJECT
  5
4A
102
{ACAD_REACTORS
330
47
102
}
330
47
100
AcDbProxyObject
 90
      499
 91
      503
 93
      105
310
903313A344000000000000104000
  0
ACAD_PROXY_OBJECT
  5
4B
102
{ACAD_REACTORS
330
47
102
}
330
47
100
AcDbProxyObject
 90
      499
 91
      503
 93
      105
310
903313A354000000000000144000
  0
ACAD_PROXY_OBJECT
  5
4C
102
{ACAD_REACTORS
330
47
102
}
330
47
100
AcDbProxyObject
 90
      499
 91
      503
 93
      105
310
903313A384000000000000204000
  0
ACAD_PROXY_OBJECT
  5
4D
102
{ACAD_REACTORS
330
47
102
}
330
47
100
AcDbProxyObject
 90
      499
 91
      503
 93
      113
310
904313A31304000000000000244000
  0
ACAD_PROXY_OBJECT
  5
4E
102
{ACAD_REACTORS
330
47
102
}
330
47
100
AcDbProxyObject
 90
      499
 91
      503
 93
      113
310
904313A31364000000000000304000
  0
ACAD_PROXY_OBJECT
  5
4F
102
{ACAD_REACTORS
330
47
102
}
330
47
100
AcDbProxyObject
 90
      499
 91
      503
 93
      113
310
904313A32304000000000000344000
  0
ACAD_PROXY_OBJECT
  5
50
102
{ACAD_REACTORS
330
47
102
}
330
47
100
AcDbProxyObject
 90
      499
 91
      503
 93
      113
310
904313A333040000000000003E4000
  0
ACAD_PROXY_OBJECT
  5
51
102
{ACAD_REACTORS
330
47
102
}
330
47
100
AcDbProxyObject
 90
      499
 91
      503
 93
      113
310
904313A34304000000000000444000
  0
ACAD_PROXY_OBJECT
  5
52
102
{ACAD_REACTORS
330
47
102
}
330
47
100
AcDbProxyObject
 90
      499
 91
      503
 93
      113
310
904313A35304000000000000494000
  0
ACAD_PROXY_OBJECT
  5
53
102
{ACAD_REACTORS
330
47
102
}
330
47
100
AcDbProxyObject
 90
      499
 91
      503
 93
      121
310
905313A3130304000000000000594000
  0
ACAD_PROXY_OBJECT
  5
54
102
{ACAD_REACTORS
330
47
102
}
330
47
100
AcDbProxyObject
 90
      499
 91
      503
 93
      105
310
903323A310000000000000010100
  0
ACAD_PROXY_OBJECT
  5
55
102
{ACAD_REACTORS
330
47
102
}
330
47
100
AcDbProxyObject
 90
      499
 91
      503
 93
      105
310
903343A310000000000000410100
  0
ACAD_PROXY_OBJECT
  5
56
102
{ACAD_REACTORS
330
47
102
}
330
47
100
AcDbProxyObject
 90
      499
 91
      503
 93
      105
310
903383A310000000000000810100
  0
ACAD_PROXY_OBJECT
  5
57
102
{ACAD_REACTORS
330
47
102
}
330
47
100
AcDbProxyObject
 90
      499
 91
      503
 93
      113
310
90431303A310000000000000910100
  0
ACAD_PROXY_OBJECT
  5
58
102
{ACAD_REACTORS
330
47
102
}
330
47
100
AcDbProxyObject
 90
      499
 91
      503
 93
      121
310
9053130303A310000000000001650100
  0
ACAD_PROXY_OBJECT
  5
59
102
{ACAD_REACTORS
330
47
102
}
330
47
100
AcDbProxyObject
 90
      499
 91
      503
 93
      257
310
90E312F31323822203D2031272D3022000000000000200FC000000000000284000
  0
ACAD_PROXY_OBJECT
  5
5A
102
{ACAD_REACTORS
330
47
102
}
330
47
100
AcDbProxyObject
 90
      499
 91
      503
 93
      249
310
90D312F363422203D2031272D3022000000000000240FC000000000000284000
  0
ACAD_PROXY_OBJECT
  5
5B
102
{ACAD_REACTORS
330
47
102
}
330
47
100
AcDbProxyObject
 90
      499
 91
      503
 93
      249
310
90D312F333222203D2031272D3022000000000000280FC000000000000284000
  0
ACAD_PROXY_OBJECT
  5
5C
102
{ACAD_REACTORS
330
47
102
}
330
47
100
AcDbProxyObject
 90
      499
 91
      503
 93
      249
310
90D312F313622203D2031272D30220000000000002C0FC000000000000284000
  0
ACAD_PROXY_OBJECT
  5
5D
102
{ACAD_REACTORS
330
47
102
}
330
47
100
AcDbProxyObject
 90
      499
 91
      503
 93
      249
310
90D332F333222203D2031272D30220000000000002E0FC000000000000284000
  0
ACAD_PROXY_OBJECT
  5
5E
102
{ACAD_REACTORS
330
47
102
}
330
47
100
AcDbProxyObject
 90
      499
 91
      503
 93
      241
310
90C312F3822203D2031272D3022000000000000300FC000000000000284000
  0
ACAD_PROXY_OBJECT
  5
5F
102
{ACAD_REACTORS
330
47
102
}
330
47
100
AcDbProxyObject
 90
      499
 91
      503
 93
      249
310
90D332F313622203D2031272D3022000000000000320FC000000000000284000
  0
ACAD_PROXY_OBJECT
  5
60
102
{ACAD_REACTORS
330
47
102
}
330
47
100
AcDbProxyObject
 90
      499
 91
      503
 93
      241
310
90C312F3422203D2031272D3022000000000000340FC000000000000284000
  0
ACAD_PROXY_OBJECT
  5
61
102
{ACAD_REACTORS
330
47
102
}
330
47
100
AcDbProxyObject
 90
      499
 91
      503
 93
      241
310
90C332F3822203D2031272D3022000000000000360FC000000000000284000
  0
ACAD_PROXY_OBJECT
  5
62
102
{ACAD_REACTORS
330
47
102
}
330
47
100
AcDbProxyObject
 90
      499
 91
      503
 93
      241
310
90C312F3222203D2031272D3022000000000000380FC000000000000284000
  0
ACAD_PROXY_OBJECT
  5
63
102
{ACAD_REACTORS
330
47
102
}
330
47
100
AcDbProxyObject
 90
      499
 91
      503
 93
      241
310
90C332F3422203D2031272D30220000000000003A0FC000000000000284000
  0
ACAD_PROXY_OBJECT
  5
64
102
{ACAD_REACTORS
330
47
102
}
330
47
100
AcDbProxyObject
 90
      499
 91
      503
 93
      161
310
90A3122203D2031272D30224000000000000284000
  0
ACAD_PROXY_OBJECT
  5
65
102
{ACAD_REACTORS
330
47
102
}
330
47
100
AcDbProxyObject
 90
      499
 91
      503
 93
      257
310
90E312D312F3222203D2031272D30220000000000003E0FC000000000000284000
  0
ACAD_PROXY_OBJECT
  5
66
102
{ACAD_REACTORS
330
47
102
}
330
47
100
AcDbProxyObject
 90
      499
 91
      503
 93
      225
310
90A3322203D2031272D302200000000000002100000000000000284000
  0
ACAD_PROXY_OBJECT
  5
67
102
{ACAD_REACTORS
330
47
102
}
330
47
100
AcDbProxyObject
 90
      499
 91
      503
 93
      225
310
90A3622203D2031272D302200000000000006100000000000000284000
  0
ACAD_PROXY_OBJECT
  5
68
102
{ACAD_REACTORS
330
47
102
}
330
47
100
AcDbProxyObject
 90
      499
 91
      503
 93
      249
310
90D31272D3022203D2031272D30220000000000000A100000000000000284000
  0
ACAD_PROXY_OBJECT
  5
2F
102
{ACAD_REACTORS
330
2A
102
}
330
2A
100
AcDbProxyObject
 90
      499
 91
      501
 93
      436
310
42CC9915DA5C99599C985B595049028333333333333E33F0000000000000F90107901411070040501600405405064090741402480A0340
1001
ACAD
1000
AcDbSavedByObjectVersion
1070
     0
  0
ACAD_PROXY_OBJECT
  5
32
102
{ACAD_REACTORS
330
2A
102
}
330
2A
100
AcDbProxyObject
 90
      499
 91
      501
 93
      388
310
4150985CDA58D07406404333333333333E33F0000000000000F90107A41107004050150841D405064090741402480A0350
1001
ACAD
1000
AcDbSavedByObjectVersion
1070
     0
  0
ACAD_PROXY_OBJECT
  5
36
102
{ACAD_REACTORS
330
2A
102
}
330
2A
100
AcDbProxyObject
 90
      499
 91
      501
 93
      428
310
42109C9A59DA1D195B90C409028333333333333E33F0000000000000F9010790141107004050150841D405064090741402480A029950
1001
ACAD
1000
AcDbSavedByObjectVersion
1070
     0
  0
ACAD_PROXY_OBJECT
  5
3A
102
{ACAD_REACTORS
330
2A
102
}
330
2A
100
AcDbProxyObject
 90
      499
 91
      501
 93
      452
310
42D0DBDB1BDC90DA185B99D95104090240C333333333333E33F0000000000000F90108901411070040501508421405064090741402480A0350
1001
ACAD
1000
AcDbSavedByObjectVersion
1070
     0
  0
ACAD_PROXY_OBJECT
  5
34
102
{ACAD_REACTORS
330
2A
102
}
330
2A
100
AcDbProxyObject
 90
      499
 91
      501
 93
      500
310
4290DBDB98D95C1D1D585B10940D028333333333333E33F0000000000000F90107902409070040501000000000018199010841D405064090740C02480A0340
1001
ACAD
1000
AcDbSavedByObjectVersion
1070
     0
  0
ACAD_PROXY_OBJECT
  5
35
102
{ACAD_REACTORS
330
2A
102
}
330
2A
100
AcDbProxyObject
 90
      499
 91
      501
 93
      412
310
40D11A5B50B409028333333333333E33F0000000000000F9010790141107004050150841D405064090741402480A02677FFFFFD0
1001
ACAD
1000
AcDbSavedByObjectVersion
1070
     0
  0
ACAD_PROXY_OBJECT
  5
3D
102
{ACAD_REACTORS
330
2A
102
}
330
2A
100
AcDbProxyObject
 90
      499
 91
      501
 93
      452
310
43115919D950DBDB1BDC93D999916409028333333333333E33F0000000000000F9010790141107004050150841D405064090741402480A0350
1001
ACAD
1000
AcDbSavedByObjectVersion
1070
     0
  0
ACAD_PROXY_OBJECT
  5
39
102
{ACAD_REACTORS
330
2A
102
}
330
2A
100
AcDbProxyObject
 90
      499
 91
      501
 93
      444
310
42D19858D95C185D1D195C9B90F409028333333333333E33F0000000000000F9010790141107004050150841D405064090741402480A0350
1001
ACAD
1000
AcDbSavedByObjectVersion
1070
     0
  0
ACAD_PROXY_OBJECT
  5
2B
102
{ACAD_REACTORS
330
2A
102
}
330
2A
100
AcDbProxyObject
 90
      499
 91
      501
 93
      380
310
41119B185D240901404333333333333E33F0000000000000F9010740A907004050150841D405064090741402480A1B50
1001
ACAD
1000
AcDbSavedByObjectVersion
1070
     0
  0
ACAD_PROXY_OBJECT
  5
2C
102
{ACAD_REACTORS
330
2A
102
}
330
2A
100
AcDbProxyObject
 90
      499
 91
      501
 93
      468
310
43519B185D15DA5D1A115919D95CD0140901404333333333333E33F0000000000000F90107409019070040501600405405064090741402480A1B50
1001
ACAD
1000
AcDbSavedByObjectVersion
1070
     0
  0
ACAD_PROXY_OBJECT
  5
2D
102
{ACAD_REACTORS
330
2A
102
}
330
2A
100
AcDbProxyObject
 90
      499
 91
      501
 93
      404
310
41D1DBDD5C985D5910240902404333333333333E33F0000000000000F9010740A9070040501641D405064090741402480A1B50
1001
ACAD
1000
AcDbSavedByObjectVersion
1070
     0
  0
ACAD_PROXY_OBJECT
  5
2E
102
{ACAD_REACTORS
330
2A
102
}
330
2A
100
AcDbProxyObject
 90
      499
 91
      501
 93
      492
310
4411DBDD5C985D5915DA5D1A115919D95CD0340902404333333333333E33F0000000000000F90107409019070040501600405405064090741402480A1B50
1001
ACAD
1000
AcDbSavedByObjectVersion
1070
     0
  0
ACAD_PROXY_OBJECT
  5
31
102
{ACAD_REACTORS
330
2A
102
}
330
2A
100
AcDbProxyObject
 90
      499
 91
      501
 93
      476
310
41921A5919195B90640502408333333333333E33F0000000000000F901079024090700405020000000000001110200405405064090740C02480A0340
1001
ACAD
1000
AcDbSavedByObjectVersion
1070
     0
  0
ACAD_PROXY_OBJECT
  5
3B
102
{ACAD_REACTORS
330
2A
102
}
330
2A
100
AcDbProxyObject
 90
      499
 91
      501
 93
      428
310
42529A5D1D195C93D999914409028333333333333E33F0000000000000F9010790141107004050150A41D405064090741402480A0350
1001
ACAD
1000
AcDbSavedByObjectVersion
1070
     0
  0
ACAD_PROXY_OBJECT
  5
38
102
{ACAD_REACTORS
330
2A
102
}
330
2A
100
AcDbProxyObject
 90
      499
 91
      501
 93
      444
310
42D31A5B995C185D1D195C9B90E409028333333333333E33F0000000000000F9010790141107004050750841D405064090741402483A0350
1001
ACAD
1000
AcDbSavedByObjectVersion
1070
     0
  0
ACAD_PROXY_OBJECT
  5
3C
102
{ACAD_REACTORS
330
2A
102
}
330
2A
100
AcDbProxyObject
 90
      499
 91
      501
 93
      444
310
42D3DD995C9A185B99D3D999915409028333333333333E33F0000000000000F9010790141107004050150941D405064090741402480A0350
1001
ACAD
1000
AcDbSavedByObjectVersion
1070
     0
  0
ACAD_PROXY_OBJECT
  5
33
102
{ACAD_REACTORS
330
2A
102
}
330
2A
100
AcDbProxyObject
 90
      499
 91
      501
 93
      428
310
425499585B1A5CDD1A58D08409038333333333333E33F0000000000000F9010740A907004050150800405405064090740C02480A1B40
1001
ACAD
1000
AcDbSavedByObjectVersion
1070
     0
  0
ACAD_PROXY_OBJECT
  5
42
102
{ACAD_REACTORS
330
2A
102
}
330
2A
100
AcDbProxyObject
 90
      499
 91
      501
 93
      420
310
4194DA1859195911B40902404333333333333E33F0000000000000F9010740A41107004050150800405405064090840C02480A0B40
1001
ACAD
1000
AcDbSavedByObjectVersion
1070
     0
  0
ACAD_PROXY_OBJECT
  5
41
102
{ACAD_REACTORS
330
2A
102
}
330
2A
100
AcDbProxyObject
 90
      499
 91
      501
 93
      516
310
4454DA18591959081DDA5D1A08195919D95CD1A40902404333333333333E33F0000000000000F901074090142907004050250800405405064090740C02480A0B40
1001
ACAD
1000
AcDbSavedByObjectVersion
1070
     0
  0
ACAD_PROXY_OBJECT
  5
3E
102
{ACAD_REACTORS
330
2A
102
}
330
2A
100
AcDbProxyObject
 90
      499
 91
      501
 93
      532
310
4394DA1859195CC81BD98811DC985E5174090240C333333333333E33F0000000000000F901079024090741D01000000000000111010841D405064090740C02480A0340
1001
ACAD
1000
AcDbSavedByObjectVersion
1070
     0
  0
ACAD_PROXY_OBJECT
  5
3F
102
{ACAD_REACTORS
330
2A
102
}
330
2A
100
AcDbProxyObject
 90
      499
 91
      501
 93
      476
310
41D4DAD95D18DA1E51840502408333333333333E33F0000000000000F901079024090741D01000000000000111010B41D405064090741802480A0340
1001
ACAD
1000
AcDbSavedByObjectVersion
1070
     0
  0
ACAD_PROXY_OBJECT
  5
37
102
{ACAD_REACTORS
330
2A
102
}
330
2A
100
AcDbProxyObject
 90
      499
 91
      501
 93
      412
310
41D51A1A58DAD95B90D409028333333333333E33F0000000000000F9010790141107004050150C41D405064090741402480A0350
1001
ACAD
1000
AcDbSavedByObjectVersion
1070
     0
  0
ACAD_PROXY_OBJECT
  5
30
102
{ACAD_REACTORS
330
2A
102
}
330
2A
100
AcDbProxyObject
 90
      499
 91
      501
 93
      420
310
4255DA5C99599C985B595059028333333333333E33F0000000000000F90107901411070040501600405405064090740C02480A0340
1001
ACAD
1000
AcDbSavedByObjectVersion
1070
     0
  0
ACAD_PROXY_OBJECT
  5
40
102
{ACAD_REACTORS
330
2A
102
}
330
2A
100
AcDbProxyObject
 90
      499
 91
      501
 93
      404
310
41560B54985E51940902404000000000000E03F0000000000000F9010740501907004050150841D405064090740C02480A1B40
1001
ACAD
1000
AcDbSavedByObjectVersion
1070
     0
  0
XRECORD
  5
2CA
102
{ACAD_REACTORS
330
2C0
102
}
330
2C0
100
AcDbXrecord
340
0
  0
XRECORD
  5
2C9
102
{ACAD_REACTORS
330
2C0
102
}
330
2C0
100
AcDbXrecord
 90
        0
  0
XRECORD
  5
2E0
102
{ACAD_REACTORS
330
2C0
102
}
330
2C0
100
AcDbXrecord
1000
DSTYLE
1002
{
1070
   179
 70
     1
1070
   143
 40
0.03937
1070
   285
 70
     8
1070
   176
 70
     7
1070
   177
 70
     7
1070
   178
 70
     7
1070
   278
 70
    46
1070
   371
 70
    13
1070
   372
 70
    13
1070
   340
340
72
1070
   140
 40
3.5
1070
   288
 70
     1
1002
}
  0
XRECORD
  5
2CB
102
{ACAD_REACTORS
330
2C0
102
}
330
2C0
100
AcDbXrecord
  1
{75757272-6175-3078-3933-316378636574}
  0
XRECORD
  5
2C3
102
{ACAD_REACTORS
330
2C0
102
}
330
2C0
100
AcDbXrecord
  1

  0
XRECORD
  5
2C8
102
{ACAD_REACTORS
330
2C0
102
}
330
2C0
100
AcDbXrecord
 90
        4
  0
XRECORD
  5
2C5
102
{ACAD_REACTORS
330
2C0
102
}
330
2C0
100
AcDbXrecord
340
1A
  0
XRECORD
  5
2C7
102
{ACAD_REACTORS
330
2C0
102
}
330
2C0
100
AcDbXrecord
 90
    10269
  0
XRECORD
  5
2C6
102
{ACAD_REACTORS
330
2C0
102
}
330
2C0
100
AcDbXrecord
340
19
  0
XRECORD
  5
2CD
102
{ACAD_REACTORS
330
2C0
102
}
330
2C0
100
AcDbXrecord
 40
0.0
  0
XRECORD
  5
2D0
102
{ACAD_REACTORS
330
2C0
102
}
330
2C0
100
AcDbXrecord
340
0
  0
XRECORD
  5
2D6
102
{ACAD_REACTORS
330
2C0
102
}
330
2C0
100
AcDbXrecord
 10
0.0
 20
0.0
 30
0.0
  0
XRECORD
  5
2D2
102
{ACAD_REACTORS
330
2C0
102
}
330
2C0
100
AcDbXrecord
 10
0.0
 20
0.0
 30
0.0
  0
XRECORD
  5
2D5
102
{ACAD_REACTORS
330
2C0
102
}
330
2C0
100
AcDbXrecord
 10
0.0
 20
0.0
 30
0.0
  0
XRECORD
  5
2D3
102
{ACAD_REACTORS
330
2C0
102
}
330
2C0
100
AcDbXrecord
 10
0.0
 20
0.0
 30
0.0
  0
XRECORD
  5
2D4
102
{ACAD_REACTORS
330
2C0
102
}
330
2C0
100
AcDbXrecord
 10
0.0
 20
0.0
 30
0.0
  0
XRECORD
  5
2D1
102
{ACAD_REACTORS
330
2C0
102
}
330
2C0
100
AcDbXrecord
 10
0.0
 20
0.0
 30
0.0
  0
XRECORD
  5
2CE
102
{ACAD_REACTORS
330
2C0
102
}
330
2C0
100
AcDbXrecord
340
0
  0
XRECORD
  5
2CF
102
{ACAD_REACTORS
330
2C0
102
}
330
2C0
100
AcDbXrecord
 70
     0
  0
XRECORD
  5
2C4
102
{ACAD_REACTORS
330
2C0
102
}
330
2C0
100
AcDbXrecord
  1

  0
XRECORD
  5
2C1
102
{ACAD_REACTORS
330
2C0
102
}
330
2C0
100
AcDbXrecord
 90
        1
  0
XRECORD
  5
2C2
102
{ACAD_REACTORS
330
2C0
102
}
330
2C0
100
AcDbXrecord
 90
       70
  0
XRECORD
  5
2D9
102
{ACAD_REACTORS
330
2C0
102
}
330
2C0
100
AcDbXrecord
340
0
  0
XRECORD
  5
2DF
102
{ACAD_REACTORS
330
2C0
102
}
330
2C0
100
AcDbXrecord
 10
0.0
 20
0.0
 30
0.0
  0
XRECORD
  5
2DB
102
{ACAD_REACTORS
330
2C0
102
}
330
2C0
100
AcDbXrecord
 10
0.0
 20
0.0
 30
0.0
  0
XRECORD
  5
2DE
102
{ACAD_REACTORS
330
2C0
102
}
330
2C0
100
AcDbXrecord
 10
0.0
 20
0.0
 30
0.0
  0
XRECORD
  5
2DC
102
{ACAD_REACTORS
330
2C0
102
}
330
2C0
100
AcDbXrecord
 10
0.0
 20
0.0
 30
0.0
  0
XRECORD
  5
2DD
102
{ACAD_REACTORS
330
2C0
102
}
330
2C0
100
AcDbXrecord
 10
0.0
 20
0.0
 30
0.0
  0
XRECORD
  5
2DA
102
{ACAD_REACTORS
330
2C0
102
}
330
2C0
100
AcDbXrecord
 10
0.0
 20
0.0
 30
0.0
  0
XRECORD
  5
2D7
102
{ACAD_REACTORS
330
2C0
102
}
330
2C0
100
AcDbXrecord
340
0
  0
XRECORD
  5
2D8
102
{ACAD_REACTORS
330
2C0
102
}
330
2C0
100
AcDbXrecord
 70
     0
  0
XRECORD
  5
2CC
102
{ACAD_REACTORS
330
2C0
102
}
330
2C0
100
AcDbXrecord
  1
{FAEB1C32-E019-11D5-929B-00C0DF256EC4}
  0
DICTIONARYVAR
  5
2ED
102
{ACAD_REACTORS
330
6E
102
}
330
6E
100
DictionaryVariables
280
     0
  1
1:1
  0
DICTIONARYVAR
  5
2E7
102
{ACAD_REACTORS
330
6E
102
}
330
6E
100
DictionaryVariables
280
     0
  1
3.500000
  0
DICTIONARYVAR
  5
2E8
102
{ACAD_REACTORS
330
6E
102
}
330
6E
100
DictionaryVariables
280
     0
  1
MM.LIN
  0
DICTIONARYVAR
  5
2E2
102
{ACAD_REACTORS
330
6E
102
}
330
6E
100
DictionaryVariables
280
     0
  1
Standard
  0
DICTIONARYVAR
  5
2E1
102
{ACAD_REACTORS
330
6E
102
}
330
6E
100
DictionaryVariables
280
     0
  1
Onshape-Standard
  0
DICTIONARYVAR
  5
2E9
102
{ACAD_REACTORS
330
6E
102
}
330
6E
100
DictionaryVariables
280
     0
  1
2
  0
DICTIONARYVAR
  5
2EA
102
{ACAD_REACTORS
330
6E
102
}
330
6E
100
DictionaryVariables
280
     0
  1
1
  0
DICTIONARYVAR
  5
2EE
102
{ACAD_REACTORS
330
6E
102
}
330
6E
100
DictionaryVariables
280
     0
  1
1
  0
DICTIONARYVAR
  5
6F
102
{ACAD_REACTORS
330
6E
102
}
330
6E
100
DictionaryVariables
280
     0
  1
0
  0
DICTIONARYVAR
  5
2E4
102
{ACAD_REACTORS
330
6E
102
}
330
6E
100
DictionaryVariables
280
     0
  1
80.000000
  0
DICTIONARYVAR
  5
2E3
102
{ACAD_REACTORS
330
6E
102
}
330
6E
100
DictionaryVariables
280
     0
  1
5.000000
  0
XRECORD
  5
26E
102
{ACAD_REACTORS
330
26D
102
}
330
26D
100
AcDbXrecord
 70
     4
  0
XRECORD
  5
271
102
{ACAD_REACTORS
330
26D
102
}
330
26D
100
AcDbXrecord
 90
        0
  0
XRECORD
  5
273
102
{ACAD_REACTORS
330
26D
102
}
330
26D
100
AcDbXrecord
 90
        0
  0
ACAD_PROXY_OBJECT
  5
274
102
{ACAD_REACTORS
330
26D
102
}
330
26D
100
AcDbProxyObject
 90
      499
 91
      508
 93
       34
310
40C8804040
  0
ACAD_PROXY_OBJECT
  5
272
102
{ACAD_REACTORS
330
26D
102
}
330
26D
100
AcDbProxyObject
 90
      499
 91
      508
 93
       34
310
40C8804040
  0
XRECORD
  5
270
102
{ACAD_REACTORS
330
26D
102
}
330
26D
100
AcDbXrecord
 90
        0
  0
XRECORD
  5
26F
102
{ACAD_REACTORS
330
26D
102
}
330
26D
100
AcDbXrecord
 90
        1
  0
DICTIONARY
  5
2F1
330
45
100
AcDbDictionary
280
     1
  3
ACAD_XREC_ROUNDTRIP
360
2F2
  0
DICTIONARY
  5
2EF
330
44
100
AcDbDictionary
280
     1
  3
ACAD_XREC_ROUNDTRIP
360
2F0
  0
DICTIONARY
  5
2F3
330
46
100
AcDbDictionary
280
     1
  3
ACAD_XREC_ROUNDTRIP
360
2F4
  0
XRECORD
  5
2F2
102
{ACAD_REACTORS
330
2F1
102
}
330
2F1
100
AcDbXrecord
102
MATERIAL
148
0.0
149
0.0
149
0.0
 93
        0
 94
      127
282
     0
 72
     1
 77
     1
171
     1
175
     1
179
     1
273
     0
  0
XRECORD
  5
2F0
102
{ACAD_REACTORS
330
2EF
102
}
330
2EF
100
AcDbXrecord
102
MATERIAL
148
0.0
149
0.0
149
0.0
 93
        0
 94
      127
282
     0
 72
     1
 77
     1
171
     1
175
     1
179
     1
273
     0
  0
XRECORD
  5
2F4
102
{ACAD_REACTORS
330
2F3
102
}
330
2F3
100
AcDbXrecord
102
MATERIAL
148
0.0
149
0.0
149
0.0
 93
        0
 94
      127
282
     0
 72
     1
 77
     1
171
     1
175
     1
179
     1
273
     0
  0
ENDSEC
  0
EOF
